<?xml version="1.0" standalone="no"?>
<!DOCTYPE svg PUBLIC "-//W3C//DTD SVG 20010904//EN"
 "http://www.w3.org/TR/2001/REC-SVG-20010904/DTD/svg10.dtd">
<svg version="1.0" xmlns="http://www.w3.org/2000/svg"
 width="700.000000pt" height="700.000000pt" viewBox="0 0 700.000000 700.000000"
 preserveAspectRatio="xMidYMid meet">
<metadata>
Created by potrace 1.14, written by Peter Selinger 2001-2017
</metadata>
<g transform="translate(0.000000,700.000000) scale(0.100000,-0.100000)"
fill="#000000" stroke="none">
<path d="M0 3500 l0 -3500 3500 0 3500 0 0 3500 0 3500 -3500 0 -3500 0 0
-3500z m6495 0 l0 -2995 -2995 0 -2995 0 -3 2985 c-1 1642 0 2991 3 2998 3 10
608 12 2997 10 l2993 -3 0 -2995z"/>
<path d="M3195 5548 c-3 -7 -4 -672 -3 -1478 l3 -1465 250 0 250 0 0 1475 0
1475 -248 3 c-193 2 -249 0 -252 -10z"/>
<path d="M4830 4310 l0 -590 -325 0 -325 0 0 -250 0 -250 325 0 325 0 2 -722
3 -723 253 -3 252 -2 0 1565 0 1565 -255 0 -255 0 0 -590z"/>
<path d="M1640 3215 l0 -1665 995 0 995 0 0 255 0 255 -745 0 -745 0 0 1410 0
1410 -250 0 -250 0 0 -1665z"/>
</g>
</svg>
