<svg v-if="icon.type == '5_star'" width="44" height="42" viewBox="0 0 44 42" fill="none" xmlns="http://www.w3.org/2000/svg">
            <path d="M22.0305 1L28.5289 14.1651L43.061 16.2892L32.5457 26.531L35.0273 41L22.0305 34.1651L9.03365 41L11.5152 26.531L1 16.2892L15.5321 14.1651L22.0305 1Z" stroke="white" stroke-linecap="round" stroke-linejoin="round"/>
            <path d="M18.623 27.7959C19.0844 28.0303 19.5459 28.2134 20.0146 28.3599C20.4834 28.499 21.04 28.5649 21.6772 28.5649C22.4023 28.5649 23.0468 28.4038 23.5961 28.0815C24.7021 27.437 25.2514 26.3677 25.2514 25.1445C25.2514 24.1484 24.9218 23.3281 24.27 22.6909C23.6108 22.0537 22.7978 21.7388 21.831 21.7388C21.0473 21.7388 20.3588 21.9365 19.7583 22.3247L19.9414 18.8164H24.8486V17.835H19.0405L18.8134 22.8301L19.5825 23.3574C20.1464 22.8887 20.8129 22.6543 21.5747 22.6543C22.3657 22.6543 23.0029 22.8813 23.479 23.3428C23.955 23.8042 24.1894 24.4048 24.1894 25.1445C24.1894 25.855 23.9624 26.4409 23.5083 26.9097C23.0468 27.3857 22.4389 27.6201 21.6772 27.6201C20.5932 27.6201 19.5752 27.3271 18.623 26.7339V27.7959Z" fill="white"/>
          </svg>