<svg v-if="icon.type == 'family_friendly'" width="24" height="40" viewBox="0 0 24 40" fill="none" xmlns="http://www.w3.org/2000/svg">
            <path d="M6.96816 9.60034C4.6504 9.60034 2.76465 7.71458 2.76465 5.39683V4.20395C2.76465 1.88576 4.6504 0 6.96816 0C9.28635 0 11.1721 1.88576 11.1721 4.20395V5.39638C11.1721 7.71458 9.28635 9.60034 6.96816 9.60034ZM6.96816 0.888879C5.14018 0.888879 3.65353 2.37597 3.65353 4.20395V5.39638C3.65353 7.22436 5.14062 8.71101 6.96816 8.71101C8.79569 8.71101 10.2832 7.22392 10.2832 5.39638V4.20395C10.2832 2.37642 8.79614 0.888879 6.96816 0.888879Z" fill="white"/>
            <path d="M11.7089 23.3926C10.3574 23.3926 9.25781 22.293 9.25781 20.9415V20.3046C9.25781 19.8757 9.37026 19.4535 9.58314 19.0837C10.0196 18.3251 10.8342 17.8535 11.7089 17.8535C13.0604 17.8535 14.16 18.9531 14.16 20.3046V20.9415C14.1595 22.293 13.0604 23.3926 11.7089 23.3926ZM11.7089 18.7428C11.1516 18.7428 10.632 19.0433 10.3538 19.5273C10.2187 19.7624 10.1471 20.0313 10.1471 20.305V20.9419C10.1471 21.8033 10.848 22.5041 11.7093 22.5041C12.5707 22.5041 13.2715 21.8033 13.2715 20.9419V20.305C13.2707 19.4433 12.5698 18.7428 11.7089 18.7428Z" fill="white"/>
            <path d="M12.2671 40H11.1506C10.4489 40 9.87287 39.4725 9.81109 38.7729L9.36532 32.9574C8.40755 32.5063 7.78223 31.5388 7.78223 30.4641V26.9286C7.78223 25.4077 9.01955 24.1704 10.5404 24.1704H12.8764C14.3973 24.1704 15.6346 25.4077 15.6346 26.9286V30.4641C15.6346 31.5388 15.0097 32.5068 14.0519 32.9574L13.6062 38.7676C13.5453 39.472 12.9693 40 12.2671 40ZM10.5409 25.0593C9.51021 25.0593 8.67155 25.8979 8.67155 26.9286V30.4641C8.67155 31.2606 9.17821 31.9703 9.93243 32.2303C10.1 32.2881 10.2173 32.4401 10.2306 32.6165L10.6969 38.7C10.7173 38.932 10.9124 39.1111 11.1506 39.1111H12.2671C12.5048 39.1111 12.7004 38.9325 12.7208 38.6947L13.1871 32.6161C13.2004 32.4397 13.3177 32.2877 13.4853 32.2299C14.2395 31.9699 14.7462 31.2601 14.7462 30.4637V26.9286C14.7462 25.8979 13.9075 25.0593 12.8768 25.0593H10.5409Z" fill="white"/>
            <path d="M8.01369 39.884H5.92171C4.80928 39.884 3.8964 39.048 3.79907 37.94L2.94619 26.8179C1.17243 26.081 0 24.3446 0 22.4073V15.7829C0 13.1474 2.14398 11.0034 4.7795 11.0034H9.1559C10.1652 11.0034 11.1305 11.3145 11.947 11.9025C12.1461 12.0461 12.191 12.3238 12.0479 12.523C11.9039 12.7221 11.6265 12.7674 11.4274 12.6238C10.763 12.1452 9.97767 11.8923 9.1559 11.8923H4.7795C2.63419 11.8923 0.888879 13.6376 0.888879 15.7829V22.4073C0.888879 24.0646 1.94353 25.5415 3.51285 26.0828C3.6804 26.1406 3.79774 26.2926 3.81107 26.469L4.68484 37.8671C4.74128 38.508 5.27327 38.9951 5.92171 38.9951H8.01369C8.66213 38.9951 9.19412 38.508 9.25101 37.8618L9.49901 34.628C9.51767 34.3832 9.72612 34.2009 9.97633 34.2187C10.2208 34.2374 10.4039 34.4507 10.3852 34.6956L10.1368 37.9347C10.039 39.048 9.12657 39.884 8.01369 39.884Z" fill="white"/>
            <path d="M16.4041 9.60034C14.086 9.60034 12.2002 7.71458 12.2002 5.39683V4.20395C12.2002 1.88576 14.086 0 16.4041 0C18.7223 0 20.6081 1.88576 20.6081 4.20395V5.39638C20.6081 7.71458 18.7223 9.60034 16.4041 9.60034ZM16.4041 0.888879C14.5762 0.888879 13.0891 2.37597 13.0891 4.20395V5.39638C13.0891 7.22436 14.5762 8.71101 16.4041 8.71101C18.2321 8.71101 19.7192 7.22392 19.7192 5.39638V4.20395C19.7192 2.37642 18.2321 0.888879 16.4041 0.888879Z" fill="white"/>
            <path d="M17.4503 39.884H15.3588C14.2463 39.884 13.3335 39.048 13.2361 37.94L13.0103 34.9969C12.9917 34.752 13.1748 34.5387 13.4197 34.52C13.6623 34.5032 13.8779 34.684 13.8966 34.9294L14.1219 37.8671C14.1783 38.508 14.7103 38.9951 15.3588 38.9951H17.4503C18.0992 38.9951 18.6307 38.508 18.6876 37.8622L19.0983 32.5085C19.1161 32.277 19.3094 32.0978 19.5414 32.0978H22.216L21.556 25.1237C21.5454 25.0095 21.5787 24.8962 21.6494 24.8064C22.1951 24.1139 22.4836 23.2846 22.4836 22.4073V15.7829C22.4836 13.6376 20.7383 11.8923 18.593 11.8923H14.2166C12.0712 11.8923 10.3264 13.6376 10.3264 15.7829V16.8234C10.3264 17.0687 10.1273 17.2678 9.88194 17.2678C9.63661 17.2678 9.4375 17.0687 9.4375 16.8234V15.7829C9.4375 13.1474 11.5815 11.0034 14.2166 11.0034H18.593C21.2285 11.0034 23.3725 13.1474 23.3725 15.7829V22.4073C23.3725 23.4259 23.0565 24.3917 22.4569 25.2126L23.1471 32.5005C23.1591 32.6254 23.1182 32.7494 23.0333 32.8418C22.9494 32.9343 22.8298 32.9872 22.7049 32.9872H19.9529L19.5734 37.9351C19.4756 39.048 18.5632 39.884 17.4503 39.884Z" fill="white"/>
          </svg> 