<svg width="20" height="17" viewBox="0 0 20 17" fill="none" xmlns="http://www.w3.org/2000/svg">
              <path d="M14.3333 16V14.3333C14.3333 13.4493 13.9821 12.6014 13.357 11.9763C12.7319 11.3512 11.8841 11 11 11H4.33333C3.44928 11 2.60143 11.3512 1.97631 11.9763C1.35119 12.6014 1 13.4493 1 14.3333V16" stroke="#606B72" stroke-linecap="round" stroke-linejoin="round"/>
              <path d="M7.66634 7.66667C9.50729 7.66667 10.9997 6.17428 10.9997 4.33333C10.9997 2.49238 9.50729 1 7.66634 1C5.82539 1 4.33301 2.49238 4.33301 4.33333C4.33301 6.17428 5.82539 7.66667 7.66634 7.66667Z" stroke="#606B72" stroke-linecap="round" stroke-linejoin="round"/>
              <path d="M19.333 16.0001V14.3334C19.3325 13.5948 19.0866 12.8774 18.6341 12.2937C18.1817 11.7099 17.5481 11.293 16.833 11.1084" stroke="#606B72" stroke-linecap="round" stroke-linejoin="round"/>
              <path d="M13.5 1.1084C14.217 1.29198 14.8525 1.70898 15.3064 2.29366C15.7602 2.87833 16.0065 3.59742 16.0065 4.33756C16.0065 5.07771 15.7602 5.7968 15.3064 6.38147C14.8525 6.96615 14.217 7.38315 13.5 7.56673" stroke="#606B72" stroke-linecap="round" stroke-linejoin="round"/>
            </svg>