<svg width="17" height="19" viewBox="0 0 17 19" fill="none" xmlns="http://www.w3.org/2000/svg">
              <path d="M16.03 7.86364C16.03 13.5909 8.66637 18.5 8.66637 18.5C8.66637 18.5 1.30273 13.5909 1.30273 7.86364C1.30273 5.91068 2.07854 4.03771 3.45949 2.65676C4.84044 1.27581 6.71341 0.5 8.66637 0.5C10.6193 0.5 12.4923 1.27581 13.8732 2.65676C15.2542 4.03771 16.03 5.91068 16.03 7.86364Z" stroke="#606B72" stroke-linecap="round" stroke-linejoin="round"></path>
              <path d="M8.66646 10.3183C10.0221 10.3183 11.121 9.21933 11.121 7.86373C11.121 6.50812 10.0221 5.40918 8.66646 5.40918C7.31085 5.40918 6.21191 6.50812 6.21191 7.86373C6.21191 9.21933 7.31085 10.3183 8.66646 10.3183Z" stroke="#606B72" stroke-linecap="round" stroke-linejoin="round"></path>
            </svg>