<svg v-if="icon.type == 'multi_bedroom'" width="37" height="30" viewBox="0 0 37 30" fill="none" xmlns="http://www.w3.org/2000/svg">
            <path d="M36.2985 20.3099H0.407848C0.182716 20.3099 0 20.1276 0 19.902V14.0971C0 12.6611 1.16849 11.4922 2.60493 11.4922H34.1018C35.5379 11.4922 36.7067 12.6607 36.7067 14.0971V19.902C36.7063 20.1272 36.524 20.3099 36.2985 20.3099ZM0.815696 19.4942H35.8906V14.0971C35.8906 13.1105 35.088 12.3079 34.1014 12.3079H2.60493C1.61834 12.3079 0.815696 13.1105 0.815696 14.0971V19.4942Z" fill="white"/>
            <path d="M36.2985 29.9998H31.9529C31.7273 29.9998 31.545 29.8175 31.545 29.592V25.8226H5.16132V29.592C5.16132 29.8175 4.9786 29.9998 4.75347 29.9998H0.407848C0.182716 29.9998 0 29.8175 0 29.592V19.9015C0 19.676 0.182716 19.4937 0.407848 19.4937H36.2985C36.524 19.4937 36.7063 19.676 36.7063 19.9015V29.592C36.7063 29.8175 36.524 29.9998 36.2985 29.9998ZM32.3607 29.1841H35.8906V20.3093H0.815696V29.1841H4.34562V25.4148C4.34562 25.1893 4.52834 25.0069 4.75347 25.0069H31.9529C32.1784 25.0069 32.3607 25.1893 32.3607 25.4148V29.1841Z" fill="white"/>
            <path d="M33.6147 12.308H3.0934C2.86826 12.308 2.68555 12.1253 2.68555 11.9002V2.31984C2.68555 1.04083 3.72597 0 5.00498 0H31.7027C32.9817 0 34.0226 1.04042 34.0226 2.31984V11.9002C34.0226 12.1253 33.8403 12.308 33.6147 12.308ZM3.50124 11.4923H33.2069V2.31984C33.2069 1.49069 32.5323 0.815696 31.7027 0.815696H5.00498C4.17582 0.815696 3.50124 1.49028 3.50124 2.31984V11.4923Z" fill="white"/>
            <path d="M16.6348 12.3079H6.38148C6.15635 12.3079 5.97363 12.1252 5.97363 11.9001V7.92112C5.97363 6.9223 6.78607 6.10986 7.78489 6.10986H15.2314C16.2302 6.10986 17.0426 6.9223 17.0426 7.92112V11.9001C17.0426 12.1252 16.8599 12.3079 16.6348 12.3079ZM6.78933 11.4922H16.2269V7.92112C16.2269 7.37215 15.7803 6.92556 15.2314 6.92556H7.78489C7.23592 6.92556 6.78933 7.37215 6.78933 7.92112V11.4922Z" fill="white"/>
            <path d="M30.3242 12.3079H20.0709C19.8454 12.3079 19.6631 12.1252 19.6631 11.9001V7.92112C19.6631 6.9223 20.4755 6.10986 21.4743 6.10986H28.9204C29.9192 6.10986 30.7317 6.9223 30.7317 7.92112V11.9001C30.7321 12.1252 30.5494 12.3079 30.3242 12.3079ZM20.4788 11.4922H29.9164V7.92112C29.9164 7.37215 29.4698 6.92556 28.9208 6.92556H21.4743C20.925 6.92556 20.4788 7.37215 20.4788 7.92112V11.4922Z" fill="white"/>
          </svg>