<svg width="49" height="30" viewBox="0 0 49 30" fill="none" xmlns="http://www.w3.org/2000/svg">
  <path d="M37.856 20.23a5.691 5.691 0 0 1-5.627-6.575 5.647 5.647 0 0 1 2.273-3.711 5.64 5.64 0 0 1 4.23-1.016 5.692 5.692 0 0 1 4.727 6.505 5.644 5.644 0 0 1-2.273 3.71 5.638 5.638 0 0 1-3.33 1.087Zm-.022-10.3c-.966 0-1.905.303-2.701.882a4.584 4.584 0 0 0-1.844 3.01 4.619 4.619 0 0 0 3.834 5.277 4.62 4.62 0 0 0 5.277-3.834 4.618 4.618 0 0 0-4.566-5.335Zm5.096 5.419h.005-.005Z" fill="#fff"/>
  <path d="M33.494 25.007a.535.535 0 0 1-.46-.26l-4.246-7.078a3.591 3.591 0 0 1-.266-3.154l2.224-5.66a3.31 3.31 0 0 1 2.214-1.978l6.95-1.866a2.005 2.005 0 0 0 .482-3.669 1.99 1.99 0 0 0-1.519-.2l-9.424 2.53a2.233 2.233 0 0 0-1.494 1.336l-3.312 8.427a4.792 4.792 0 0 1-1.97 2.336l-12.267 7.177a.536.536 0 1 1-.542-.926l12.26-7.172a3.713 3.713 0 0 0 1.52-1.807l3.312-8.428a3.31 3.31 0 0 1 2.214-1.978l9.424-2.53a3.051 3.051 0 0 1 2.334.306A3.056 3.056 0 0 1 42.36 2.28a3.079 3.079 0 0 1-2.172 3.767l-6.951 1.866a2.231 2.231 0 0 0-1.494 1.335l-2.224 5.66a2.513 2.513 0 0 0 .187 2.208l4.247 7.08a.536.536 0 0 1-.46.811Z" fill="#fff"/>
  <path d="M44.369 26.168c-1.258 0-2.516-.58-3.74-1.738-2.05-1.941-3.958-1.94-6.006 0-2.448 2.318-5.035 2.317-7.481 0-2.049-1.94-3.957-1.94-6.006 0-2.447 2.318-5.035 2.318-7.481 0-2.05-1.94-3.957-1.94-6.007 0-2.447 2.318-5.034 2.318-7.48 0a.536.536 0 1 1 .737-.779c2.049 1.94 3.957 1.94 6.006 0 2.447-2.318 5.034-2.318 7.481 0 2.049 1.94 3.957 1.94 6.006 0 2.447-2.319 5.034-2.317 7.481 0 2.049 1.94 3.956 1.941 6.006 0 2.447-2.317 5.033-2.319 7.481 0 2.05 1.941 3.957 1.94 6.006 0a.535.535 0 1 1 .737.779c-1.223 1.159-2.481 1.738-3.74 1.738Z" fill="#fff"/>
  <path d="M44.369 30c-1.258 0-2.516-.58-3.74-1.739-2.05-1.94-3.958-1.94-6.006 0-2.448 2.32-5.035 2.318-7.481 0-2.049-1.94-3.957-1.94-6.006 0-2.447 2.319-5.035 2.319-7.481 0-2.05-1.94-3.957-1.94-6.007 0-2.447 2.319-5.034 2.319-7.48 0a.536.536 0 1 1 .737-.778c2.049 1.94 3.957 1.94 6.006 0 2.447-2.319 5.034-2.319 7.481 0 2.049 1.94 3.957 1.94 6.006 0 2.447-2.319 5.034-2.318 7.481 0 2.049 1.94 3.956 1.94 6.006 0 2.447-2.318 5.033-2.319 7.481 0 2.05 1.94 3.957 1.94 6.006 0a.536.536 0 1 1 .737.778C46.886 29.421 45.628 30 44.37 30Z" fill="#fff"/>
</svg>
