<svg v-if="icon.type == 'sustainable'" width="48" height="40" viewBox="0 0 48 40" fill="none" xmlns="http://www.w3.org/2000/svg">
            <path d="M24.0565 32.0867C17.9392 32.0867 12.9629 27.1104 12.9629 20.9931C12.9629 14.9051 17.7644 0 24.0565 0C30.3485 0 35.1495 14.9051 35.1495 20.9931C35.1495 27.1104 30.1732 32.0867 24.0565 32.0867ZM24.0565 1.06276C18.8755 1.06276 14.0256 14.767 14.0256 20.9931C14.0256 26.5243 18.5254 31.024 24.0565 31.024C29.5876 31.024 34.0868 26.5243 34.0868 20.9931C34.0868 14.767 29.2374 1.06276 24.0565 1.06276Z" fill="white"/>
            <path d="M24.0783 40.0003C23.7849 40.0003 23.5469 39.7627 23.5469 39.4689V16.0192C23.5469 15.7259 23.7849 15.4878 24.0783 15.4878C24.3716 15.4878 24.6096 15.7259 24.6096 16.0192V39.4689C24.6102 39.7622 24.3716 40.0003 24.0783 40.0003Z" fill="white"/>
            <path d="M24.0783 21.2226C23.9348 21.2226 23.7924 21.1658 23.6883 21.052C23.489 20.8368 23.5018 20.5005 23.7175 20.3012L26.8957 17.3616C27.1109 17.1624 27.4462 17.1751 27.6465 17.3909C27.8458 17.6066 27.8325 17.9424 27.6168 18.1417L24.4391 21.0818C24.3366 21.1759 24.2069 21.2226 24.0783 21.2226Z" fill="white"/>
            <path d="M24.0778 25.7398C23.9487 25.7398 23.819 25.6931 23.717 25.5985L19.2779 21.4931C19.0627 21.2938 19.0494 20.9574 19.2486 20.7422C19.4479 20.5265 19.7843 20.5132 20 20.7125L24.4391 24.8179C24.6544 25.0171 24.6676 25.3535 24.4684 25.5687C24.3632 25.6819 24.2207 25.7398 24.0778 25.7398Z" fill="white"/>
            <path d="M39.2581 33.9799C35.709 33.9799 32.4862 31.7492 31.2375 28.4281C31.1339 28.1533 31.2725 27.8473 31.5478 27.7442C31.8209 27.6406 32.1286 27.7792 32.2317 28.0545C33.3258 30.9633 36.149 32.9171 39.2581 32.9171C43.3954 32.9171 46.7617 29.5509 46.7617 25.4136C46.7617 21.2762 43.3954 17.91 39.2581 17.91C37.6353 17.91 36.0905 18.4196 34.7908 19.384C34.5554 19.5583 34.2228 19.5094 34.0479 19.2735C33.8731 19.0381 33.9225 18.7049 34.1579 18.5301C35.6421 17.4291 37.4057 16.8467 39.2586 16.8467C43.9826 16.8467 47.825 20.6891 47.825 25.413C47.825 30.137 43.982 33.9799 39.2581 33.9799Z" fill="white"/>
            <path d="M39.2736 40C38.9797 40 38.7422 39.7625 38.7422 39.4686V23.6378C38.7422 23.344 38.9797 23.1064 39.2736 23.1064C39.5674 23.1064 39.8049 23.344 39.8049 23.6378V39.4686C39.8049 39.762 39.5674 40 39.2736 40Z" fill="white"/>
            <path d="M39.2734 27.7231C39.1304 27.7231 38.988 27.6657 38.8834 27.5525C38.6841 27.3373 38.6974 27.001 38.9131 26.8017L41.3314 24.5657C41.5461 24.3664 41.8824 24.3792 42.0822 24.5954C42.2815 24.8106 42.2682 25.147 42.0525 25.3463L39.6342 27.5823C39.5322 27.6764 39.4025 27.7231 39.2734 27.7231Z" fill="white"/>
            <path d="M39.2741 31.1596C39.145 31.1596 39.0159 31.1129 38.9133 31.0183L35.5369 27.8954C35.3217 27.6961 35.3079 27.3598 35.5072 27.1446C35.7065 26.9288 36.0428 26.9155 36.258 27.1148L39.6344 30.2377C39.8496 30.437 39.8634 30.7733 39.6642 30.9885C39.5595 31.1023 39.4171 31.1596 39.2741 31.1596Z" fill="white"/>
            <path d="M9.74036 39.9999C9.44704 39.9999 9.20898 39.7624 9.20898 39.4685V24.0905C9.20898 23.7966 9.44704 23.5591 9.74036 23.5591C10.0337 23.5591 10.2717 23.7966 10.2717 24.0905V39.4685C10.2717 39.7619 10.0337 39.9999 9.74036 39.9999Z" fill="white"/>
            <path d="M9.74043 28.1873C9.59749 28.1873 9.45508 28.1305 9.3504 28.0167C9.15113 27.8015 9.16388 27.4652 9.37962 27.2659L11.8054 25.0219C12.0206 24.8232 12.3569 24.8343 12.5562 25.0517C12.7555 25.2669 12.7427 25.6032 12.527 25.8025L10.1012 28.0465C9.99921 28.1406 9.86955 28.1873 9.74043 28.1873Z" fill="white"/>
            <path d="M9.7391 31.6351C9.60998 31.6351 9.48032 31.5883 9.3783 31.4937L5.99076 28.3607C5.77555 28.1615 5.76227 27.8251 5.96154 27.6099C6.1608 27.3941 6.49717 27.3809 6.71237 27.5801L10.0999 30.7131C10.3151 30.9124 10.3284 31.2488 10.1291 31.464C10.0245 31.5777 9.88204 31.6351 9.7391 31.6351Z" fill="white"/>
            <path d="M15.9488 35.092H3.49806C1.56916 35.092 0 33.5229 0 31.594C0 30.3761 0.638716 29.2527 1.65949 28.6204C1.57288 28.2234 1.52931 27.8201 1.52931 27.4157C1.52931 25.5235 2.49004 23.7466 4.0576 22.6976C4.05069 22.5876 4.04751 22.4824 4.04751 22.3788C4.04751 19.249 6.59387 16.7026 9.72315 16.7026C11.2966 16.7026 12.8131 17.3647 13.8844 18.5184C14.0842 18.7336 14.0714 19.0699 13.8562 19.2692C13.6415 19.4685 13.3046 19.4568 13.1054 19.241C12.2344 18.3031 11.0022 17.7654 9.72315 17.7654C7.17945 17.7654 5.11026 19.8351 5.11026 22.3788C5.11026 22.56 5.12355 22.738 5.14374 22.9139C5.16818 23.1233 5.06616 23.3268 4.88443 23.4336C3.47043 24.2604 2.59206 25.786 2.59206 27.4157C2.59206 27.8616 2.65795 28.3069 2.78708 28.7389C2.8636 28.9939 2.73925 29.266 2.49694 29.3755C1.62602 29.7703 1.06276 30.6407 1.06276 31.594C1.06276 32.9368 2.15527 34.0293 3.49806 34.0293H15.9493C17.2921 34.0293 18.3846 32.9368 18.3846 31.594C18.3846 31.1168 18.2465 30.6545 17.985 30.2586C17.8235 30.0137 17.891 29.6842 18.1359 29.5221C18.3809 29.3617 18.7114 29.4286 18.8719 29.673C19.2481 30.2432 19.4474 30.9074 19.4474 31.5934C19.4468 33.5229 17.8777 35.092 15.9488 35.092Z" fill="white"/>
            <path d="M47.2926 40.0003H0.531378C0.238057 40.0003 0 39.7627 0 39.4689C0 39.175 0.238057 38.9375 0.531378 38.9375H47.2926C47.5865 38.9375 47.824 39.175 47.824 39.4689C47.824 39.7627 47.5865 40.0003 47.2926 40.0003Z" fill="white"/>
          </svg>