<?xml version="1.0" encoding="utf-8"?>
<!-- Generator: Adobe Illustrator 24.2.1, SVG Export Plug-In . SVG Version: 6.00 Build 0)  -->
<svg version="1.1" id="Layer_1" xmlns="http://www.w3.org/2000/svg" xmlns:xlink="http://www.w3.org/1999/xlink" x="0px" y="0px"
	 viewBox="0 0 208 46" style="enable-background:new 0 0 208 46;" xml:space="preserve">
<style type="text/css">
	.st0{fill:#FFFFFF;}
</style>
<g>
	<path class="st0" d="M0.3,2V44h41.9V2H0.3z M39.2,41h-36V5h36V41z"/>
	<path class="st0" d="M22,31.6h-8.9V14.8h-3v19.9H22V31.6z"/>
	<path class="st0" d="M22.4,10.7h-3v17.7h3V10.7z"/>
	<path class="st0" d="M29.3,33.3h3V14.7h-3v7.1h-4v3h4V33.3z"/>
</g>
<path class="st0" d="M61.1,31v-3.1H54V15.6h-3.3V31H61.1z"/>
<path class="st0" d="M62.7,25.1c0,1.9,0.5,3.5,1.6,4.6c1.1,1.1,2.6,1.7,4.5,1.7c1.9,0,3.4-0.6,4.5-1.7c1.1-1.1,1.6-2.6,1.6-4.6v-9.5
	h-3.3v9.5c0,1.9-1,3.1-2.8,3.1C67,28.2,66,27,66,25.1v-9.5h-3.3V25.1z"/>
<path class="st0" d="M80.4,31l3.3-5.4L87,31h3.9l-5-7.9l4.8-7.6h-3.8l-3.1,5.1l-3.1-5.1h-3.8l4.8,7.6l-5,7.9H80.4z"/>
<path class="st0" d="M92.5,25.1c0,1.9,0.5,3.5,1.6,4.6c1.1,1.1,2.6,1.7,4.5,1.7c1.9,0,3.4-0.6,4.5-1.7c1.1-1.1,1.6-2.6,1.6-4.6v-9.5
	h-3.3v9.5c0,1.9-1,3.1-2.8,3.1c-1.8,0-2.8-1.2-2.8-3.1v-9.5h-3.3V25.1z"/>
<path class="st0" d="M110.9,31v-5.3h2.2l2.6,5.3h3.6l-3-5.7c0.9-0.4,1.7-1,2.2-1.8c0.5-0.8,0.8-1.8,0.8-2.9c0-1.5-0.5-2.7-1.5-3.6
	c-1-1-2.3-1.4-3.8-1.4h-6.3V31H110.9z M110.9,18.4h2.4c1.5,0,2.4,0.8,2.4,2.2c0,1.4-0.9,2.2-2.4,2.2h-2.4V18.4z"/>
<path class="st0" d="M125.5,25v6h3.4v-6l5.8-9.4H131l-3.8,6.3l-3.8-6.3h-3.7L125.5,25z"/>
<path class="st0" d="M139.8,31v-6.2h6.6V31h3.3V15.6h-3.3v6.1h-6.6v-6.1h-3.3V31H139.8z"/>
<path class="st0" d="M152.4,26.2c0.6,1.8,1.7,3,3,3.9c1.4,0.9,2.9,1.3,4.6,1.3c1.6,0,3.2-0.4,4.6-1.3c0.7-0.4,1.3-1,1.8-1.6
	c1-1.2,1.7-3.1,1.7-5.2c0-1.3-0.2-2.5-0.7-3.5c-0.5-1-1.1-1.9-1.8-2.5c-1.5-1.3-3.5-2-5.6-2c-2.4,0-4.8,1-6.4,2.9
	c-0.5,0.6-0.9,1.4-1.2,2.3c-0.3,0.9-0.5,1.9-0.5,2.9C152,24.3,152.1,25.3,152.4,26.2z M155.4,23.3c0-1.4,0.4-2.6,1.3-3.5
	c0.9-0.9,2-1.3,3.3-1.3c1.3,0,2.4,0.4,3.3,1.3c0.9,0.9,1.3,2,1.3,3.5c0,1.5-0.4,2.6-1.3,3.5c-0.9,0.9-2,1.3-3.3,1.3
	c-1.3,0-2.4-0.4-3.3-1.3C155.9,25.9,155.4,24.7,155.4,23.3z"/>
<path class="st0" d="M173.7,18.6V31l3.3,0V18.6l4.9,0v-3h-13.2v3H173.7z"/>
<path class="st0" d="M194.4,31v-3h-7.1v-3.3h6.4v-2.9h-6.4v-3.3h7.1v-2.9h-10.3V31H194.4z"/>
<path class="st0" d="M207.2,31v-3.1h-7.1V15.6h-3.3V31H207.2z"/>
</svg>
