<?xml version="1.0" encoding="utf-8"?>
<svg width="88.88391px" height="106.00423px" viewBox="0 0 88.88391 106.00423" version="1.1" xmlns:xlink="http://www.w3.org/1999/xlink" xmlns="http://www.w3.org/2000/svg">
  <g id="africa">
    <path d="M34.2313 0.322296C33.6546 0.644592 32.8064 0.678513 32.3824 0.407104C32.2806 0.339264 32.1279 0.390152 32.0601 0.491928C31.9753 0.644592 31.8226 0.644592 31.4664 0.47496C31.0932 0.305328 30.9744 0.305328 30.9066 0.47496C30.8727 0.576736 30.72 0.678513 30.5504 0.678513C30.3977 0.678513 30.1602 0.780289 30.0584 0.88208C29.8888 1.0517 29.7701 1.0517 29.5156 0.88208C29.0576 0.610672 28.5827 0.627625 26.2926 1.00081C24.3758 1.3231 23.2393 1.71326 23.2393 2.06949C23.2393 2.1543 23.1206 2.20518 22.9849 2.1543C22.8492 2.08644 22.6965 2.12038 22.6456 2.20518C22.5778 2.30696 22.4251 2.37482 22.2894 2.37482C22.1537 2.37482 21.8483 2.56142 21.6109 2.79889C21.3734 3.03638 21.102 3.22296 20.9832 3.23993C20.5592 3.27385 19.9315 3.18904 19.7958 3.0703C19.728 3.00246 19.2361 3.00246 18.6932 3.0703C17.6246 3.22296 16.9969 2.96852 16.8443 2.35785C16.7425 2.0186 16.505 1.95074 16.1827 2.17126C16.0809 2.23912 15.8095 2.71408 15.589 3.22296C15.0123 4.59697 14.6221 5.05498 13.5704 5.54691C12.5526 6.03882 11.5349 6.93787 11.5349 7.36194C11.5349 7.5146 11.3652 7.88779 11.1617 8.15919C10.8563 8.56631 10.7715 8.90558 10.7715 9.75372C10.7715 10.3983 10.6867 10.9242 10.5679 11.0429C10.4492 11.1617 10.3474 11.3483 10.3474 11.45C10.3474 11.5348 10.076 11.8571 9.73677 12.1285C9.39751 12.4169 8.97343 12.7731 8.78683 12.9428C8.39668 13.299 7.42979 13.74 7.03964 13.74C6.66646 13.74 6.42899 14.0114 5.98795 14.9614C5.76743 15.4194 5.52994 15.7756 5.4621 15.7756C5.00409 15.7756 4.07112 17.1665 4.07112 17.862C4.07112 18.2691 3.63008 18.9477 2.95157 19.5923C2.74802 19.7789 2.40875 20.3895 2.18823 20.9493C1.98468 21.5091 1.67934 22.0689 1.5097 22.1706C1.35704 22.2894 1.17046 22.6626 1.1026 23.0188C1.05171 23.375 0.949936 23.85 0.899048 24.0705C0.831192 24.3589 0.865112 24.4437 1.03474 24.3928C1.15349 24.3589 1.44186 24.5115 1.64542 24.7321C2.03557 25.1561 2.15431 25.6141 1.8829 25.6141C1.59453 25.6141 1.5097 26.4623 1.78111 26.8524C2.13734 27.3613 2.10342 28.8201 1.6963 29.8549C1.5097 30.3298 1.35704 30.9066 1.35704 31.161C1.35704 31.6699 0.525864 33.0778 0.22052 33.0778C0.101776 33.0778 0 33.1457 0 33.2475C0 33.3323 0.118744 33.4171 0.254456 33.4171C0.40712 33.4171 0.593704 33.6207 0.695496 33.8751C0.797272 34.1465 0.949936 34.4858 1.03474 34.6384C1.11957 34.8081 1.11957 34.9607 1.01779 35.0286C0.916 35.0795 0.84816 35.4866 0.84816 35.9276C0.865112 36.5892 0.949936 36.8097 1.35704 37.2168C1.91682 37.7596 2.0186 38.048 1.59453 37.8784C1.37401 37.7936 1.34009 37.8445 1.44186 38.1837C1.62845 38.7774 1.74719 38.8453 2.12038 38.5569C2.35786 38.3703 2.39178 38.2685 2.25609 38.2176C2.00163 38.1328 1.95074 37.6579 2.18823 37.6579C2.27304 37.6579 2.42572 37.8784 2.5275 38.1667C2.6123 38.4382 2.78194 38.6756 2.86674 38.6756C2.96854 38.6756 3.05334 38.7944 3.05334 38.9301C3.05334 39.0658 3.17209 39.1845 3.30779 39.1845C3.4435 39.1845 3.56224 39.2354 3.56224 39.3202C3.56224 39.3881 3.95238 39.8461 4.41039 40.355C4.9532 40.9487 5.25853 41.4236 5.2755 41.712C5.29247 42.4245 5.39424 42.7977 5.61476 42.9164C5.71654 42.9842 5.75046 43.1369 5.69957 43.2387C5.63171 43.3405 5.64868 43.4253 5.75046 43.4253C5.85223 43.4253 5.88617 43.5271 5.85223 43.6288C5.80135 43.7645 6.0558 43.9681 6.47987 44.1547C7.19232 44.4431 7.78603 44.918 9.82158 46.75C11.8741 48.599 12.383 48.7517 13.9266 48.0053C15.5551 47.225 18.1165 47.1571 19.5414 47.8526C19.728 47.9374 20.0163 47.9035 20.3047 47.7508C21.8653 46.9705 23.0358 46.4786 23.375 46.4786C23.5786 46.4786 23.7991 46.3599 23.85 46.2411C23.9687 45.9188 25.3427 45.6305 26.9203 45.5965C27.9211 45.5626 28.1925 45.6135 28.4978 45.8849C28.9219 46.2751 29.5156 47.3607 29.5156 47.7339C29.5156 47.8696 29.6853 48.1579 29.9058 48.3445C30.1941 48.6329 30.4147 48.6838 30.8727 48.599C31.195 48.5481 31.7717 48.4633 32.1449 48.4294C32.5181 48.3785 33.0609 48.3276 33.3662 48.2937C33.8073 48.2258 33.926 48.2937 33.9939 48.616C34.0447 48.8195 34.2483 49.057 34.4349 49.1079C34.6215 49.1588 34.7742 49.3114 34.7742 49.4302C34.7742 49.5659 34.8759 49.7525 35.0116 49.8543C35.3339 50.1257 35.1813 51.7711 34.7572 52.6192C34.5367 53.0433 34.5027 53.2638 34.6384 53.2977C34.7572 53.3486 34.7911 53.4843 34.6893 53.7049C34.6215 53.8745 34.5197 54.3664 34.4858 54.7905C34.401 55.5199 34.1805 55.8761 33.8921 55.7065C33.6716 55.5708 33.7394 56.0457 33.9939 56.5886C34.1296 56.86 34.367 57.3858 34.5367 57.759C34.7063 58.1322 35.1304 58.7089 35.4527 59.0312C36.657 60.2017 38.1667 62.4408 38.1667 63.0684C38.1667 63.272 38.2516 63.4755 38.3364 63.5264C38.4382 63.5943 38.4721 63.6961 38.4212 63.7809C38.3703 63.8657 38.506 64.3407 38.7435 64.8326C38.964 65.3245 39.2863 66.1387 39.4729 66.6307C39.7782 67.5127 39.7782 67.5467 39.4559 67.7672C39.1506 68.0047 39.1506 68.0555 39.6934 69.4126C40.0666 70.3625 40.2362 71.075 40.2193 71.5838C40.1853 72.4659 39.9139 73.2802 39.6256 73.2802C39.3033 73.2971 38.523 74.705 38.4042 75.5023C38.2685 76.5201 37.8275 78.0298 37.6918 78.0298C37.4713 78.0298 37.573 81.151 37.8105 81.7108C37.9293 82.0161 38.0989 82.2705 38.1498 82.2705C38.3194 82.2705 39.0488 83.7803 39.7782 85.5783C39.9309 85.9515 40.2532 86.5961 40.5076 87.0202C40.8639 87.6308 40.9657 88.021 40.9826 88.9709C40.9996 89.6155 41.0844 90.5315 41.1862 91.0065C41.2879 91.4645 41.4915 92.5332 41.6442 93.3643C41.9665 95.1115 42.2039 95.6543 43.086 96.6212C43.4931 97.0623 43.8494 97.7238 44.1038 98.4872C44.5109 99.7424 45.0707 100.964 45.3082 101.116C45.393 101.167 45.5117 101.557 45.5626 101.999C45.6644 102.66 45.6305 102.796 45.41 102.796C45.2743 102.796 45.1216 102.898 45.0707 102.999C45.0028 103.237 45.2743 103.814 45.5287 104C45.6135 104.068 45.6474 104.305 45.5965 104.543C45.4778 105.12 45.7323 105.527 45.9697 105.171C46.0715 105.001 46.1394 104.984 46.1394 105.12C46.1394 105.238 46.2411 105.34 46.3599 105.34C46.4956 105.34 46.7331 105.493 46.9027 105.679C47.2759 106.104 47.6151 106.104 48.0392 105.73C48.2428 105.544 48.616 105.442 49.057 105.459C49.4471 105.476 49.9221 105.374 50.1596 105.221C50.6515 104.899 51.8729 104.814 52.8058 105.035C53.2469 105.137 53.5352 105.137 53.6879 105.001C53.8236 104.899 54.095 104.831 54.3155 104.865C54.536 104.899 54.6887 104.831 54.6718 104.73C54.6548 104.611 54.9601 104.492 55.3672 104.458C56.2663 104.356 57.9795 103.237 58.9464 102.151C59.133 101.931 59.5741 101.473 59.9472 101.133C60.5749 100.523 61.7453 98.8604 61.7453 98.572C61.7453 98.3515 62.8818 97.198 63.1024 97.198C63.289 97.198 63.5943 96.5704 64.0184 95.2472C64.3237 94.2973 64.3915 93.042 64.1201 93.2117C63.8148 93.3983 63.9505 92.9912 64.3407 92.5332C64.5442 92.2957 65.2567 91.8886 65.9012 91.6172C66.7664 91.2779 67.1905 90.9895 67.4788 90.5824C67.7163 90.2262 67.8011 89.9548 67.6993 89.853C67.5976 89.7512 67.5976 89.5307 67.7163 89.2423C67.9368 88.6995 67.9029 87.3425 67.6824 87.122C67.5806 87.0202 67.5128 86.8675 67.5128 86.7827C67.5128 86.6809 67.5976 86.7149 67.6824 86.8505C67.8181 87.0541 67.852 87.0371 67.852 86.7149C67.852 86.5113 67.7672 86.3586 67.6484 86.3756C67.5297 86.4095 67.4449 86.189 67.4279 85.8328C67.411 85.5105 67.3092 85.2221 67.1905 85.1882C67.0887 85.1542 67.0038 84.9507 67.0038 84.7471C67.0038 84.3061 68.5305 82.6098 68.9376 82.6098C69.0903 82.6098 69.209 82.5419 69.209 82.4741C69.209 82.4063 69.3448 82.1518 69.5144 81.9313C70.125 81.1001 70.7527 80.6082 71.7026 80.218C72.2454 80.0145 72.7204 79.777 72.7713 79.7261C72.8222 79.6582 72.9748 79.5395 73.1275 79.4547C73.5685 79.2172 74.705 77.6736 74.9425 76.9781C75.1122 76.4862 75.1122 76.1808 74.9765 75.621C74.8577 75.2139 74.7899 73.9417 74.8068 72.6864C74.8577 69.8536 74.8747 69.9724 74.4167 69.7688C74.0944 69.6161 73.9417 69.3278 73.7382 68.4118C73.365 66.936 73.3819 66.7155 73.7891 66.6137C73.9756 66.5628 74.1283 66.4271 74.1283 66.3253C74.1283 66.2066 74.0096 66.1557 73.8739 66.2236C73.5346 66.3423 73.3311 65.8673 73.5685 65.4941C73.7042 65.2736 73.6364 65.0701 73.2632 64.6121C72.9918 64.3067 72.7713 63.9166 72.7713 63.7809C72.7713 63.4246 73.3311 61.8471 73.5007 61.7284C73.6703 61.6096 74.4506 59.8115 74.5863 59.2348C74.6372 59.0312 74.8408 58.7768 75.0273 58.675C75.5532 58.3866 76.4353 57.4367 76.7745 56.8091C77.5039 55.3672 79.7939 52.9076 81.1849 52.0255C82.1009 51.4488 84.798 48.4972 84.815 48.0562C84.815 47.9883 85.0864 47.4964 85.4087 46.9875C85.731 46.4786 86.0024 45.9358 86.0024 45.7662C86.0024 45.4269 87.0372 43.2048 87.2407 43.1199C87.3086 43.086 87.3595 42.9842 87.3595 42.8825C87.3595 42.7977 87.5461 42.3396 87.7835 41.8647C88.021 41.4067 88.2076 40.7621 88.2076 40.4228C88.2076 39.9818 88.2924 39.8122 88.5469 39.7443C88.9031 39.6425 89.0049 39.422 88.7165 39.3202C88.5638 39.2693 88.479 38.3703 88.5808 37.7596C88.6656 37.2847 87.9532 37.0811 87.58 37.4713C87.2068 37.8445 85.748 38.3533 85.3918 38.2176C85.256 38.1667 84.9507 38.2176 84.7302 38.3364C84.5097 38.4551 84.1534 38.506 83.9499 38.4551C83.7294 38.3873 83.4071 38.489 83.1187 38.7096C82.7794 38.9471 82.4741 39.0319 82.084 38.981C81.7108 38.9301 81.3376 38.9979 80.9983 39.2015C80.1162 39.7443 79.4716 39.5238 78.7932 38.4551C78.6235 38.2007 78.3182 37.9462 78.0807 37.8953L77.6736 37.7936L78.0637 37.59C78.7083 37.2677 78.6405 36.7758 77.8262 35.9276C77.4191 35.5036 76.9781 34.9947 76.8424 34.7911C76.7067 34.6045 76.5201 34.4349 76.4183 34.4349C76.3335 34.4349 76.113 34.1974 75.9603 33.926C75.7907 33.6376 75.5363 33.3662 75.3666 33.2984C75.197 33.2305 74.9595 33.0778 74.8408 32.9591C74.722 32.8573 74.5185 32.7895 74.3997 32.8404C74.247 32.8912 74.1453 32.7725 74.0944 32.5011C74.0265 32.1958 74.0774 32.0601 74.247 32.0601C74.4506 32.0601 74.4506 32.0261 74.2301 31.8056C73.9078 31.4664 73.8399 31.4833 73.7212 31.9244C73.6194 32.3145 73.6024 32.3145 73.365 31.9753C73.2123 31.7887 73.0257 31.3307 72.9409 30.9575C72.4659 29.0067 72.2285 28.5148 71.3973 27.8702C70.4474 27.1238 70.2099 26.581 70.159 24.9356C70.125 24.291 70.0063 23.6464 69.9045 23.5107C69.7858 23.358 69.6671 23.0527 69.6501 22.8152C69.6501 22.5777 69.5992 22.3912 69.5483 22.3912C69.4974 22.3912 69.1412 22.1028 68.7341 21.7466C67.9368 21.0341 67.4619 19.8467 67.9877 19.8467C68.1743 19.8467 68.1234 19.728 67.8011 19.4396C67.5636 19.2191 67.1565 18.5914 66.8682 18.0486C66.5967 17.4888 66.2066 16.7594 66.003 16.4032C65.8164 16.047 65.6468 15.6738 65.6468 15.5551C65.6468 15.4363 65.5111 15.1479 65.3584 14.9274C65.1888 14.69 65.0361 14.3677 65.0192 14.198C64.9853 14.0114 64.6969 13.5704 64.3746 13.1803C64.0523 12.8071 63.7809 12.3151 63.7809 12.1116C63.7809 11.8911 63.713 11.6875 63.6282 11.6197C63.5264 11.5688 63.4077 10.992 63.3398 10.3474C63.289 9.70284 63.1363 9.04127 63.0175 8.87164C62.5765 8.27794 60.5579 8.48149 59.8116 9.19394C59.608 9.38054 59.3196 9.48232 59.1161 9.43143C58.9295 9.39751 58.4375 9.2618 58.0135 9.17699C57.5894 9.0752 57.0975 8.92253 56.9109 8.83772C56.3002 8.56631 55.1637 8.34579 54.7396 8.4306C54.4173 8.49846 54.2816 8.4306 54.1968 8.15919C54.112 7.88779 53.9423 7.80298 53.5522 7.80298C52.6362 7.80298 51.788 7.48068 51.6863 7.12445C51.6354 6.9209 51.4488 6.7852 51.2622 6.7852C51.0586 6.7852 50.8551 6.70038 50.8042 6.61557C50.5497 6.20845 48.9383 6.58163 48.1749 7.22624C47.6491 7.68423 47.4964 8.44757 47.8187 8.97342C48.0901 9.41446 47.4116 10.3305 46.8009 10.3474C46.6652 10.3474 46.2411 10.1269 45.868 9.87247C45.1725 9.36357 44.1038 8.99039 43.4083 8.99039C42.8146 8.99039 42.2888 8.56631 42.1531 7.95564C42.0682 7.61638 41.8817 7.37891 41.5933 7.26016C41.3388 7.15839 40.9148 6.97179 40.6434 6.81912C40.338 6.66646 39.7613 6.56468 39.2524 6.58163C38.6926 6.5986 38.1328 6.47986 37.6748 6.27631C36.9963 5.93704 36.5383 5.41119 36.7588 5.19067C36.8097 5.13979 36.7419 5.0889 36.5892 5.0889C36.4365 5.0889 36.3008 5.15675 36.3008 5.25853C36.3008 5.54691 35.8089 5.44511 35.6223 5.10587C35.4866 4.83446 35.5545 4.69875 35.9616 4.34253C36.2499 4.10504 36.5892 3.95238 36.7249 4.00327C36.8606 4.07112 36.9793 4.02023 36.9793 3.90149C36.9793 3.79971 36.8945 3.76578 36.8097 3.81667C36.691 3.88452 36.674 3.69794 36.7419 3.2569C36.8267 2.68015 36.7928 2.54445 36.4874 2.39178C36.0633 2.1543 36.0294 1.78111 36.4026 1.40793C36.5383 1.25526 36.6231 1.03474 36.5722 0.899033C36.5213 0.763336 36.5553 0.712448 36.6401 0.763336C36.7419 0.814224 36.8097 0.797256 36.8097 0.712448C36.8097 0.390152 36.5722 0.356216 36.2669 0.627625C35.9616 0.899033 35.9446 0.899033 35.8598 0.559784C35.775 0.271408 35.3679 0.0169678 34.9438 0C34.8929 0 34.5706 0.152664 34.2313 0.322296L34.2313 0.322296ZM66.5967 55.0958C66.7325 55.2824 66.7494 55.452 66.6307 55.5877C66.5458 55.7065 66.5119 55.8592 66.5628 55.944C66.6646 56.1306 66.3084 56.9957 66.1218 56.9957C66.037 56.9957 65.9861 57.0805 65.9861 57.1823C65.9861 57.301 65.8504 57.4876 65.6977 57.6063C65.4093 57.8269 65.4093 57.8608 65.6977 58.0813C66.1218 58.4206 65.8673 58.5223 64.9683 58.3527C64.5103 58.2679 64.1201 58.2849 64.0014 58.3697C63.6791 58.6411 63.5943 58.2679 63.6961 57.0466C63.8657 55.2315 63.8827 55.1806 64.5782 54.9601C64.9344 54.8414 65.2906 54.6887 65.3754 54.6209C65.562 54.4343 66.3253 54.7226 66.5967 55.0958L66.5967 55.0958ZM60.7275 61.6096C60.7275 61.8641 60.8123 62.1185 60.9141 62.1694C61.0159 62.2372 61.0498 62.4069 60.999 62.5426C60.9481 62.6783 60.982 62.9497 61.0838 63.1532C61.2364 63.4247 61.2364 63.5264 61.0838 63.5773C60.7445 63.6961 60.8802 64.2898 61.3043 64.4424C61.7114 64.6121 61.9149 64.9513 61.9149 65.4941C61.9149 65.6807 62.1015 66.2066 62.339 66.6646C62.8649 67.6993 62.8649 67.7163 62.339 67.4788C62.0676 67.3601 61.9319 67.1904 61.9998 67.0378C62.0507 66.919 61.9659 66.6476 61.8301 66.4441C61.6944 66.2405 61.5757 65.9691 61.5757 65.8504C61.5757 65.7147 61.3552 65.3415 61.0668 65.0192C60.7954 64.7139 60.541 64.3237 60.524 64.1541C60.524 64.0014 60.4901 63.6282 60.4561 63.3568C60.4222 63.0684 60.3713 62.2372 60.3374 61.4909C60.2865 60.2695 60.3035 60.1847 60.4901 60.6427C60.6088 60.9141 60.7106 61.3552 60.7275 61.6096L60.7275 61.6096ZM66.8342 69.3787C66.936 69.5653 67.0378 70.0741 67.0717 70.4813C67.0887 70.9053 67.2074 71.3464 67.3092 71.4482C67.5636 71.7026 67.5806 72.3811 67.3431 72.5168C67.1056 72.6695 67.2413 75.0273 67.4958 75.1122C67.5976 75.1461 67.6824 75.2479 67.6824 75.3327C67.6824 75.4345 67.6145 75.4514 67.5128 75.4005C67.4279 75.3496 67.3431 75.3836 67.3431 75.4684C67.3431 75.5702 67.2583 75.655 67.1565 75.655C67.0547 75.655 67.0208 75.5023 67.0887 75.3157C67.1565 75.1122 67.1226 74.8747 67.0378 74.7559C66.8682 74.5354 66.6137 73.2293 66.6476 72.6864C66.7664 70.6679 66.7325 70.0911 66.5458 69.7179C66.4271 69.4805 66.3253 69.243 66.3253 69.1582C66.3253 68.9037 66.6646 69.0564 66.8342 69.3787L66.8342 69.3787Z" id="path2330" fill="#D5E2E9" fill-rule="evenodd" stroke="none" />
    <path d="M85.6633 72.8052C85.5276 73.0257 85.4088 73.4498 85.3749 73.7721C85.324 74.4845 85.2222 74.5863 84.8151 74.3319C84.5437 74.1622 84.4759 74.1622 84.4759 74.3658C84.4759 74.5015 84.5776 74.6542 84.6964 74.7051C84.7982 74.756 84.7303 74.756 84.5268 74.7051C84.1366 74.6202 84.0688 74.722 84.1196 75.3497C84.1366 75.5023 84.0688 75.672 83.967 75.7398C83.8822 75.7907 83.7973 75.9942 83.7973 76.1639C83.7973 76.3844 83.7125 76.4523 83.5429 76.4014C83.3902 76.3335 83.2885 76.4014 83.2885 76.554C83.2885 76.8933 82.0841 77.7414 81.1681 78.0468C80.7949 78.1655 80.4217 78.3351 80.3369 78.403C80.2351 78.4709 79.9976 78.5387 79.7771 78.5387C79.4718 78.5387 79.387 78.6235 79.387 78.9967C79.387 79.2681 79.2343 79.6922 79.0647 79.9636C78.7254 80.4725 78.7254 80.8796 79.0647 82.8303C79.2682 83.9669 79.2682 84.0008 78.7763 84.9507C78.5049 85.4766 78.2165 85.9685 78.1487 86.0194C77.555 86.4435 77.3344 87.9871 77.7585 88.7844C77.8942 89.0558 77.9621 89.5307 77.9112 89.9718C77.8603 90.4128 77.8942 90.7521 78.013 90.8199C78.1147 90.8878 78.1996 91.0744 78.1996 91.244C78.1996 91.6172 78.7084 92.1091 79.0986 92.1091C79.2513 92.1091 79.387 92.177 79.387 92.2787C79.387 92.5332 80.269 92.4653 80.6422 92.1939C80.8288 92.0582 81.185 91.9395 81.4395 91.9395C81.9484 91.9395 82.6099 91.261 82.6099 90.769C82.6099 90.6164 82.7117 90.3449 82.8474 90.1584C82.9662 89.9718 83.1697 89.395 83.2885 88.8861C83.4242 88.3772 83.6617 87.6818 83.8143 87.3425C83.9839 87.0032 84.2214 86.3586 84.3232 85.9006C84.4419 85.4426 84.8151 84.3401 85.1714 83.424C85.5276 82.525 85.8668 81.4903 85.9177 81.134C86.1213 79.9127 86.1721 79.7261 86.3927 79.777C86.5963 79.8109 86.6132 79.6583 86.4096 78.3691L86.2909 77.6057L86.6302 78.0128L86.9694 78.4369L87.2578 77.8941C87.4614 77.487 87.4953 77.2665 87.3596 77.029C87.2747 76.8424 87.1899 76.3505 87.1899 75.9434C87.1899 75.5363 87.1051 74.9425 87.0034 74.6202C86.7659 73.8739 86.1043 72.449 86.0025 72.432C85.9517 72.432 85.799 72.6017 85.6633 72.8052L85.6633 72.8052Z" id="path2332" fill="#D5E2E9" stroke="none" />
  </g>
</svg>