<?xml version="1.0" encoding="utf-8"?>
<svg width="157.38892px" height="127.79007px" viewBox="0 0 157.38892 127.79007" version="1.1" xmlns:xlink="http://www.w3.org/1999/xlink" xmlns="http://www.w3.org/2000/svg">
  <g id="asia">
    <path d="M47.9204 0.125082C46.7669 0.413458 46.6821 0.447378 47.0722 0.600042C47.3945 0.735754 47.3945 0.752707 47.0383 0.752707C46.4785 0.769674 46.3937 1.09197 46.8347 1.54998C47.2588 1.991 47.5981 2.07583 47.7168 1.73656C47.7847 1.56693 47.8186 1.56693 47.8186 1.73656C47.8356 1.85531 47.9543 1.95708 48.09 1.95708C48.2257 1.95708 48.3445 1.85531 48.3445 1.73656C48.3445 1.60087 48.3954 1.60087 48.4971 1.7705C48.5819 1.90619 48.7685 1.95708 48.9212 1.90619C49.0739 1.83834 49.5319 1.90619 49.922 2.04191C50.7023 2.29635 53.0941 2.63561 54.2306 2.63561C54.994 2.63561 55.3841 2.33027 54.8074 2.1776C54.6038 2.12671 54.4511 1.95708 54.4511 1.78745C54.4511 1.3973 54.044 1.2616 52.7209 1.17678C51.3808 1.09197 50.9907 0.973227 51.2112 0.701818C51.3469 0.549154 51.1264 0.447378 50.3291 0.277746C48.6667 -0.0615177 48.6328 -0.0615177 47.9204 0.125082L47.9204 0.125082Z" id="path2335" fill="#D5E2E9" stroke="none" />
    <path d="M58.9295 3.80605C58.4715 4.0096 58.2849 4.46761 58.5393 4.77293C58.692 4.97649 58.5902 5.01042 57.9626 5.01042C57.5385 5.01042 57.1653 5.07828 57.1314 5.16309C57.1144 5.24789 56.7921 5.36664 56.4359 5.41753C55.9609 5.48538 55.8252 5.46841 55.9101 5.33272C56.0797 5.04434 52.7888 5.28183 52.5005 5.58716C52.3817 5.7059 51.7541 5.85857 51.1265 5.90945C50.4988 5.97731 49.8034 6.14694 49.5829 6.29961C49.3284 6.45227 49.0061 6.52013 48.7517 6.46924C48.5142 6.40138 48.3445 6.4353 48.3445 6.53709C48.3445 6.6219 48.2258 6.70671 48.0901 6.70671C47.9544 6.70671 47.8357 6.84242 47.8187 6.99509C47.8187 7.18169 47.7678 7.21561 47.7169 7.07991C47.5982 6.77457 47.0384 6.82545 46.9196 7.14775C46.8518 7.30043 46.8688 7.48701 46.9196 7.5379C46.9875 7.58879 47.0723 7.5379 47.1063 7.43613C47.1571 7.28346 47.2759 7.28346 47.5812 7.48701C47.8017 7.62273 48.1071 7.7245 48.2767 7.69057C48.4294 7.65665 48.599 7.74145 48.6329 7.84325C48.7347 8.11465 47.3946 8.14857 47.2419 7.89413C47.1911 7.79234 47.0045 7.7245 46.8518 7.7245C46.6143 7.7245 46.6143 7.75842 46.8009 7.87717C47.1571 8.09769 46.6313 8.21643 44.9689 8.26732L43.544 8.30124L44.0359 8.69139C44.3074 8.91191 44.6975 9.25117 44.8841 9.43776C45.1046 9.65828 45.5626 9.82791 46.0376 9.8788C46.4617 9.92969 46.8179 10.0315 46.8179 10.1163C46.8179 10.1841 46.9536 10.2859 47.1232 10.3198C47.2759 10.3707 47.1571 10.4046 46.8518 10.4216C46.5295 10.4216 46.0715 10.3368 45.834 10.2011C45.4269 9.98058 44.3752 9.74309 42.645 9.47168C42.3057 9.42079 42.0513 9.48865 41.9156 9.65828C41.712 9.89577 41.7459 9.92969 42.0852 9.94666C42.5262 9.96361 42.4245 10.0145 41.6611 10.1841C41.1862 10.2859 41.1862 10.3029 41.5085 10.5234C41.6781 10.6421 42.1022 10.8287 42.4245 10.9305C42.9843 11.1171 42.9843 11.1171 42.187 11.0492C41.3558 10.9814 40.8978 10.6421 40.8808 10.0824C40.8808 9.77702 40.1854 9.08154 39.897 9.08154C39.7782 9.08154 39.5408 8.97977 39.3542 8.87798C39.1167 8.72531 38.981 8.70836 38.8283 8.86102C38.6926 8.99672 38.7944 9.0985 39.1845 9.23421C39.4899 9.33598 39.8122 9.3699 39.9139 9.30206C39.9987 9.25117 40.0327 9.2851 39.9648 9.38687C39.9139 9.48865 39.9309 9.60739 40.0327 9.67525C40.338 9.86183 40.2023 10.0654 39.6934 10.1841C39.422 10.252 39.1845 10.4046 39.1845 10.5234C39.1845 10.6421 39.0997 10.7778 38.981 10.8118C38.8792 10.8457 39.2184 11.1001 39.7613 11.3715C40.6773 11.8295 40.7112 11.8804 40.6094 12.4063C40.5246 12.8473 40.5755 13 40.8639 13.1866C41.0674 13.3053 41.2201 13.5089 41.2201 13.6446C41.2201 13.8312 41.4745 13.8481 42.4584 13.7803C43.5101 13.6955 43.5949 13.7124 43.0351 13.8651C42.17 14.1026 42.0682 14.4418 42.6789 14.9338C43.0691 15.2561 43.1369 15.3748 42.9673 15.5444C42.8485 15.6632 42.7468 15.9346 42.7468 16.1382C42.7468 16.4265 42.6111 16.5453 42.2379 16.6301C41.9325 16.6979 41.729 16.8506 41.729 17.0033C41.729 17.2068 41.6102 17.2407 41.1862 17.1559C40.8808 17.105 40.5585 16.9693 40.4568 16.8676C40.338 16.7488 40.3719 16.7319 40.5585 16.7997C40.7451 16.8676 40.9148 16.7149 41.1353 16.206C41.3049 15.8328 41.4915 15.5275 41.5594 15.5275C41.6442 15.5275 41.6781 15.273 41.6611 14.9677C41.6442 14.4927 41.5424 14.374 40.9317 14.1026C40.5246 13.933 40.2023 13.6955 40.2023 13.5937C40.2023 13.4919 40.0327 13.1357 39.8291 12.8134C39.6256 12.4911 39.439 12.084 39.4051 11.9144C39.3372 11.4903 38.964 11.151 38.4212 11.0153C38.0989 10.9305 38.031 10.8457 38.1498 10.7269C38.4042 10.4725 38.3703 9.91272 38.0989 9.53954C37.9293 9.31902 37.5052 9.18332 36.691 9.0985C35.9955 9.01369 35.775 8.94583 36.1312 8.92886C36.691 8.89494 36.7079 8.89494 36.4026 8.65746C35.9785 8.33516 34.7063 8.30124 34.8081 8.60657C34.859 8.72531 34.7911 8.92886 34.6554 9.04761C34.5367 9.16635 34.4349 9.57347 34.4349 9.92969C34.4349 10.5064 34.367 10.6421 33.926 10.8627C33.2984 11.185 33.2644 11.5751 33.8412 11.7956C34.1635 11.9144 34.2653 12.084 34.2653 12.4572C34.2653 13 34.6385 13.4071 34.9947 13.2714C35.1304 13.2205 35.4527 13.3392 35.7241 13.5089C35.9955 13.6955 36.3857 13.916 36.6062 14.0008C36.9793 14.1535 37.0981 14.4249 36.8606 14.5606C36.7758 14.6115 36.199 14.4249 35.5375 14.1535C33.8242 13.458 33.5359 13.4919 34.3162 14.3061C34.6554 14.6624 34.9438 15.0186 34.9438 15.1034C34.9099 15.6971 33.0609 17.0033 31.3476 17.6479C30.9066 17.8175 30.4655 18.038 30.3638 18.1567C30.245 18.2924 30.4825 18.9879 31.1441 20.4637C32.111 22.601 32.552 24.5009 32.569 26.4177C32.569 27.4355 32.8065 28.0462 33.4341 28.6229C34.3162 29.4371 33.909 30.7942 32.7725 30.7942C32.5011 30.7942 32.1449 30.9468 31.9753 31.1334C31.6869 31.4388 31.6869 31.4727 32.077 31.9646C32.2975 32.236 32.6707 32.7449 32.9082 33.0672C33.485 33.8814 34.0447 33.8814 34.7572 33.0842C35.4188 32.3208 35.9446 32.3039 36.3687 33.0163C36.6401 33.4574 36.6401 33.644 36.4705 34.3225C36.3008 35.0519 36.3008 35.1367 36.6231 35.3742C37.7427 36.2054 37.7427 36.2054 37.5222 36.358C37.2338 36.5616 37.59 36.8669 38.4551 37.1553C39.5916 37.5455 39.3203 38.5293 38.1159 38.3766C37.6579 38.3088 37.4373 38.3597 37.3695 38.5293C37.2508 38.8346 36.8436 38.8346 36.5383 38.5123C36.3857 38.3766 36.1312 38.2579 35.9446 38.2579C35.775 38.2579 35.6223 38.1731 35.6223 38.0713C35.6223 37.9356 35.3679 37.9017 34.8081 37.9865C34.1974 38.0713 33.7564 38.0034 32.993 37.7151C31.8904 37.3249 29.804 37.2232 29.4647 37.5624C29.3629 37.6642 28.888 37.749 28.43 37.749C27.955 37.749 27.2765 37.8338 26.9203 37.9356C26.2927 38.1052 26.2927 38.1052 26.3944 38.8177C26.5301 39.7167 26.6998 40.039 27.4292 40.8532C27.8872 41.3621 27.989 41.6166 27.955 42.0915C27.9211 42.5835 28.0059 42.7701 28.3791 43.0415C28.6335 43.2281 28.8371 43.4825 28.8371 43.6012C28.8371 43.9066 29.4138 44.0762 30.0245 43.9405C30.4147 43.8557 30.5673 43.9066 30.7878 44.2628C31.0593 44.653 31.2798 46.2814 31.0423 46.1457C30.9914 46.1118 30.5504 46.0439 30.0754 45.993C29.2951 45.9252 29.1933 45.9591 29.0237 46.3492C28.9219 46.5698 28.871 46.8412 28.9219 46.926C28.9898 47.0108 28.7862 47.0787 28.4978 47.0787C28.0229 47.0787 27.989 47.1126 28.1586 47.4179C28.2604 47.6045 28.447 47.7572 28.5827 47.7572C28.7184 47.7572 28.9558 47.9777 29.1255 48.2661C29.2781 48.5375 29.4817 48.775 29.5496 48.775C29.6174 48.775 29.6852 48.9276 29.6852 49.1312C29.6852 49.3517 29.7531 49.4365 29.8888 49.3517C29.9906 49.2838 30.1602 49.3517 30.262 49.4874C30.3807 49.6401 30.6521 49.7927 30.8727 49.8267C31.4494 49.8945 31.5342 50.0641 31.4324 50.8275C31.3816 51.2007 31.3985 51.489 31.5003 51.489C31.7717 51.489 32.2636 52.5238 32.1619 52.897C32.0431 53.3889 32.4333 54.1353 32.7556 54.0674C32.9591 54.0335 32.993 54.1522 32.9421 54.5763C32.8743 55.0004 32.9082 55.0852 33.1288 55.0004C33.5528 54.8477 33.8751 55.4075 34.0617 56.5779C34.1635 57.1886 34.2822 57.7993 34.3331 57.935C34.4179 58.1555 34.1974 58.2573 33.2814 58.4948C31.8904 58.817 31.2458 58.6983 30.279 57.935C29.9227 57.6466 29.4647 57.4261 29.2612 57.4261C28.7523 57.4261 28.3282 56.9172 28.2095 56.1539C28.1416 55.7128 28.1755 55.4753 28.3452 55.3905C28.4809 55.2887 28.5657 54.9156 28.5827 54.4236C28.5827 53.6433 28.5996 53.6094 29.0576 53.6094C29.3121 53.6264 29.5156 53.5416 29.5156 53.4398C29.5156 53.321 29.2781 53.2871 28.9558 53.321C28.1416 53.4058 24.6981 51.6417 23.2393 50.3864L22.1367 49.4196L21.2207 49.5213C20.4065 49.6231 20.2199 49.5722 19.5244 49.1312C19.1003 48.8598 18.4727 48.5884 18.1504 48.5205C17.8281 48.4527 17.3023 48.2661 16.9969 48.0795C16.5728 47.842 16.3523 47.8081 15.9961 47.9438L15.5551 48.1134L15.9452 48.5205C16.1488 48.741 16.7595 49.1312 17.2853 49.3856C18.0147 49.7418 18.337 50.0133 18.5575 50.4713C19.1343 51.6587 18.3879 52.1676 16.03 52.2524C15.131 52.2863 14.4185 52.2354 14.4185 52.1506C14.4185 52.0658 14.198 51.9979 13.9266 51.9979C13.6382 51.9979 13.3669 51.9131 13.3159 51.8283C13.2481 51.7265 13.0615 51.6926 12.8919 51.7435C12.6714 51.8113 12.5187 51.7265 12.383 51.489C12.2473 51.2346 12.0946 51.1667 11.8402 51.2516C11.5857 51.3194 11.3991 51.2516 11.2126 51.031C10.9581 50.7257 10.8224 50.7087 9.55017 50.8105C8.19315 50.9462 7.17535 51.3364 6.68344 51.9301C6.54773 52.0997 6.20847 52.1167 5.27548 52.0149C4.02023 51.8961 3.51135 52.0488 3.93542 52.4729C4.34253 52.88 3.69794 53.1175 2.12038 53.1514C1.2892 53.1684 0.576752 53.2532 0.542816 53.338C0.508896 53.4398 0.373184 53.4567 0.237488 53.4058C0.101776 53.355 0 53.4058 0 53.5076C0 53.6094 0.118744 53.6942 0.254456 53.6942C0.40712 53.6942 0.508896 53.8469 0.508896 54.1183C0.508896 54.5085 0.644592 54.6102 1.13652 54.5593C1.2383 54.5424 1.30615 54.6611 1.27223 54.8307C1.25526 55.0004 1.27223 55.2039 1.34009 55.3057C1.39098 55.3905 1.44186 55.628 1.47578 55.8146C1.49275 56.0012 1.45882 56.0521 1.4249 55.9333C1.27223 55.5941 0.899048 55.7128 0.932968 56.103C0.949936 56.3574 1.13652 56.544 1.54364 56.6797C1.86594 56.7985 2.0186 56.9002 1.89986 56.9002C1.73022 56.9172 1.73022 56.985 1.89986 57.2904C2.0186 57.5109 2.18823 57.7314 2.27304 57.7823C2.3409 57.8502 2.27304 57.9859 2.10341 58.0876C1.76416 58.2742 1.83202 58.3082 2.62927 58.3251C2.90068 58.3251 2.91763 58.3421 2.68016 58.393C2.51053 58.4439 2.37482 58.5456 2.37482 58.6474C2.37482 58.7322 2.49356 58.7831 2.62927 58.7153C2.76497 58.6644 2.88371 58.6983 2.88371 58.7831C2.88371 58.8849 3.00246 58.9528 3.13815 58.9528C3.27386 58.9528 3.39261 58.8679 3.39261 58.7662C3.39261 58.4948 4.18988 58.7322 4.58002 59.1224C4.83447 59.3768 5.10587 59.4616 5.59781 59.4277C6.25934 59.3768 6.36111 59.2581 6.29327 58.6474C6.22543 58.1555 7.59943 58.5965 8.37973 59.3259C8.88861 59.784 10.2965 59.6143 10.7376 59.0206C11.0938 58.5626 11.3822 58.5117 11.8741 58.817C12.1285 58.9867 12.2643 58.9697 12.5526 58.6983C12.9767 58.3251 13.2142 58.4778 12.824 58.8849C12.6205 59.0715 12.5865 59.2242 12.7053 59.3429C12.8071 59.4447 12.8071 59.6482 12.7223 59.8857C12.6375 60.0893 12.6375 60.3268 12.7053 60.4116C12.9088 60.6321 13.0615 61.7686 12.9088 61.9382C12.6883 62.1927 12.0777 64.0586 11.8741 65.0764C11.6706 66.1281 11.2974 66.6031 10.6697 66.6031C10.4492 66.62 10.0082 66.654 9.71982 66.6879C9.22787 66.7557 9.16003 66.8405 9.16003 67.2816C9.16003 68.0958 9.4993 69.2323 9.8555 69.6225C10.0251 69.8091 10.1778 70.0805 10.1778 70.1992C10.1778 70.4537 11.3991 71.8446 11.6197 71.8446C11.6706 71.8446 11.8402 71.7259 11.9759 71.5902C12.1285 71.4545 12.383 71.3357 12.5696 71.3357C12.7392 71.3357 12.8919 71.4545 12.8919 71.5902C12.8919 71.7259 12.9767 71.8446 13.0615 71.8446C13.1633 71.8446 13.2311 71.9295 13.2311 72.0143C13.2311 72.116 13.3669 72.3366 13.5365 72.5232C13.6891 72.6928 13.9775 73.1338 14.1641 73.4901C14.3507 73.8463 14.6391 74.2873 14.8087 74.4739C15.2158 74.9149 15.6569 75.7461 15.5381 75.8649C15.3854 76.0175 15.9961 76.9335 16.2336 76.9335C16.3693 76.9335 16.505 77.0523 16.5559 77.188C16.6237 77.3237 16.7425 77.3915 16.8443 77.3237C16.9291 77.2728 16.963 77.3067 16.9121 77.3915C16.8443 77.4933 16.946 77.7647 17.1326 78.0022C17.3192 78.2397 17.4719 78.545 17.4719 78.6807C17.4719 78.8334 17.5567 79.003 17.6585 79.0709C17.7772 79.1387 17.8112 79.4271 17.7433 79.8172C17.6754 80.2922 17.7094 80.5127 17.9129 80.6824C18.0486 80.8011 18.1335 81.0386 18.0995 81.2082C18.0317 81.4118 18.1504 81.6153 18.4048 81.785C18.6423 81.9376 18.8629 82.1751 18.9138 82.3278C18.9477 82.4974 19.2191 82.7688 19.4905 82.9554C19.7619 83.125 19.9655 83.3286 19.9315 83.3964C19.8806 83.4473 20.0503 83.583 20.2708 83.6848C20.5931 83.8375 20.6949 84.0071 20.6949 84.4142C20.6949 84.7365 20.8136 85.0418 21.0002 85.1776C21.1529 85.2963 21.2886 85.4659 21.2886 85.5507C21.2886 85.6356 21.5769 85.9918 21.9332 86.331C22.2724 86.6872 22.5608 87.0774 22.5608 87.2131C22.5608 87.3488 22.6286 87.4506 22.7135 87.4506C22.7983 87.4506 22.9509 87.6881 23.0527 87.9934C23.2393 88.5193 23.2393 88.5193 22.9001 88.2139C22.7135 88.0443 22.6117 87.8407 22.6626 87.7729C22.7135 87.6881 22.6286 87.6711 22.476 87.722C22.3063 87.7898 22.2215 87.7559 22.2555 87.6033C22.2894 87.4845 22.1707 87.3488 22.018 87.3149C21.7975 87.281 21.7466 87.3318 21.8144 87.5693C21.8992 87.8577 21.8992 87.8577 21.6617 87.5693C21.5261 87.3997 21.3564 87.3318 21.3225 87.4167C21.2038 87.5863 22.1197 89.0112 22.2555 88.8755C22.4081 88.7398 23.1206 89.5031 23.1545 89.8085C23.1545 89.9611 23.2223 90.1647 23.2733 90.2495C23.4089 90.487 23.9857 92.4038 24.0027 92.7091C24.0535 93.5233 24.291 93.8626 24.8847 93.9814C25.224 94.0322 25.5632 94.0153 25.665 93.9135C25.7498 93.8287 25.9195 93.7947 26.0382 93.8287C26.1569 93.8796 26.5132 93.676 26.8185 93.4046C27.1917 93.0484 27.5649 92.8788 27.9211 92.8788C28.4978 92.8788 29.6004 92.4716 29.7701 92.2002C29.821 92.1154 30.1263 92.0306 30.4486 92.0306C30.8557 92.0306 31.1101 91.9119 31.3646 91.5896C31.5851 91.3012 32.1958 90.9789 33.1118 90.6566C34.7572 90.0629 35.5544 89.6218 35.4866 89.3165C35.3848 88.8585 35.6562 88.5023 36.3517 88.2139C37.6748 87.6711 37.8445 87.6202 38.4042 87.6202C39.0319 87.6202 39.2863 87.3997 39.3881 86.7721C39.422 86.4498 39.5577 86.331 39.9479 86.2971C40.5755 86.2123 40.8808 85.9748 40.8808 85.5677C40.8808 85.1945 41.4915 84.7365 42.0004 84.7365C42.3227 84.7365 42.3566 84.6517 42.3397 83.7018C42.3227 82.5992 42.5093 82.3108 42.9503 82.7688C43.1708 82.9893 43.2387 82.9724 43.4592 82.7179C43.7137 82.4126 43.6797 81.9546 43.4083 82.1242C43.1199 82.2938 43.2556 81.8698 43.6627 81.3948C44.1547 80.8011 44.6127 79.919 44.6127 79.5628C44.6127 79.4101 44.46 79.3083 44.2565 79.3083C44.0529 79.3083 43.8663 79.1727 43.8154 78.9691C43.7646 78.7825 43.6627 78.6298 43.5779 78.6298C43.4931 78.6298 43.4253 78.545 43.4253 78.4432C43.4253 78.087 42.8825 77.7308 42.1022 77.5951C40.5755 77.3067 39.8291 76.3568 39.8291 74.7114C39.8291 73.6597 39.6256 73.4561 39.2693 74.1686C38.9131 74.8471 36.9115 76.8826 36.674 76.7978C36.5553 76.7639 36.4705 76.7978 36.4705 76.8826C36.4705 76.9675 36.199 77.0014 35.8767 76.9675C35.5544 76.9335 35.2831 76.8317 35.2831 76.7469C35.2831 76.6621 35.2152 76.5943 35.1134 76.5943C35.0286 76.5943 34.9438 76.6961 34.9438 76.8317C34.9438 77.2219 34.6045 77.3237 34.2822 77.0353C34.1126 76.8826 33.8921 76.7639 33.7733 76.7639C33.6376 76.7639 33.6037 76.6452 33.7055 76.3738C33.8921 75.8309 33.7733 74.3382 33.5359 74.1855C33.1288 73.9311 32.9252 74.0668 32.7216 74.7283L32.5181 75.4069L32.1958 74.9489C31.8565 74.4061 31.8056 74.2194 32.0601 74.2194C32.1619 74.2194 32.2297 74.3382 32.2297 74.4909C32.2297 74.6266 32.3145 74.6944 32.3993 74.6435C32.6877 74.4569 32.5859 74.0159 32.2297 73.9311C32.0431 73.8802 31.8735 73.7784 31.8735 73.6936C31.8565 73.6088 31.8396 73.4731 31.8226 73.3713C31.8226 73.2865 31.653 73.0999 31.4664 72.9642C31.2798 72.8285 31.1271 72.6249 31.1271 72.4892C31.1101 72.3705 31.0253 72.2857 30.9066 72.3026C30.7878 72.3366 30.703 72.2857 30.703 72.2009C30.703 72.116 30.5504 71.9803 30.3638 71.9295C30.1772 71.8786 30.0245 71.7089 30.0245 71.5732C30.0245 71.4375 29.9567 71.3357 29.8888 71.3357C29.6513 71.3357 28.9898 69.7073 29.1085 69.368C29.1764 69.1645 29.1594 69.1136 29.0576 69.2493C28.9558 69.385 28.8201 69.402 28.6675 69.3002C28.447 69.1645 28.447 69.1306 28.6675 69.1306C28.8201 69.1306 29.0576 68.9949 29.2103 68.8252C29.7701 68.2485 29.9567 68.1467 30.262 68.3163C30.4147 68.4011 30.6691 68.4351 30.8387 68.3842C31.0423 68.3163 31.2458 68.469 31.5172 68.8422C31.7208 69.1475 31.8904 69.4868 31.8904 69.5886C31.8904 69.6903 31.9583 69.8091 32.0431 69.843C32.1279 69.86 32.4163 70.2671 32.6707 70.7251C33.027 71.3188 33.3323 71.5902 33.7564 71.7429C34.0787 71.8616 34.5706 72.15 34.842 72.4044C35.1134 72.6589 35.4527 72.8624 35.6053 72.8624C35.8259 72.8624 35.8259 72.8963 35.6562 73.0151C35.4866 73.1169 35.6053 73.1847 36.0294 73.2695C36.3687 73.3374 36.6062 73.4561 36.5553 73.5579C36.4874 73.6427 36.5383 73.7106 36.6231 73.7106C36.7249 73.7106 36.8097 73.6257 36.8097 73.5409C36.8097 73.4222 36.9285 73.4222 37.149 73.5409C37.3356 73.6427 37.5731 73.6766 37.6748 73.6257C37.7596 73.5579 38.1159 73.4731 38.4551 73.4392C39.1336 73.3543 39.5747 73.0829 39.422 72.8455C39.2863 72.608 39.9987 72.6758 40.1514 72.8963C40.2193 73.0151 40.3719 73.4222 40.4568 73.7954C40.6773 74.6266 41.3219 74.9828 42.8994 75.1524C44.1717 75.2881 44.6975 75.3729 45.2912 75.5086C46.0206 75.6952 47.4964 75.7292 47.4964 75.5765C47.4964 75.5086 47.8017 75.4747 48.1749 75.5256C48.582 75.5935 48.8535 75.5595 48.8535 75.4408C48.8535 75.339 49.074 75.322 49.4641 75.4069C49.8034 75.4917 50.5497 75.4747 51.1774 75.3729C52.4326 75.1863 52.7549 75.2542 52.7549 75.7461C52.7549 75.9666 52.8737 76.0854 53.0772 76.0854C53.2808 76.0854 53.4334 76.255 53.5183 76.5434C53.654 77.1201 54.078 77.6121 54.4173 77.6121C54.553 77.6121 54.8923 77.8326 55.1467 78.1209C55.8422 78.8334 56.5377 79.1557 57.1992 79.0369C57.7251 78.9521 57.7421 78.9521 57.4367 79.2066C57.0975 79.478 56.826 79.5458 56.2832 79.4949C56.1136 79.478 55.9779 79.5458 55.9779 79.6646C55.9779 79.9869 58.3188 82.1921 58.6411 82.1921C59.5232 82.1581 60.7954 81.0046 60.4052 80.6145C60.2356 80.4449 60.3544 79.8172 60.5579 79.8172C60.6258 79.8172 60.6427 80.0038 60.5918 80.2413C60.5579 80.4958 60.5918 80.6654 60.7106 80.6654C60.8293 80.6654 60.8633 80.7502 60.8123 80.835C60.7445 80.9368 60.8293 81.2421 60.965 81.5475C61.1516 81.9037 61.2025 82.2769 61.1346 82.667C61.0668 82.9893 61.1007 83.5152 61.2025 83.8544C61.6436 85.3981 61.9659 86.5855 62.1694 87.4845C62.2881 88.0104 62.6783 88.9942 63.0175 89.6897C63.3738 90.3682 63.7979 91.1994 63.9505 91.5217C64.1201 91.844 64.3746 92.5565 64.5103 93.1162C64.663 93.659 65.0361 94.4902 65.3584 94.9822C65.9861 95.9151 66.8342 97.9168 66.8342 98.4257C66.8342 98.8667 67.7502 100.275 68.1913 100.512C68.6832 100.767 69.2939 100.376 69.4296 99.6979C69.5483 99.1551 70.142 98.8837 70.7697 99.0872C71.0241 99.1551 71.0919 99.1211 71.041 98.9685C70.9901 98.8328 70.8545 98.731 70.7188 98.731C70.4473 98.731 70.4473 98.5953 70.6339 97.9168C70.7357 97.5775 70.8884 97.4588 71.1937 97.4588C71.5669 97.4588 71.6008 97.4079 71.4991 96.9668C71.3294 96.1357 71.3464 94.7786 71.5499 94.5411C71.8214 94.2188 71.8383 92.8279 71.5839 91.5217C71.2616 89.7067 71.3464 89.2148 72.0249 89.3844C72.3472 89.4692 72.449 89.4183 72.5338 89.0621C72.5847 88.8246 72.7373 88.638 72.873 88.638C73.4498 88.638 73.9587 88.2309 73.9587 87.7559C73.9587 87.5015 74.0265 87.281 74.1114 87.281C74.3828 87.281 76.0791 85.5677 76.6219 84.7365C76.9102 84.2955 77.4361 83.8036 77.8093 83.6339C78.1655 83.4473 78.6235 83.125 78.844 82.9215C79.2342 82.5652 79.2681 82.3617 79.1833 81.5305C79.1493 81.31 79.2511 81.0725 79.3868 81.0046C79.5225 80.9368 79.8109 80.8011 80.0314 80.6824C80.3368 80.5297 80.4385 80.5297 80.5064 80.7332C80.6082 80.9877 81.2528 80.9538 82.1688 80.6654C82.4402 80.5636 82.8643 80.4958 83.1017 80.4958C83.6954 80.4788 84.3909 79.936 84.2552 79.5967C84.2043 79.4441 84.2213 79.2744 84.2891 79.2235C84.374 79.1896 84.4757 79.3083 84.5266 79.4949C84.5775 79.6985 84.6963 79.8003 84.7811 79.7494C84.9677 79.6306 85.1543 80.0208 85.1543 80.5127C85.1543 80.9198 85.5274 81.5475 86.2908 82.4126C86.5961 82.7518 86.8506 83.125 86.8506 83.2268C86.8506 83.3286 86.9863 83.3795 87.1559 83.3456C87.4951 83.2438 87.9362 83.6339 87.8174 83.9392C87.7835 84.058 87.8174 84.2785 87.9023 84.4312C88.0041 84.6517 87.9871 84.7365 87.8344 84.7365C87.6818 84.7365 87.6818 84.7874 87.8344 84.9401C88.0041 85.1097 88.0889 85.1097 88.1737 84.957C88.3772 84.6517 88.6656 84.9231 89.0388 85.7713C89.3271 86.3989 89.3611 86.7551 89.2932 87.8238L89.1915 89.096L89.6664 89.2317C90.6163 89.4862 90.9217 89.4692 91.1591 89.113C91.2949 88.9264 91.6681 88.5871 92.0073 88.3666C92.3975 88.0952 92.618 87.8068 92.618 87.5693C92.6349 87.0435 93.7545 89.4013 93.9072 90.2495C93.9581 90.6227 94.1277 91.1316 94.2464 91.386C94.3821 91.6405 94.4839 92.0306 94.4839 92.285C94.4839 92.5395 94.5857 92.7091 94.7214 92.7091C94.8571 92.7091 95.0437 92.9466 95.1455 93.235C95.3999 93.9474 95.383 94.0662 95.0776 93.9644C94.891 93.8796 94.8571 93.9305 94.925 94.134C94.9758 94.2867 95.0946 94.4054 95.1794 94.4054C95.2472 94.4054 95.2303 94.6429 95.1285 94.9313C94.9928 95.3214 94.908 95.3893 94.8062 95.2196C94.7214 95.1009 94.6535 95.067 94.6535 95.1688C94.6535 95.4911 94.925 95.7455 95.2472 95.7116C95.6204 95.6776 95.807 96.2035 95.5186 96.4919C95.3999 96.6106 95.2642 96.5937 95.0776 96.441C94.925 96.3053 94.8232 96.3053 94.8232 96.4071C94.8232 96.5088 94.9589 96.6615 95.1115 96.7633C95.4338 96.9329 95.5186 98.0864 95.2812 99.0703C95.1115 99.7827 95.3321 101.258 95.5526 101.038C95.8918 100.699 96.3498 100.817 96.3498 101.225C96.3498 101.547 96.3838 101.564 96.5195 101.36C96.6382 101.157 96.6891 101.157 96.6891 101.343C96.6891 101.462 96.9266 101.852 97.198 102.208C97.656 102.785 97.6899 102.887 97.4524 103.023C97.198 103.158 97.198 103.192 97.4355 103.379C97.6729 103.565 97.7069 103.565 97.7069 103.294C97.7069 103.006 97.7238 103.006 97.9613 103.328C98.097 103.532 98.1818 104.006 98.1649 104.397C98.1479 104.787 98.2158 105.16 98.3175 105.228C98.4193 105.296 98.555 105.669 98.6229 106.059C98.6738 106.466 98.9112 106.975 99.1487 107.229C99.3862 107.484 99.5728 107.857 99.5728 108.061C99.5728 108.332 99.8951 108.654 100.811 109.265C102.151 110.164 102.457 110.452 102.389 110.741C102.355 110.86 102.372 110.893 102.406 110.809C102.558 110.554 102.999 110.69 102.898 110.961C102.83 111.165 102.864 111.216 103.05 111.131C103.22 111.063 103.305 111.148 103.305 111.368C103.305 111.555 103.389 111.708 103.491 111.708C103.61 111.708 103.644 111.555 103.593 111.351C103.525 111.08 103.542 111.046 103.729 111.199C103.881 111.334 103.983 111.334 104.068 111.199C104.238 110.927 104 110.69 103.508 110.673C103.22 110.656 103.152 110.622 103.356 110.571C103.508 110.537 103.644 110.385 103.644 110.249C103.644 110.113 103.593 110.028 103.525 110.062C103.44 110.113 103.373 109.96 103.373 109.74C103.356 109.519 103.135 109.061 102.881 108.722C102.473 108.196 102.423 107.976 102.423 106.907C102.44 106.229 102.355 105.448 102.236 105.177C102.049 104.685 100.709 103.226 100.455 103.226C100.387 103.226 100.183 102.989 100.014 102.7C99.7933 102.344 99.6067 102.208 99.4032 102.259C98.8773 102.395 98.4363 101.92 98.1988 100.987C98.097 100.495 97.8935 100.003 97.7917 99.9184C97.5373 99.7148 97.3167 98.6462 97.5203 98.6462C97.6899 98.6462 97.6729 98.2051 97.4864 98.0355C97.4185 97.9676 97.3676 98.0864 97.3676 98.2899C97.3676 98.731 96.8927 98.9685 96.6721 98.6292C96.4516 98.3069 96.5873 96.882 96.9266 95.7625C97.0962 95.2536 97.2319 94.3715 97.2489 93.8117C97.2828 92.8279 97.2998 92.7939 97.7578 92.7431C98.1818 92.6922 98.2158 92.7261 98.2158 93.3537C98.2158 93.9814 98.2327 94.0153 98.8095 94.0322C99.5389 94.0662 100.082 94.3376 100.082 94.6768C100.082 94.8295 100.2 94.9143 100.387 94.8804C100.574 94.8465 100.76 95.0161 100.964 95.4232C101.133 95.7455 101.252 96.1187 101.269 96.2205C101.269 96.4919 101.88 97.1195 102.134 97.1195C102.219 97.1195 102.253 97.0177 102.185 96.899C102.117 96.7802 102.134 96.7463 102.219 96.8311C102.372 96.9838 102.389 97.0517 102.44 97.5436C102.473 97.9507 102.796 97.8489 102.796 97.4248C102.796 97.1025 102.83 97.0856 103.101 97.3231C103.254 97.4588 103.542 97.6284 103.729 97.6962C103.966 97.7811 104 97.8489 103.847 97.9507C103.542 98.1373 103.61 100.003 103.932 100.003C104.051 100.003 104.238 99.8506 104.356 99.664C104.475 99.4604 104.899 99.1211 105.289 98.8837C105.951 98.5105 106.222 98.0864 106.273 97.3739C106.29 97.2722 106.375 97.2213 106.494 97.2552C106.782 97.3061 107.664 96.8311 108.207 96.3392C108.444 96.1187 108.733 95.9321 108.852 95.9321C109.089 95.9321 109.276 95.05 109.174 94.3715C109.14 94.117 109.191 93.9474 109.259 93.9983C109.343 94.0492 109.411 93.9305 109.411 93.7439C109.411 93.5573 109.343 93.3707 109.259 93.3198C109.191 93.2689 109.072 92.8618 109.021 92.4208C108.97 91.9797 108.801 91.369 108.665 91.0976C108.512 90.8093 108.394 90.47 108.394 90.3173C108.394 90.1816 108.173 89.8424 107.885 89.571C107.613 89.2996 107.376 88.9942 107.376 88.8755C107.376 88.7567 107.24 88.621 107.053 88.5532C106.663 88.4344 104.662 86.5176 104.662 86.2802C104.662 86.1784 104.407 85.8391 104.085 85.4998C103.593 85.0079 103.508 84.7874 103.508 84.1259C103.508 83.6339 103.593 83.3286 103.729 83.2777C103.847 83.2268 104.085 82.9215 104.238 82.5992C104.39 82.2769 104.577 82.0564 104.662 82.1073C104.73 82.1581 104.848 82.0733 104.899 81.9376C104.95 81.8019 105.086 81.7001 105.205 81.7171C105.323 81.751 105.408 81.6492 105.408 81.4966C105.374 81.1404 106.528 80.7332 106.986 80.9198C107.155 80.9877 107.478 81.0386 107.698 81.0216C108.02 80.9877 108.071 81.0386 107.986 81.2591C107.834 81.6832 108.411 82.8536 108.784 82.8706C109.174 82.8706 109.31 82.4804 109.072 82.0224C108.936 81.768 108.936 81.6832 109.055 81.751C109.174 81.8189 109.242 81.7341 109.242 81.5305C109.242 81.3269 109.343 81.1573 109.462 81.1573C109.564 81.1404 109.751 81.1234 109.835 81.0895C109.937 81.0725 110.107 81.0386 110.226 81.0386C110.344 81.0216 110.395 80.9198 110.327 80.8011C110.259 80.6993 110.276 80.6654 110.395 80.7332C110.497 80.7841 110.616 80.7672 110.684 80.6824C110.751 80.5636 110.938 80.5636 111.209 80.6654C111.82 80.9029 112.007 80.8689 111.888 80.5636C111.837 80.4279 111.854 80.3601 111.956 80.4109C112.058 80.4618 112.125 80.4279 112.125 80.3261C112.125 80.2244 112.21 80.1904 112.312 80.2583C112.583 80.4109 112.804 79.9869 112.719 79.478C112.651 79.0709 112.651 79.0709 112.838 79.5119C113.024 79.953 113.652 80.1904 113.652 79.8342C113.652 79.7494 113.957 79.5119 114.348 79.3253C114.721 79.1218 114.992 79.0369 114.924 79.1387C114.873 79.2235 114.907 79.3083 114.992 79.3083C115.094 79.3083 115.179 79.2235 115.179 79.1387C115.179 79.0369 115.23 78.9861 115.314 78.9861C115.908 79.0878 116.247 78.9182 116.417 78.4772C116.519 78.1888 116.756 77.9343 116.943 77.8835C117.146 77.8326 117.452 77.5612 117.638 77.2728C117.825 77.0014 118.062 76.7639 118.181 76.7639C118.453 76.7639 118.792 76.1363 118.639 75.8818C118.571 75.78 118.588 75.7292 118.673 75.78C118.86 75.8988 119.267 75.4917 119.131 75.339C119.063 75.2881 119.182 75.2372 119.386 75.2372C119.606 75.2372 119.759 75.1355 119.759 74.9658C119.759 74.8301 119.691 74.7453 119.606 74.7962C119.386 74.9319 119.233 74.1855 119.42 73.965C119.521 73.8463 119.538 73.7106 119.47 73.6597C119.42 73.5918 119.453 73.5409 119.555 73.5409C119.674 73.5409 119.759 73.3883 119.759 73.2186C119.759 73.032 119.844 72.8285 119.928 72.7776C120.03 72.7267 120.098 72.4892 120.098 72.2687C120.098 71.692 120.268 71.3357 120.539 71.3357C120.675 71.3357 120.794 71.234 120.794 71.1152C120.878 70.5046 120.861 70.1992 120.726 69.9278C120.641 69.7412 120.658 69.6564 120.794 69.6734C120.912 69.7073 120.997 69.368 121.031 68.6556C121.048 68.0788 120.997 67.6039 120.912 67.6039C120.844 67.6039 120.76 67.6717 120.76 67.7735C120.743 67.8583 120.726 68.011 120.709 68.0958C120.675 68.4351 120.437 68.486 120.166 68.1976C119.979 68.028 119.742 67.9601 119.487 68.011C118.911 68.1637 119.131 67.6887 119.776 67.4003C120.285 67.1628 120.386 67.0102 120.098 66.8405C119.996 66.7727 119.962 66.6709 120.013 66.6031C120.047 66.5182 119.878 66.4165 119.606 66.3656C119.063 66.2468 118.792 65.8228 119.182 65.6701C119.301 65.6192 119.403 65.6701 119.369 65.7719C119.352 65.8737 119.436 65.9924 119.555 66.0263C119.657 66.0772 119.759 65.9924 119.759 65.8737C119.759 65.6701 119.182 65.1612 118.317 64.5845C118.232 64.5166 118.029 64.2622 117.893 64.0247C117.214 62.8373 116.468 62.057 115.688 61.6838C114.924 61.3276 114.856 61.2428 114.958 60.8526C115.009 60.6151 115.281 60.208 115.552 59.9366C116.044 59.4447 116.18 59.1902 115.823 59.3938C115.705 59.4616 115.857 59.2751 116.163 58.9697C116.536 58.6305 116.892 58.4439 117.231 58.4439C117.638 58.4439 117.723 58.376 117.723 58.0368C117.723 57.5109 117.621 57.46 116.672 57.3582C116.247 57.3243 115.739 57.2056 115.552 57.1038C115.196 56.9172 114.263 57.019 114.398 57.2395C114.432 57.2904 114.365 57.4939 114.229 57.6636C114.025 57.935 113.924 57.9689 113.567 57.7993C113.33 57.6975 113.143 57.46 113.143 57.3073C113.126 56.7985 112.753 56.4592 112.159 56.4422C111.379 56.4253 110.768 56.0012 110.768 55.4584C110.768 55.1191 110.836 55.0343 111.04 55.1191C111.549 55.3057 112.142 55.0343 112.227 54.5593C112.278 54.3049 112.549 53.9487 112.821 53.779C113.092 53.5925 113.313 53.338 113.313 53.2193C113.313 52.8291 113.737 52.5407 114.212 52.6256C114.89 52.7613 115.111 53.1005 114.84 53.6603C114.517 54.2879 114.534 54.4236 114.89 54.695C115.179 54.8986 115.179 54.9495 114.941 55.2039C114.687 55.4923 114.738 55.7298 115.026 55.7298C115.111 55.7298 115.467 55.4075 115.84 55.0343C116.383 54.4745 116.655 54.3219 117.282 54.254C117.706 54.2031 118.181 54.2201 118.351 54.2879C118.52 54.3727 118.724 54.4067 118.792 54.3897C118.86 54.3897 119.08 54.4406 119.25 54.5424C119.538 54.695 119.589 54.8986 119.589 55.8655C119.589 56.6628 119.64 56.9342 119.759 56.7476C119.844 56.6119 119.928 56.561 119.928 56.6628C119.928 56.9002 120.76 57.2565 120.878 57.0699C120.929 56.985 121.099 56.985 121.302 57.0868C121.472 57.1886 121.625 57.2225 121.625 57.1716C121.625 57.1208 121.811 57.2056 122.049 57.3582C122.473 57.6296 122.626 58.1046 122.303 58.1046C122.015 58.1046 122.117 58.393 122.609 58.9188C123.321 59.6991 123.474 59.9196 123.372 60.0384C123.185 60.225 123.202 61.0731 123.389 61.1919C123.491 61.2597 123.575 61.4802 123.575 61.7008C123.575 62.057 123.643 62.0909 124.339 62.04C124.763 62.0231 125.136 61.9213 125.153 61.8365C125.187 61.7347 125.357 61.6668 125.543 61.6668C125.713 61.6668 125.865 61.599 125.865 61.4972C125.865 61.4124 125.967 61.3785 126.103 61.4293C126.442 61.5651 127.053 60.9035 127.053 60.4285C127.053 59.75 126.052 57.9859 125.238 57.2225C124.814 56.8154 124.305 56.3235 124.101 56.103C123.915 55.8824 123.457 55.5432 123.1 55.3396C122.761 55.153 122.354 54.8138 122.218 54.5933C121.964 54.2201 121.981 54.1862 122.422 53.9147C122.676 53.779 123.1 53.3719 123.338 53.0157C123.745 52.439 123.762 52.3542 123.542 51.9301C123.253 51.3872 123.304 50.5391 123.626 50.59C123.728 50.6239 123.83 50.4882 123.83 50.2847C123.83 50.0981 123.898 49.9793 123.983 50.0302C124.067 50.0981 124.22 49.9284 124.305 49.674C124.407 49.4026 124.491 49.3008 124.491 49.4365C124.508 49.6231 124.576 49.6061 124.763 49.3517C124.966 49.0973 125 49.0803 125.017 49.3008C125.017 49.674 126.205 50.0133 126.748 49.8097C127.29 49.6061 128.24 48.5036 128.24 48.0964C128.24 47.6384 128.715 45.8913 128.902 45.6538C128.987 45.552 129.055 44.7717 129.055 43.9405C129.055 43.0923 129.122 42.2272 129.224 41.9898C129.343 41.6505 129.292 41.3621 128.97 40.6327C128.749 40.1238 128.478 39.6489 128.359 39.581C128.257 39.5131 128.223 39.4114 128.291 39.3435C128.359 39.2757 128.24 39.106 128.054 38.9703C127.426 38.5463 126.764 36.7312 127.223 36.7312C127.562 36.7312 128.885 37.8338 128.987 38.1731C129.038 38.3597 129.343 38.7838 129.648 39.106C129.954 39.4283 130.378 40.056 130.581 40.4801C130.785 40.9041 131.175 41.4639 131.446 41.7014C131.718 41.9389 132.023 42.3969 132.142 42.7361C132.244 43.0754 132.396 43.3468 132.481 43.3468C132.566 43.3468 132.702 43.6012 132.803 43.9066C132.922 44.2289 133.227 44.7038 133.516 44.9752L134.042 45.4672L133.923 44.8565C133.804 44.2458 133.821 44.2458 134.279 44.3307C134.551 44.3815 134.89 44.5851 135.059 44.7717C135.297 45.0601 135.348 45.077 135.365 44.8565C135.365 44.5342 134.805 43.8557 134.551 43.8557C134.449 43.8557 134.177 43.686 133.957 43.4655C133.719 43.262 133.346 42.9566 133.109 42.804C132.871 42.6344 132.566 42.1763 132.43 41.7862C132.294 41.3791 132.125 40.9211 132.057 40.7515C131.87 40.3104 132.685 40.3783 133.499 40.8872C134.211 41.3452 134.347 41.3791 134.347 41.1755C134.347 41.1077 134.093 40.9041 133.804 40.7175C133.499 40.5479 132.939 40.0899 132.549 39.7167C132.176 39.3266 131.192 38.4106 130.378 37.6642C129.563 36.9178 128.783 36.1036 128.647 35.8491C128.342 35.2724 127.664 34.526 127.443 34.526C127.341 34.526 127.087 34.3225 126.866 34.0511C126.256 33.3556 125.933 33.152 125.628 33.2708C125.391 33.3556 125.441 33.4404 125.882 33.7118C126.408 34.0341 126.408 34.0341 126.103 34.3734C125.815 34.6957 125.815 34.7466 126.052 34.9162C126.408 35.1876 126.951 36.0358 126.849 36.1545C126.714 36.2902 125.865 35.3233 125.865 35.0349C125.865 34.9501 125.391 34.6278 124.814 34.3394C124.22 34.068 123.525 33.7118 123.27 33.5761C122.71 33.2708 121.218 33.1351 121.438 33.4065C121.608 33.627 121.37 34.3564 121.116 34.3564C121.031 34.3564 120.946 34.2037 120.946 34.0172C120.946 33.8306 120.827 33.6779 120.692 33.6779C120.556 33.6779 120.437 33.5252 120.437 33.3386C120.437 33.152 120.352 32.9994 120.251 32.9994C120.149 32.9994 120.098 32.8976 120.149 32.7619C120.285 32.4057 119.674 31.9137 119.301 32.0664C119.131 32.1512 118.911 32.1852 118.792 32.1682C118.69 32.1512 118.554 32.2191 118.487 32.3208C118.385 32.4735 118.86 32.5583 119.674 32.5244C119.861 32.5244 119.911 32.5583 119.793 32.6092C119.623 32.6771 119.64 32.7619 119.861 33.0163C120.013 33.186 120.064 33.3386 119.962 33.3386C119.878 33.3386 119.827 33.5083 119.878 33.7118C119.928 33.9663 119.844 33.8984 119.623 33.5083C119.335 32.9824 119.199 32.8976 118.419 32.8128C116.96 32.6262 116.943 32.5923 117.588 31.778C118.317 30.8451 118.588 30.3192 118.368 30.2514C118.181 30.1835 118.894 28.589 119.114 28.589C119.182 28.589 119.165 28.4024 119.08 28.1649C118.945 27.8257 118.978 27.7069 119.165 27.6391C119.301 27.5712 119.42 27.3507 119.42 27.1302C119.42 26.8588 119.555 26.6722 119.776 26.5874C120.336 26.3668 122.761 26.3329 122.897 26.5365C122.948 26.6382 123.151 26.7231 123.338 26.7231C123.525 26.7231 123.643 26.6722 123.592 26.5874C123.559 26.5195 124.135 26.4856 124.882 26.5025C126.171 26.5534 126.239 26.5365 126.154 26.1972C126.086 25.9428 126.137 25.8749 126.34 25.9428C127.019 26.1293 127.833 26.282 127.969 26.2311C128.071 26.2142 128.325 26.2311 128.546 26.299C128.868 26.3838 128.902 26.4516 128.749 26.6382C128.529 26.9097 128.715 27.0623 129.292 27.0623C130.632 27.0623 130.954 27.0284 130.954 26.8757C130.954 26.7739 131.141 26.74 131.429 26.8079C131.701 26.8588 132.142 26.8248 132.396 26.7231C132.99 26.5025 132.803 26.3159 131.701 26.0276C130.954 25.841 130.853 25.6035 131.158 24.8232C131.243 24.5857 131.328 24.1277 131.345 23.8224C131.378 23.2965 131.429 23.2626 132.057 23.1947C132.43 23.1608 132.888 23.1439 133.075 23.1439C133.261 23.1608 133.618 23.1608 133.889 23.1778C134.177 23.1778 134.347 23.2626 134.347 23.4153C134.347 23.7545 134.992 24.3822 135.212 24.2634C135.297 24.1956 135.517 24.3313 135.704 24.5518C135.925 24.8062 136.026 24.8571 136.043 24.7045C136.043 24.5688 136.094 24.5179 136.162 24.5857C136.23 24.6366 136.366 24.45 136.45 24.1447C136.603 23.7206 136.739 23.5679 137.112 23.534C137.519 23.4831 137.79 23.1608 137.4 23.1608C137.315 23.1608 137.044 22.9573 136.79 22.7028C136.349 22.2618 136.349 22.2448 136.705 22.1261C137.112 21.9734 137.621 22.1091 137.468 22.3296C137.366 22.5162 138.265 23.6697 138.52 23.6697C138.842 23.6697 138.706 24.2295 138.299 24.6027C138.028 24.8402 137.943 25.0777 137.994 25.3491C138.028 25.5865 137.994 25.8579 137.892 25.9937C137.773 26.1124 137.74 26.4516 137.807 26.7231C137.926 27.3507 137.672 28.0801 137.315 28.0801C137.18 28.0801 137.061 28.1479 137.061 28.2497C137.061 28.3345 136.891 28.4194 136.688 28.4194C136.298 28.4194 136.298 28.4194 136.739 28.8265C137.061 29.1318 137.163 29.3693 137.112 29.6577C136.976 30.3701 137.858 31.5236 139.826 33.2199C140.284 33.61 140.979 34.2207 141.353 34.5939C141.743 34.9501 142.404 35.5269 142.828 35.8661C143.236 36.2054 143.761 36.6803 143.982 36.9348C144.202 37.1892 144.61 37.5624 144.864 37.749L145.356 38.1052L145.627 37.5794C145.933 36.9857 145.848 36.2054 145.441 35.8661C145.135 35.6117 145.135 35.1028 145.441 34.984C145.576 34.9332 145.865 34.9332 146.085 34.984C146.408 35.0519 146.34 34.9332 145.729 34.4073C145.135 33.8645 145.017 33.6609 145.118 33.3556C145.22 33.0333 145.305 32.9994 145.831 33.1012C146.34 33.2029 146.425 33.169 146.357 32.8976C146.323 32.728 146.001 32.3887 145.644 32.1512C144.61 31.4388 144.202 30.404 145.118 30.8281C145.356 30.9299 145.593 30.9638 145.661 30.9129C145.814 30.7433 145.034 29.946 144.711 29.946C144.338 29.9291 143.507 29.1827 143.507 28.8604C143.507 28.5042 142.879 28.1988 142.387 28.3176C141.777 28.4702 141.098 27.7578 141.234 27.0962C141.319 26.7061 141.234 26.5025 140.895 26.1463C140.471 25.7392 140.471 25.6205 140.844 25.6883C140.912 25.7053 141.132 25.6205 141.336 25.5187C141.522 25.4169 141.641 25.3999 141.573 25.5017C141.522 25.5865 141.59 25.7053 141.726 25.7731C141.997 25.8749 142.218 25.6205 142.082 25.383C141.862 25.0268 142.489 25.0946 142.828 25.4508C143.253 25.8919 143.507 25.8749 143.507 25.383C143.507 24.7384 145.085 24.6875 146.374 25.2812C147.358 25.7392 147.544 25.7392 147.273 25.2642C147.154 25.0437 147.205 24.8741 147.51 24.5688C147.731 24.3482 147.968 23.9751 148.019 23.7545C148.07 23.517 148.307 23.2796 148.613 23.1778C148.884 23.093 149.105 22.9233 149.105 22.8385C149.105 22.7368 149.207 22.6519 149.342 22.6519C149.461 22.6519 149.682 22.5332 149.8 22.3805C150.021 22.1091 150.682 22.1261 152.039 22.4145C152.43 22.4993 152.497 22.4653 152.497 22.177C152.497 21.9565 152.345 21.7868 152.124 21.702C151.904 21.6511 151.615 21.4985 151.48 21.3797C151.344 21.261 151.039 21.1083 150.801 21.0235C150.14 20.786 148.257 19.7004 148.257 19.5477C148.257 19.4799 148.409 19.2593 148.579 19.0558C149.02 18.5978 148.766 18.1737 147.883 17.9193C147.527 17.8005 147.273 17.6479 147.324 17.563C147.375 17.4613 147.866 17.6139 148.392 17.8853C149.207 18.2924 149.563 18.3773 150.547 18.3603C151.53 18.3603 151.887 18.4281 152.582 18.8013C153.04 19.0558 153.6 19.2593 153.804 19.2593C153.99 19.2593 154.635 19.412 155.194 19.5816C156.161 19.887 156.246 19.887 156.416 19.6156C156.568 19.3781 156.585 19.3781 156.501 19.6325C156.399 19.9718 156.823 20.0396 157.247 19.7682C157.468 19.6325 157.434 19.5816 157.128 19.4968C156.908 19.429 156.789 19.3272 156.84 19.2424C156.891 19.1576 156.84 19.0897 156.755 19.0897C156.653 19.0897 156.416 18.937 156.246 18.7674C155.907 18.4281 155.907 18.4281 156.348 18.3773C156.602 18.3433 156.84 18.2246 156.874 18.0889C156.925 17.9193 156.874 17.8853 156.687 17.9532C156.518 18.021 156.45 17.9871 156.501 17.8514C156.535 17.7327 156.365 17.5121 156.094 17.3595C155.296 16.8845 152.396 16.206 151.174 16.206C150.326 16.206 149.834 16.1042 149.19 15.7989C148.274 15.3409 140.657 13.441 138.164 13.0339C137.332 12.8982 135.992 12.7625 135.195 12.7286C133.024 12.6268 131.073 12.4741 130.7 12.3554C130.428 12.2876 130.445 12.3384 130.836 12.7116C131.09 12.9491 131.378 13.1527 131.463 13.1527C131.548 13.1527 131.904 13.3223 132.26 13.5258L132.905 13.916L132.43 13.9669C132.159 14.0008 131.853 13.9499 131.735 13.8481C131.616 13.7464 131.158 13.6107 130.717 13.5598C130.276 13.4919 129.886 13.3901 129.852 13.3223C129.801 13.2375 129.92 13.2205 130.106 13.2714C130.293 13.3223 130.445 13.2714 130.445 13.1696C130.445 13.0678 130.395 13 130.327 13C130.242 13.017 129.92 13 129.597 12.983L129.004 12.9321L129.597 12.8134L130.191 12.6947L129.648 12.6438C128.596 12.542 128.495 12.559 128.495 12.8134C128.495 13 128.308 13.0678 127.731 13.0509C126.357 13 123.236 12.983 122.982 13.017C122.388 13.1018 120.946 12.7795 120.946 12.542C120.946 12.2197 120.149 11.8465 118.792 11.5242C117.859 11.3037 117.113 11.2698 114.992 11.3546C112.872 11.4394 112.244 11.4224 111.752 11.2189C111.43 11.0832 110.802 10.9305 110.344 10.8627C109.174 10.7269 108.716 10.5912 108.835 10.4216C109.106 9.98058 105.73 9.53954 105.221 9.94666C105.069 10.0824 104.984 10.0993 105.052 9.98058C105.238 9.6922 104.865 9.62436 101.693 9.33598C98.2497 9.03065 98.3684 9.03065 98.8943 9.33598L99.3184 9.57347L98.6907 9.59042C98.1988 9.59042 98.0801 9.64131 98.1479 9.84488C98.2158 9.98058 98.4532 10.0993 98.6907 10.0993C98.9282 10.0993 99.0639 10.1502 98.9961 10.2181C98.9452 10.2859 99.0978 10.4386 99.3523 10.5573L99.8273 10.7778L99.3184 10.6761C99.047 10.6082 98.6568 10.5743 98.4702 10.5743C98.2836 10.5912 97.656 10.6082 97.0623 10.6082C96.4855 10.6082 95.824 10.693 95.6204 10.7609C95.383 10.8457 94.908 10.8457 94.4669 10.7439C94.0598 10.6591 93.5509 10.5743 93.3474 10.5573C93.1608 10.5404 93.0251 10.4725 93.076 10.3877C93.1099 10.3198 93.059 10.269 92.9403 10.269C92.8385 10.269 92.7876 10.4046 92.8385 10.5573C93.1947 11.6938 93.2117 11.626 92.601 11.5242C91.7189 11.3546 90.3958 10.71 89.7682 10.1163C89.4629 9.82791 89.0897 9.59042 88.954 9.59042C88.8183 9.59042 88.7165 9.48865 88.7165 9.3699C88.7165 8.89494 85.6462 8.02983 85.3917 8.43695C85.3408 8.50479 85.2051 8.52176 85.1034 8.4539C84.9846 8.38606 84.7132 8.30124 84.4757 8.28427C84.2382 8.25035 83.7124 8.14857 83.2883 8.0468C82.7455 7.92805 82.508 7.92805 82.4741 8.0468C82.4402 8.14857 82.3384 8.19946 82.2536 8.13161C82.1688 8.08072 82.1009 8.13161 82.1009 8.21643C82.1009 8.31821 82.2536 8.48784 82.4402 8.60657C82.6268 8.72531 82.7794 8.86102 82.7794 8.91191C82.7794 8.99672 81.3376 8.97977 79.7261 8.84406C79.2172 8.81013 78.6405 8.7762 78.4539 8.75925C78.1994 8.74228 78.1655 8.70836 78.3521 8.58961C78.4878 8.50479 78.5048 8.40302 78.403 8.33516C78.1655 8.19946 74.0605 8.14857 73.8399 8.28427C73.5855 8.43695 72.432 7.75842 72.432 7.45309C72.432 7.28346 72.2115 7.21561 71.6517 7.21561C71.0241 7.21561 70.8545 7.28346 70.7866 7.5379C70.7357 7.75842 70.6 7.82628 70.3795 7.77539C70.2099 7.7245 69.9384 7.74145 69.7858 7.79234C69.5653 7.87717 69.5483 7.94502 69.7179 8.13161C69.8706 8.33516 69.8027 8.41998 69.2599 8.55568C68.4457 8.79317 67.6315 8.79317 67.7672 8.57265C67.8181 8.47087 68.0556 8.40302 68.2761 8.40302C68.4966 8.40302 68.751 8.30124 68.8189 8.1825C68.9885 7.92805 69.4296 7.65665 70.4304 7.16472C70.8714 6.96117 71.2785 6.68976 71.3294 6.55405C71.4821 6.16389 70.7357 5.50235 70.2268 5.57019C69.9893 5.60413 69.9045 5.60413 70.0233 5.57019C70.1929 5.50235 70.1759 5.43449 69.9384 5.24789C69.5822 4.97649 69.3108 4.94257 69.4635 5.18005C69.6331 5.45146 69.3448 5.38361 69.0055 5.06131C68.751 4.84079 68.31 4.77293 66.6137 4.77293C65.4772 4.75597 64.3576 4.82382 64.1371 4.90865C63.8318 5.01042 63.7639 4.99345 63.8148 4.82382C63.9336 4.48456 63.6452 3.99265 63.3398 3.99265C63.2041 3.99265 63.1363 4.06049 63.1872 4.16226C63.3568 4.41672 62.6274 4.36583 62.1864 4.07745C61.7284 3.77213 59.4384 3.58553 58.9295 3.80605L58.9295 3.80605ZM72.1403 8.22244C72.3373 8.57684 72.2657 8.72874 71.8358 8.72874C71.5133 8.72874 71.2446 8.47559 71.2446 8.22244C71.2446 7.56418 71.782 7.56418 72.1403 8.22244L72.1403 8.22244ZM45.393 14.437C45.8001 14.9786 45.5966 15.0989 45.1216 14.6175C44.9011 14.3969 44.6297 14.2163 44.5109 14.2163C44.3922 14.2163 44.2565 14.1361 44.2056 14.0558C44.0359 13.7148 45.1046 14.0759 45.393 14.437L45.393 14.437ZM151.766 17.1847C151.882 17.5684 151.727 17.6323 151.417 17.4405C150.719 16.9929 150.603 16.5453 151.146 16.5453C151.378 16.5453 151.65 16.8011 151.766 17.1847L151.766 17.1847ZM148.237 19.9353C148.416 20.5935 147.901 20.5935 147.452 19.9353C147.183 19.5302 147.205 19.429 147.609 19.429C147.878 19.429 148.17 19.6315 148.237 19.9353L148.237 19.9353ZM89.0049 31.9307C89.6834 33.5083 89.7682 33.8306 89.5646 34.1359C89.395 34.4073 89.3781 34.4073 89.4629 34.1359C89.5138 33.9832 89.4798 33.8475 89.395 33.8475C89.2932 33.8475 89.2254 34.0002 89.2254 34.1868C89.2254 34.3903 89.3441 34.526 89.5307 34.526C89.7003 34.526 89.7512 34.5769 89.6325 34.6617C89.5307 34.7296 89.395 34.9332 89.3271 35.1197C89.2763 35.3403 88.937 35.5777 88.496 35.7304C87.8853 35.9679 87.7835 36.0527 87.8344 36.4429C87.8853 36.816 87.8005 36.9009 87.2068 37.0874C86.6979 37.2401 86.4095 37.2401 86.1381 37.1044C85.7649 36.9348 85.7649 36.9178 86.2399 36.9178C86.7148 36.9009 87.3595 36.4937 87.3595 36.1884C87.3595 36.1206 87.5121 35.9 87.7157 35.6965C87.9023 35.5099 88.021 35.2385 87.9701 35.1028C87.9192 34.984 87.9701 34.8144 88.0889 34.7466C88.6487 34.3903 88.8013 33.0503 88.4451 31.7611C88.2924 31.2861 88.7843 31.4218 89.0049 31.9307L89.0049 31.9307ZM56.385 44.178C56.4359 44.2628 56.368 44.3646 56.2324 44.4324C56.0966 44.4833 55.9779 44.636 55.9779 44.7887C55.9779 44.9244 55.8592 45.0431 55.7234 45.0431C55.5538 45.0431 55.469 45.2127 55.469 45.569C55.469 46.0269 55.4351 46.0778 55.2146 45.8913C54.9092 45.6368 54.8753 44.8735 55.1637 44.8735C55.2654 44.8735 55.3163 44.8226 55.2654 44.7717C55.1128 44.619 55.6895 44.0592 56.0118 44.0423C56.1645 44.0253 56.3341 44.0932 56.385 44.178L56.385 44.178ZM57.827 44.8285C57.5985 45.1362 57.2068 45.1362 57.011 44.8285C56.7825 44.3669 56.9457 44.0592 57.4027 44.0592C57.8596 44.0592 58.0228 44.3669 57.827 44.8285L57.827 44.8285ZM59.7679 44.7813C59.9675 45.2503 59.8949 45.3089 59.4957 45.0158C58.8244 44.5467 58.6792 44.1949 59.151 44.1949C59.3324 44.1949 59.6227 44.4881 59.7679 44.7813L59.7679 44.7813ZM61.049 44.7185C61.049 45.0676 60.824 45.2421 60.549 45.1839C60.274 45.1257 60.049 44.893 60.049 44.6604C60.049 44.4277 60.274 44.1949 60.549 44.1949C60.824 44.1949 61.049 44.4277 61.049 44.7185L61.049 44.7185ZM40.8719 45.1968C40.7508 45.5714 40.3873 45.6963 40.1046 45.3217C39.7816 44.947 39.9027 44.5723 40.3469 44.5723C40.7912 44.4475 41.0335 44.8221 40.8719 45.1968L40.8719 45.1968ZM39.0149 45.3824C39.0149 45.4672 38.9301 45.552 38.8283 45.552C38.7435 45.552 38.7096 45.6368 38.7605 45.7216C38.8283 45.8234 39.0149 45.8573 39.2015 45.8064C39.439 45.7216 39.5408 45.8064 39.6256 46.1287C39.6765 46.3662 39.8291 46.6376 39.9648 46.7564C40.1514 46.909 40.1514 47.0278 39.9309 47.4518C39.7613 47.7911 39.5916 47.9268 39.422 47.8589C39.2693 47.8081 39.0488 47.7572 38.9131 47.7572C38.7435 47.7572 38.6756 47.5197 38.6756 46.8412C38.6756 46.3323 38.6078 45.8573 38.506 45.8064C38.4042 45.7386 38.4212 45.6198 38.5569 45.4672C38.7944 45.1788 39.0149 45.1449 39.0149 45.3824L39.0149 45.3824ZM38.7643 46.2777C39.0355 46.9154 38.6015 47.1279 38.1946 46.5676C37.7334 45.9106 37.7334 45.8913 38.1946 45.8913C38.4116 45.8913 38.6557 46.0652 38.7643 46.2777L38.7643 46.2777ZM38.4648 47.5536C38.2251 47.6554 37.4661 46.7903 37.5061 46.4341C37.5061 46.2814 37.7857 46.451 38.1053 46.8073C38.4249 47.1804 38.5846 47.5027 38.4648 47.5536L38.4648 47.5536ZM33.2644 51.3533C33.3662 51.5739 33.6885 51.964 33.9939 52.2184C34.2822 52.4899 34.4179 52.6595 34.2992 52.5916C34.1635 52.5238 33.9599 52.6086 33.8242 52.7782C33.6376 53.0157 33.5359 53.0327 33.485 52.88C33.4341 52.7782 33.2305 52.6765 33.0439 52.6765C32.6029 52.6765 32.2467 52.2184 32.2297 51.6247C32.2297 50.9293 32.9421 50.7427 33.2644 51.3533L33.2644 51.3533ZM12.952 70.9876C12.952 71.2543 12.6923 71.4876 12.303 71.4876C11.9786 71.4876 11.8488 71.2543 12.0435 70.9876C12.303 70.7209 12.5625 70.4876 12.6923 70.4876C12.8221 70.4876 12.952 70.7209 12.952 70.9876L12.952 70.9876ZM78.2426 83.8795C78.2426 84.1295 78.1208 84.3795 77.9988 84.3795C77.816 84.3795 77.5113 84.1295 77.3285 83.8795C77.1456 83.5795 77.2675 83.3795 77.5722 83.3795C77.9379 83.3795 78.2426 83.5795 78.2426 83.8795L78.2426 83.8795ZM23.0869 88.5997C23.237 88.8939 23.0369 89.1291 22.6367 89.1291C22.2367 89.1291 22.0365 88.8939 22.1866 88.5997C22.3366 88.3644 22.5368 88.1291 22.6367 88.1291C22.7368 88.1291 22.9368 88.3644 23.0869 88.5997L23.0869 88.5997ZM102.694 96.6158C102.877 96.8097 102.755 97.0811 102.389 97.2363C102.083 97.3526 101.778 97.1975 101.778 96.8873C101.778 96.1893 102.144 96.0729 102.694 96.6158L102.694 96.6158ZM105.903 98.1284C106.209 98.4034 106.3 98.6284 106.117 98.6284C105.933 98.6284 105.628 98.4034 105.444 98.1284C105.26 97.8534 105.169 97.6284 105.23 97.6284C105.291 97.6284 105.597 97.8534 105.903 98.1284L105.903 98.1284Z" id="path2337" fill="#D5E2E9" fill-rule="evenodd" stroke="none" />
    <path d="M96.1802 7.53792C96.1802 7.82629 96.6721 8.0977 96.9944 7.99592C97.2149 7.92807 97.3676 7.97896 97.4355 8.14859C97.5033 8.31822 97.4185 8.40303 97.181 8.40303C96.9774 8.40303 96.8926 8.47088 96.9605 8.58963C97.0114 8.6914 97.2319 8.72532 97.4524 8.67444C97.656 8.62355 98.4702 8.65747 99.2335 8.75926C100.624 8.92888 101.066 8.86104 100.591 8.57266C100.166 8.30125 98.6229 7.89415 98.0122 7.89415C97.7068 7.89415 97.2997 7.7754 97.1301 7.63969C96.7569 7.36828 96.1802 7.30044 96.1802 7.53792L96.1802 7.53792Z" id="path2339" fill="#D5E2E9" stroke="none" />
    <path d="M133.838 45.993C133.838 46.1287 133.77 46.1966 133.668 46.1457C133.584 46.0948 133.499 46.1287 133.499 46.2305C133.499 46.3492 133.601 46.4001 133.736 46.3492C134.16 46.1796 135.28 47.825 135.093 48.3509C135.042 48.4696 135.076 48.6223 135.178 48.6901C135.551 48.9107 135.348 49.0803 134.873 48.9446C134.245 48.775 134.092 48.9107 134.449 49.3008C134.686 49.5722 134.703 49.6231 134.483 49.7079C134.33 49.7758 134.228 50.0302 134.228 50.3525C134.228 50.6579 134.262 50.7935 134.296 50.6918C134.415 50.3695 135.144 50.9123 135.263 51.4212C135.382 51.8792 135.823 51.964 135.975 51.5739C136.043 51.4381 136.179 51.3194 136.315 51.3194C136.773 51.3194 136.552 50.9971 135.874 50.7087C135.5 50.5391 135.195 50.3525 135.195 50.2677C135.195 50.0811 135.433 50.0981 135.653 50.3186C135.789 50.4543 135.924 50.4373 136.179 50.2847C136.45 50.115 136.671 50.132 137.451 50.4543C137.977 50.6748 138.486 50.7935 138.605 50.7087C138.74 50.6409 138.757 50.6579 138.689 50.7766C138.622 50.8953 138.656 50.9801 138.757 50.9801C138.893 50.9801 138.927 50.8275 138.859 50.573C138.706 49.9284 138.91 49.6231 139.504 49.6231C140.063 49.6061 140.623 49.2838 140.623 48.9785C140.623 48.8767 140.504 48.8259 140.352 48.8937C140.148 48.9785 140.097 48.8598 140.131 48.2152C140.165 47.6724 140.233 47.4688 140.403 47.5367C140.521 47.5875 140.623 47.5536 140.623 47.4518C140.623 47.367 140.471 47.2483 140.284 47.1974C139.996 47.1295 139.928 47.2144 139.843 47.7741C139.724 48.4696 139.436 48.5205 139.436 47.825C139.436 47.3331 139.164 47.2822 139.012 47.7572C138.91 48.0795 138.876 48.0795 137.689 47.6384C136.586 47.2483 135.772 46.8412 135.534 46.5698C135.365 46.3662 134.211 45.7216 134.025 45.7216C133.923 45.7216 133.838 45.8404 133.838 45.993L133.838 45.993Z" id="path2341" fill="#D5E2E9" stroke="none" />
    <path d="M136.383 51.7435C136.383 51.8962 136.298 51.964 136.196 51.8962C136.06 51.8113 136.026 51.9131 136.111 52.2185C136.162 52.4729 136.128 52.7104 136.026 52.7613C135.908 52.8461 135.942 52.9818 136.128 53.1853C136.264 53.338 136.349 53.5925 136.281 53.7621C136.213 53.9487 136.264 54.0335 136.45 54.0335C136.586 54.0335 136.79 54.1862 136.891 54.3727C137.163 54.8986 137.214 56.4592 136.959 56.7476C136.739 57.002 136.722 57.0699 136.722 57.5109C136.722 57.6636 136.518 57.8671 136.264 57.9859C135.992 58.0877 135.738 58.2573 135.67 58.3591C135.484 58.5965 135.178 58.0877 135.297 57.7314C135.416 57.3582 135.178 57.2395 134.822 57.4939C134.585 57.6636 134.585 57.7484 134.788 58.1046C134.907 58.3421 135.009 58.4269 135.026 58.2912C135.026 58.1555 135.059 58.0877 135.11 58.1385C135.212 58.2403 134.805 59.1224 134.652 59.1224C134.449 59.1224 134.483 59.767 134.686 59.8348C134.788 59.8688 134.788 59.9875 134.686 60.1232C134.568 60.3268 134.5 60.3268 134.279 60.1571C134.076 59.9875 133.838 59.9705 133.177 60.1402C132.719 60.242 132.159 60.3268 131.938 60.3098C131.226 60.242 130.954 60.3098 130.954 60.5134C130.954 60.8017 130.106 61.7517 129.733 61.8874C129.563 61.9383 129.428 62.1418 129.428 62.3284C129.428 62.515 129.326 62.7525 129.224 62.8543C129.105 62.956 128.834 63.1766 128.614 63.3462L128.223 63.6854L128.681 64.1943C128.936 64.4827 129.207 64.6693 129.309 64.6014C129.411 64.5506 129.428 64.5675 129.377 64.6693C129.309 64.7541 129.479 65.1443 129.733 65.5005C129.988 65.8567 130.191 66.2808 130.191 66.4165C130.191 66.5522 130.361 66.6879 130.581 66.7218C130.785 66.7557 130.954 66.8745 130.954 66.9763C130.954 67.095 131.124 66.9932 131.345 66.7557C131.667 66.3995 131.718 66.162 131.684 65.2291C131.667 64.6014 131.65 64.0417 131.616 63.9569C131.548 63.5328 131.667 63.5497 132.159 64.0247C132.719 64.5845 133.261 64.7371 133.092 64.2792C132.956 63.9399 133.278 63.3632 133.584 63.3632C133.719 63.3632 133.838 63.431 133.838 63.5328C133.838 63.8551 134.093 63.7024 134.296 63.2614C134.398 63.0239 134.466 62.7355 134.415 62.5998C134.364 62.4811 134.398 62.3284 134.5 62.2606C134.601 62.2097 134.686 62.2606 134.686 62.3962C134.686 62.7016 135.365 63.3122 135.772 63.3971C136.026 63.431 136.128 63.3122 136.247 62.8882C136.332 62.5828 136.501 62.3454 136.637 62.3454C137.01 62.3454 136.942 61.8704 136.552 61.7517C136.366 61.7008 136.213 61.582 136.213 61.4972C136.213 61.4294 136.366 61.3954 136.552 61.4463C136.739 61.4972 136.891 61.582 136.891 61.6499C136.891 61.7008 137.231 61.7517 137.655 61.7517C138.35 61.7517 138.418 61.7177 138.418 61.3276L138.435 60.9035L138.69 61.3785C138.978 61.9213 139.334 61.8195 139.215 61.2258C139.131 60.7508 139.453 60.683 139.843 61.0901C140.097 61.3276 140.131 61.3276 140.386 61.0901C140.522 60.9374 140.589 60.7339 140.539 60.6491C140.471 60.5473 140.505 60.3607 140.606 60.242C140.742 60.0723 140.708 59.9197 140.454 59.6313C140.267 59.4108 140.097 59.0885 140.097 58.8849C140.081 58.6814 140.047 58.41 140.03 58.2742C140.013 58.1385 139.979 57.9011 139.962 57.7484C139.962 57.5957 139.792 57.3074 139.606 57.0868C139.419 56.8663 139.266 56.5949 139.266 56.4592C139.266 56.2896 139.368 56.2557 139.606 56.3235C139.792 56.3913 139.945 56.3574 139.945 56.2557C139.945 56.1539 139.877 56.0691 139.775 56.0691C139.69 56.0691 139.606 55.6959 139.606 55.2379C139.606 54.4406 139.555 54.3388 138.503 53.2532C137.892 52.6256 137.4 51.9979 137.4 51.8792C137.4 51.7605 137.299 51.6587 137.163 51.6587C137.027 51.6587 136.807 51.6078 136.654 51.5569C136.467 51.4891 136.383 51.5399 136.383 51.7435L136.383 51.7435ZM137.722 52.4272C137.722 52.5569 137.488 52.8165 137.222 53.0761C136.955 53.2708 136.722 53.141 136.722 52.8165C136.722 52.4272 136.955 52.1676 137.222 52.1676C137.488 52.1676 137.722 52.2973 137.722 52.4272L137.722 52.4272ZM134.211 61.8965C134.36 62.4856 134.211 62.6196 133.634 62.4053C133.242 62.2714 133.187 62.1643 133.354 61.8698C133.634 61.361 134.062 61.3877 134.211 61.8965L134.211 61.8965ZM133.173 62.508C133.004 63.0969 132.449 63.2008 132.232 62.7159C132.135 62.4387 132.449 62.1963 133.124 62.0231C133.221 62.0231 133.245 62.2309 133.173 62.508L133.173 62.508ZM132.081 63.023C131.707 63.3461 131.332 63.2249 131.332 62.7807C131.207 62.3365 131.582 62.0942 131.956 62.2557C132.331 62.3769 132.456 62.7403 132.081 63.023L132.081 63.023ZM131.904 62.6337C131.786 63.0917 131.379 63.5328 131.09 63.5328C131.022 63.5328 130.971 63.431 131.005 63.3122C131.022 63.1935 130.819 63.0917 130.496 63.0578C130.191 63.0239 129.937 62.9221 129.937 62.8203C129.937 62.7016 130.225 62.6846 130.768 62.7525C131.514 62.8543 131.616 62.8203 131.718 62.515C131.887 62.0061 132.023 62.1079 131.904 62.6337L131.904 62.6337Z" id="path2343" fill="#D5E2E9" fill-rule="evenodd" stroke="none" />
    <path d="M10.7545 60.225C10.5849 60.3607 10.1439 60.4794 9.8046 60.4794C9.44836 60.4794 9.16 60.5473 9.16 60.6491C9.16 60.7339 9.00732 60.8187 8.80377 60.8187C8.29489 60.8187 8.46451 61.3615 9.05823 61.6329C9.4823 61.8534 9.58408 61.8365 10.0251 61.5142C10.2795 61.3106 10.5849 61.158 10.6697 61.158C10.7715 61.158 10.8054 61.0562 10.7545 60.9205C10.7036 60.7678 10.8054 60.5812 11.009 60.4455C11.3652 60.225 11.4839 59.9706 11.2295 59.9706C11.1447 59.9706 10.9411 60.0893 10.7545 60.225L10.7545 60.225Z" id="path2345" fill="#D5E2E9" stroke="none" />
    <path d="M122.524 85.2793C122.371 85.5168 122.405 87.9595 122.558 88.5362C122.659 88.8585 122.643 88.8755 122.422 88.5871C121.879 87.9256 121.811 88.4684 122.252 89.8424C122.541 90.7245 122.982 91.3521 123.321 91.3521C123.423 91.3521 123.491 91.2164 123.491 91.0637C123.491 90.911 123.542 90.8432 123.609 90.8941C123.66 90.9619 123.626 91.1994 123.491 91.4199C123.253 91.861 123.372 92.4547 123.66 92.285C123.745 92.2342 123.83 92.2681 123.83 92.3529C123.83 92.6413 123.321 92.5734 123.219 92.285C123.151 92.1494 122.999 92.0306 122.863 92.0306C122.693 92.0306 122.761 92.2172 123.117 92.6582C123.389 93.0145 123.745 93.5403 123.898 93.8456C124.254 94.5581 124.508 94.6938 124.78 94.3206C125.068 93.9474 124.916 93.235 124.508 92.8618C124.203 92.5904 124.203 92.5734 124.593 92.3699C125.017 92.1324 125.577 92.302 125.17 92.5395C125 92.6582 125 92.7431 125.187 92.9636C125.408 93.235 125.441 93.235 125.628 92.9636C125.815 92.7091 125.849 92.7091 126.001 92.9975C126.103 93.1671 126.239 93.235 126.307 93.1671C126.391 93.0993 126.34 92.8788 126.222 92.6922C125.832 92.0476 126.137 92.2002 126.917 93.0314C127.63 93.7948 127.748 94.0662 127.358 94.0662C127.29 94.0662 127.24 94.0153 127.256 93.9305C127.307 93.7608 126.832 93.0484 126.68 93.0484C126.442 93.0484 126.544 93.5742 126.798 93.6591C126.968 93.7269 127.053 93.9983 127.053 94.4733C127.053 94.9313 127.104 95.0839 127.206 94.9313C127.324 94.7447 127.426 94.7447 127.748 94.9822C128.342 95.3893 128.444 95.3214 128.139 94.7277C127.986 94.4054 127.935 94.151 128.037 94.0831C128.122 94.0322 128.223 93.7778 128.274 93.5233C128.342 93.1502 128.274 93.0314 127.884 92.8618C127.358 92.6582 127.223 92.3699 127.647 92.3699C127.782 92.3699 127.901 92.4377 127.901 92.5395C127.901 92.7431 128.071 92.76 128.393 92.5565C128.563 92.4377 128.58 92.3359 128.427 92.0476C128.189 91.6405 127.901 91.5726 127.901 91.9458C127.901 92.1833 127.85 92.1833 127.392 91.9458C127.104 91.7931 126.815 91.7253 126.731 91.7762C126.646 91.8101 126.527 91.7422 126.476 91.5896C126.391 91.369 126.222 91.3351 125.628 91.4199C125.051 91.5047 124.865 91.4878 124.797 91.2673C124.695 91.0298 124.882 90.945 125.492 90.9619C125.594 90.9789 125.696 90.928 125.696 90.8771C125.696 90.7075 125.102 90.3513 124.814 90.3343C124.475 90.3343 124.39 90.0968 124.475 89.4522C124.525 89.1469 124.644 88.9773 124.848 88.9773C125.272 88.9773 125.458 87.5524 125.085 86.9926C124.949 86.7721 124.814 86.2802 124.814 85.907C124.814 85.2454 124.797 85.2454 124.254 85.3472C123.932 85.3981 123.66 85.3642 123.592 85.2624C123.423 85.0079 122.693 85.0249 122.524 85.2793L122.524 85.2793Z" id="path2347" fill="#D5E2E9" stroke="none" />
    <path d="M128.41 94.2528C128.41 94.4224 128.631 94.7277 128.902 94.9313C129.19 95.1349 129.36 95.3893 129.309 95.542C129.241 95.7286 129.173 95.7116 129.004 95.4741C128.681 95.05 128.546 95.2875 128.664 96C128.732 96.3562 128.885 96.6106 129.021 96.6106C129.173 96.6106 129.258 96.7972 129.258 97.1026C129.258 97.4757 129.377 97.6284 129.733 97.7811C130.005 97.8998 130.225 98.0694 130.225 98.1882C130.225 98.3069 130.276 98.5614 130.344 98.748C130.429 99.0533 130.395 99.1042 130.021 99.1042C129.784 99.1042 129.597 99.0533 129.597 98.9685C129.597 98.8837 129.53 98.8158 129.428 98.8158C129.343 98.8158 129.309 99.0363 129.377 99.3586C129.462 99.7488 129.428 99.8506 129.275 99.7657C129.139 99.6809 129.038 99.7657 128.97 99.9863C128.851 100.427 128.783 100.427 128.41 99.9693C128.156 99.6301 128.054 99.6131 127.664 99.7997C127.426 99.9015 127.223 100.105 127.223 100.258C127.223 100.41 127.07 100.512 126.799 100.512C126.561 100.512 126.341 100.614 126.307 100.716C126.273 100.834 126.188 101.174 126.086 101.445C126.001 101.733 125.95 102.056 126.001 102.174C126.103 102.48 126.544 102.412 126.544 102.073C126.544 101.92 126.663 101.632 126.799 101.462C127.053 101.14 127.053 101.14 127.053 101.496C127.053 101.886 127.29 102.005 127.477 101.7C127.528 101.615 127.681 101.581 127.816 101.649C127.986 101.7 128.071 101.615 128.071 101.377C128.071 101.072 128.122 101.038 128.393 101.191C128.664 101.326 128.732 101.53 128.715 102.242C128.698 103.006 128.749 103.158 129.173 103.498C129.445 103.718 129.818 103.905 130.021 103.939C130.225 103.973 130.378 104.142 130.412 104.38C130.479 104.787 130.853 104.804 130.887 104.397C130.887 104.261 130.954 104.023 131.022 103.854C131.107 103.667 131.073 103.362 130.938 103.09C130.632 102.48 130.649 102.327 131.005 102.276C131.175 102.259 131.294 102.344 131.294 102.531C131.294 102.683 131.412 102.972 131.548 103.158C131.769 103.464 131.786 103.447 131.803 102.853C131.803 102.514 131.887 102.174 131.972 102.124C132.074 102.073 132.142 101.869 132.142 101.666C132.142 101.038 131.412 98.6462 131.26 98.748C131.158 98.8158 131.158 98.5783 131.226 98.2052C131.328 97.6454 131.311 97.5945 131.039 97.6793C130.836 97.7641 130.734 97.6963 130.666 97.4588C130.564 97.0686 130.276 97.0008 130.276 97.374C130.276 97.5097 130.157 97.6284 130.005 97.6284C129.801 97.6284 129.767 97.5606 129.903 97.4079C129.988 97.2892 130.005 97.0517 129.92 96.8651C129.699 96.3053 129.75 96.2374 130.276 96.3053L130.768 96.3732L130.446 95.8473C130.259 95.542 130.106 95.1179 130.106 94.8974C130.106 94.2528 129.835 93.9983 129.105 93.9644C128.529 93.9305 128.41 93.9814 128.41 94.2528L128.41 94.2528Z" id="path2349" fill="#D5E2E9" stroke="none" />
    <path d="M125.357 95.067C125.357 95.1688 125.441 95.2875 125.526 95.3384C125.645 95.4062 125.679 95.8473 125.645 96.3731C125.577 97.3231 125.645 97.4418 126.018 97.0686C126.188 96.916 126.273 96.916 126.324 97.0686C126.358 97.1874 126.51 97.2213 126.646 97.1704C127.002 97.0347 126.934 97.5097 126.544 97.8489C126.256 98.0864 126.239 98.1882 126.408 98.4766C126.527 98.6631 126.714 98.8158 126.816 98.8158C126.934 98.8158 127.053 98.9345 127.121 99.0703C127.273 99.4943 127.528 99.3586 127.732 98.731C127.833 98.4087 128.003 98.1373 128.088 98.1373C128.19 98.1373 128.206 98.2051 128.156 98.3069C128.037 98.4935 128.563 98.5274 128.987 98.3748C129.394 98.2221 129.309 97.7132 128.834 97.4588C128.495 97.2722 128.41 97.1025 128.41 96.5767C128.41 96.0508 128.359 95.9321 128.071 95.9321C127.884 95.9321 127.732 96 127.732 96.1017C127.732 96.1865 127.596 96.2714 127.409 96.2714C127.172 96.2714 127.121 96.1696 127.189 95.8473C127.257 95.4911 127.189 95.4232 126.866 95.4232C126.646 95.4062 126.273 95.3045 126.035 95.1688C125.526 94.8804 125.357 94.8634 125.357 95.067L125.357 95.067ZM128.689 97.1186C128.314 97.4417 127.939 97.3205 127.939 96.8764C127.815 96.4321 128.189 96.1898 128.564 96.3514C128.938 96.4725 129.063 96.836 128.689 97.1186L128.689 97.1186ZM128.562 98.2443C128.562 98.3836 128.312 98.3279 128.062 98.105C127.812 97.8821 127.562 97.5478 127.562 97.4085C127.562 97.2413 127.812 97.3249 128.062 97.5478C128.312 97.7707 128.562 98.0771 128.562 98.2443L128.562 98.2443ZM128.858 98.3061C128.483 98.6291 128.109 98.5079 128.109 98.0638C127.984 97.6195 128.359 97.3773 128.733 97.5388C129.108 97.6599 129.233 98.0234 128.858 98.3061L128.858 98.3061ZM128.18 98.6453C127.805 98.9684 127.43 98.8472 127.43 98.403C127.305 97.9588 127.68 97.7165 128.055 97.878C128.429 97.9992 128.554 98.3626 128.18 98.6453L128.18 98.6453Z" id="path2351" fill="#D5E2E9" fill-rule="evenodd" stroke="none" />
    <path d="M122.202 96.2714C122.134 96.5937 121.947 97.0686 121.76 97.3231C121.574 97.5945 121.489 97.8829 121.54 97.9677C121.608 98.0694 121.591 98.1203 121.506 98.1034C121.302 98.0355 119.979 99.3926 119.844 99.8166C119.776 100.037 119.81 100.292 119.911 100.393C120.047 100.529 120.098 100.529 120.098 100.393C120.098 100.309 120.488 99.8336 120.946 99.3586C121.421 98.8837 121.794 98.4257 121.794 98.3239C121.794 98.0525 122.524 97.34 122.88 97.2722C123.338 97.1874 123.406 96.8481 122.982 96.7294C122.744 96.6785 122.643 96.5088 122.643 96.1865C122.643 95.9321 122.71 95.7794 122.812 95.8473C122.914 95.8982 122.982 95.8812 122.982 95.7794C122.982 95.6946 122.829 95.6268 122.643 95.6437C122.405 95.6607 122.269 95.8303 122.202 96.2714L122.202 96.2714Z" id="path2353" fill="#D5E2E9" stroke="none" />
    <path d="M71.4821 98.1712C71.4143 98.273 71.4482 98.4087 71.55 98.4426C71.6687 98.4765 71.7535 98.6462 71.7535 98.8328C71.7535 99.0363 71.6687 99.1042 71.4991 99.0533C71.3634 98.9854 71.2446 99.0363 71.2446 99.1381C71.2446 99.2399 71.3294 99.3247 71.4143 99.3247C71.6348 99.3247 71.6348 100.054 71.4312 100.258C71.2955 100.41 71.6009 102.734 71.8383 103.362C71.991 103.752 72.6526 103.888 73.1954 103.616C74.0775 103.175 74.298 102.887 74.298 102.158C74.298 101.462 73.6194 99.8506 73.1784 99.4774C73.0427 99.3756 72.9409 99.189 72.9409 99.0872C72.9409 98.8328 72.0589 97.9677 71.8044 97.9677C71.6857 97.9677 71.55 98.0525 71.4821 98.1712L71.4821 98.1712Z" id="path2355" fill="#D5E2E9" stroke="none" />
    <path d="M119.64 101.666C119.555 101.733 119.368 102.073 119.233 102.412C119.114 102.768 118.944 103.057 118.86 103.057C118.792 103.057 118.639 103.277 118.554 103.548C118.453 103.82 118.181 104.176 117.961 104.329C117.621 104.549 117.57 104.651 117.74 104.855C117.893 105.058 117.859 105.092 117.486 105.092C117.231 105.092 116.909 105.211 116.773 105.347C116.621 105.482 116.366 105.601 116.179 105.601C115.959 105.601 115.857 105.72 115.857 105.957C115.857 106.161 115.552 106.687 115.179 107.128C114.619 107.806 114.381 107.959 113.737 108.044C113.33 108.112 112.94 108.23 112.889 108.332C112.821 108.417 112.702 108.451 112.617 108.4C112.482 108.315 112.38 108.943 112.448 109.384C112.465 109.452 112.397 109.672 112.295 109.859C112.142 110.13 112.057 110.164 111.735 109.977C111.532 109.859 111.226 109.791 111.057 109.825C110.904 109.842 110.717 109.74 110.667 109.604C110.514 109.231 110.039 109.536 109.717 110.198C109.428 110.758 109.445 111.385 109.717 112.844C109.954 114.049 110.175 114.405 110.599 114.303C110.887 114.218 110.938 114.286 110.921 114.778C110.921 115.1 110.972 115.711 111.023 116.152C111.158 117 111.141 116.983 112.431 116.966C113.024 116.966 113.143 117.017 113.143 117.289C113.143 117.679 113.414 117.899 113.567 117.645C113.635 117.543 113.805 117.509 113.974 117.56C114.144 117.611 114.432 117.492 114.636 117.305C114.839 117.102 115.009 117.034 115.009 117.136C115.009 117.221 115.128 117.305 115.263 117.305C115.399 117.305 115.518 117.39 115.518 117.492C115.518 117.611 115.671 117.645 115.874 117.594C116.434 117.441 116.705 117.645 116.705 118.171C116.705 118.764 116.807 118.781 117.74 118.238L118.486 117.831L118.69 118.205C118.877 118.578 118.894 118.578 119.08 118.086C119.182 117.814 119.216 117.458 119.165 117.289C119.097 117.119 119.199 116.695 119.352 116.339C119.555 115.931 119.589 115.694 119.47 115.66C119.148 115.541 119.436 114.863 120.047 114.286C120.369 113.998 120.692 113.743 120.793 113.743C120.878 113.743 120.912 113.37 120.844 112.844C120.726 111.708 120.997 111.284 121.845 111.334C122.761 111.402 122.812 111.063 121.981 110.334C121.404 109.842 121.268 109.638 121.37 109.35C121.438 109.112 121.353 108.824 121.133 108.502C120.827 108.078 120.793 107.942 120.98 107.552C121.116 107.229 121.116 107.06 120.98 106.924C120.743 106.687 121.065 106.347 121.692 106.178C122.303 106.025 122.405 105.805 121.879 105.669C121.37 105.55 121.319 105.262 121.811 105.262C122.235 105.262 122.812 104.973 122.812 104.736C122.812 104.651 122.642 104.498 122.439 104.414C121.947 104.193 121.404 103.854 121.268 103.684C121.217 103.616 121.065 103.565 120.929 103.599C120.776 103.633 120.709 103.532 120.743 103.311C120.759 103.107 120.607 102.802 120.352 102.582C120.132 102.378 119.979 102.107 120.03 101.971C120.132 101.683 119.911 101.496 119.64 101.666L119.64 101.666Z" id="path2357" fill="#D5E2E9" stroke="none" />
    <path d="M91.6851 104.244C91.3458 104.787 91.8716 105.533 93.8563 107.399C94.433 107.942 94.8232 108.468 94.8232 108.705C94.8232 108.824 95.1625 109.163 95.5865 109.469C96.0106 109.757 96.3329 110.062 96.3159 110.13C96.2311 110.486 96.8927 112.2 97.1641 112.301C97.6391 112.454 98.8943 114.71 98.9961 115.558C99.03 115.965 99.5389 116.712 100.302 117.475C100.557 117.73 100.76 118.001 100.76 118.086C100.76 118.154 101.439 118.883 102.27 119.697C103.763 121.173 103.797 121.19 104.322 121.003C104.747 120.868 104.916 120.868 105.103 121.071C105.306 121.275 105.323 121.411 105.154 121.767C104.933 122.242 104.662 122.377 104.662 122.021C104.662 121.767 104.441 122.004 104.39 122.31C104.356 122.496 104.526 122.564 105.001 122.564C105.578 122.564 106.188 122.937 106.053 123.226C106.036 123.276 106.29 123.378 106.646 123.463C107.003 123.531 107.444 123.65 107.63 123.734C108.224 124.006 108.529 124.074 108.631 123.955C108.835 123.751 110.158 123.955 110.785 124.26C111.43 124.6 113.974 124.99 114.415 124.837C114.551 124.769 114.67 124.82 114.67 124.939C114.67 125.041 114.772 125.108 114.89 125.058C114.992 125.024 115.331 125.091 115.637 125.227C116.383 125.533 116.57 125.516 116.451 125.125C116.366 124.854 116.417 124.82 116.705 124.888C116.909 124.939 117.045 125.125 117.045 125.346C117.062 125.702 117.062 125.702 117.299 125.38C117.435 125.193 117.554 125.125 117.554 125.244C117.554 125.346 117.842 125.482 118.198 125.533C118.537 125.6 118.995 125.702 119.182 125.787C119.42 125.872 119.861 125.855 120.369 125.702C120.827 125.583 121.099 125.465 120.963 125.465C120.827 125.448 120.777 125.397 120.827 125.346C120.895 125.278 121.031 125.295 121.15 125.397C121.489 125.651 122.083 125.617 122.32 125.346C122.473 125.159 122.575 125.159 122.744 125.295C123.134 125.617 125.509 125.634 126.544 125.329C127.053 125.176 127.579 125.075 127.698 125.091C127.833 125.108 128.02 125.058 128.139 124.956C128.24 124.871 128.444 124.854 128.563 124.922C128.783 125.058 129.869 124.905 130.055 124.701C130.327 124.43 129.886 124.379 128.325 124.481C127.867 124.515 127.426 124.447 127.341 124.362C127.256 124.243 127.087 124.345 126.866 124.65C126.68 124.905 126.442 125.058 126.34 125.007C126.12 124.871 125.136 124.735 124.118 124.701C123.559 124.701 123.253 124.769 123.151 124.939C123.033 125.125 122.982 125.142 122.982 124.973C122.982 124.82 122.863 124.786 122.659 124.854C122.473 124.905 122.286 124.871 122.218 124.769C122.168 124.684 122.201 124.6 122.303 124.6C122.405 124.6 122.439 124.515 122.371 124.413C122.286 124.277 122.235 124.277 122.151 124.413C122.015 124.617 121.387 124.583 121.184 124.379C120.963 124.159 120.251 124.26 120.149 124.532C120.098 124.667 119.962 124.752 119.827 124.701C119.708 124.65 119.589 124.701 119.538 124.82C119.504 124.956 119.386 124.922 119.182 124.718C118.809 124.345 118.537 124.413 118.317 124.905C118.232 125.108 118.063 125.278 117.944 125.278C117.672 125.278 117.655 125.007 117.91 124.854C118.164 124.684 117.435 124.209 117.13 124.328C116.773 124.464 116.366 124.277 116.366 123.989C116.366 123.734 116.332 123.718 115.179 123.684C114.619 123.667 114.415 123.599 114.365 123.378C114.331 123.158 114.398 123.107 114.653 123.158C115.128 123.243 116.061 122.92 115.976 122.683C115.942 122.581 115.45 122.53 114.721 122.547C113.907 122.581 113.347 122.496 113.008 122.327C112.736 122.191 112.465 122.123 112.397 122.174C112.346 122.242 112.193 122.14 112.058 121.97C111.837 121.665 111.82 121.682 111.549 122.106C111.328 122.428 111.142 122.53 110.802 122.479C110.548 122.462 110.039 122.428 109.666 122.411C109.14 122.394 108.936 122.31 108.818 122.021C108.716 121.818 108.478 121.631 108.258 121.597C108.037 121.563 107.63 121.427 107.325 121.275C107.003 121.088 106.782 121.054 106.731 121.173C106.697 121.292 106.494 121.292 106.154 121.19C105.866 121.122 105.561 121.088 105.476 121.139C105.391 121.207 105.357 121.003 105.425 120.664C105.476 120.359 105.544 119.528 105.595 118.832C105.68 117.102 105.798 116.763 106.205 116.983C106.579 117.17 107.206 116.915 107.206 116.576C107.206 116.44 107.155 116.44 107.054 116.61C106.952 116.763 106.867 116.78 106.799 116.644C106.731 116.542 106.714 116.389 106.765 116.305C106.816 116.22 106.714 116.118 106.528 116.067C106.188 115.982 106.121 115.881 105.951 115.049C105.815 114.49 105.493 114.473 104.933 114.982C104.475 115.406 104.509 115.609 105.035 115.609C105.205 115.609 105.34 115.694 105.34 115.796C105.34 115.915 105.188 115.948 104.967 115.881C104.747 115.83 104.526 115.779 104.458 115.779C104.373 115.779 104.322 115.694 104.322 115.592C104.322 115.49 104.204 115.304 104.068 115.168C103.932 115.015 103.814 114.676 103.814 114.405C103.814 113.998 103.746 113.913 103.423 113.913C103.203 113.913 102.881 113.811 102.711 113.675C102.423 113.472 102.406 113.404 102.626 113.15C102.965 112.742 103.016 112.132 102.728 111.894C102.592 111.776 102.524 111.555 102.575 111.419C102.66 111.216 102.609 111.165 102.406 111.25C102.219 111.318 102.117 111.267 102.117 111.114C102.117 110.978 101.931 110.826 101.693 110.758C101.456 110.707 101.269 110.554 101.269 110.419C101.269 110.198 101.184 110.147 100.591 110.113C100.455 110.096 100.336 109.944 100.336 109.757C100.336 109.553 100.2 109.401 99.9969 109.367C99.8103 109.333 99.5728 109.231 99.4711 109.146C99.3863 109.078 99.1488 109.045 98.9452 109.095C98.6908 109.163 98.5551 109.095 98.4702 108.841C98.4194 108.637 98.2837 108.485 98.1989 108.485C98.114 108.485 98.0462 108.4 98.0462 108.298C98.0462 108.078 97.7917 107.823 97.0284 107.297C96.7061 107.077 96.3329 106.788 96.2142 106.67C96.0954 106.551 95.9088 106.449 95.824 106.449C95.7392 106.449 95.6714 106.33 95.6714 106.195C95.6714 106.042 95.5865 105.838 95.5017 105.72C95.3999 105.601 95.1794 105.33 94.9928 105.109C94.7214 104.787 94.5009 104.719 93.8224 104.719C93.2287 104.719 92.8555 104.617 92.601 104.397C92.1939 104.04 91.8377 103.99 91.6851 104.244L91.6851 104.244ZM121.437 125.587C121.437 125.717 121.204 125.847 120.937 125.847C120.671 125.847 120.437 125.587 120.437 125.198C120.437 124.874 120.671 124.744 120.937 124.939C121.204 125.198 121.437 125.458 121.437 125.587L121.437 125.587Z" id="path2359" fill="#D5E2E9" fill-rule="evenodd" stroke="none" />
    <path d="M62.4238 106.771C62.4238 107.06 62.4917 107.314 62.5935 107.382C62.6783 107.433 62.7122 107.586 62.6613 107.704C62.6104 107.84 62.6443 107.993 62.7462 108.061C62.8479 108.112 62.9327 108.264 62.9327 108.366C62.9327 108.485 62.8649 108.468 62.7462 108.315C62.5935 108.112 62.5765 108.112 62.6613 108.366C62.7122 108.536 62.7631 108.824 62.7631 109.011C62.7631 109.401 63.1533 109.435 63.4416 109.061C63.6282 108.841 63.6113 108.79 63.3059 108.705C63.1024 108.654 62.9836 108.536 63.0345 108.451C63.2041 108.179 62.9327 107.111 62.7292 107.229C62.6104 107.314 62.5765 107.162 62.6274 106.805C62.6613 106.517 62.6443 106.28 62.5595 106.28C62.4917 106.28 62.4238 106.5 62.4238 106.771L62.4238 106.771ZM63.9327 109.324C63.9327 109.574 63.7327 109.824 63.4327 109.824C63.1827 109.824 62.9327 109.574 62.9327 109.324C62.9327 109.024 63.1827 108.824 63.4327 108.824C63.7327 108.824 63.9327 109.024 63.9327 109.324L63.9327 109.324Z" id="path2361" fill="#D5E2E9" fill-rule="evenodd" stroke="none" />
    <path d="M133.838 109.604C133.702 109.842 133.601 110.334 133.584 110.707C133.584 111.063 133.516 111.368 133.414 111.368C133.329 111.368 133.363 111.453 133.499 111.555C133.668 111.674 133.685 111.759 133.567 111.809C133.448 111.86 133.414 112.064 133.465 112.251C133.55 112.607 133.567 112.607 133.685 112.284C133.787 112.013 133.821 112.047 133.821 112.454C133.838 112.861 133.787 112.912 133.499 112.844C133.092 112.742 132.922 112.946 133.075 113.387C133.193 113.811 134.177 113.981 134.177 113.591C134.194 113.37 134.211 113.37 134.364 113.625C134.703 114.201 134.805 113.743 134.5 113.099C134.059 112.217 134.194 111.843 134.873 112.081C135.551 112.318 135.636 112.183 135.127 111.691C134.72 111.301 134.72 111.284 135.042 111.063C135.348 110.843 135.5 110.011 135.229 110.011C135.161 110.011 134.924 110.13 134.72 110.283C134.347 110.537 134.347 110.52 134.347 109.859C134.347 109.061 134.16 108.977 133.838 109.604L133.838 109.604Z" id="path2363" fill="#D5E2E9" stroke="none" />
    <path d="M129.699 110.52C129.309 110.927 128.936 111.182 128.766 111.131C128.613 111.08 127.901 110.995 127.189 110.927C126.459 110.876 125.865 110.758 125.865 110.69C125.865 110.52 125.255 110.368 125.068 110.503C124.983 110.554 124.865 110.741 124.797 110.91C124.729 111.08 124.593 111.165 124.508 111.114C124.271 110.961 123.66 111.657 123.66 112.081C123.66 112.251 123.592 112.386 123.525 112.386C123.44 112.386 123.406 112.607 123.457 112.878C123.491 113.167 123.406 113.54 123.253 113.777C123.1 113.981 122.982 114.405 122.982 114.693C122.982 115.27 122.541 116.288 122.286 116.288C122.201 116.288 122.151 116.491 122.201 116.746C122.235 117.017 122.286 117.339 122.286 117.492C122.303 117.679 122.422 117.747 122.693 117.696C123.033 117.628 123.084 117.696 123.117 118.255C123.151 118.612 123.084 119.273 122.965 119.731C122.727 120.715 122.863 120.902 123.677 120.766C124.22 120.664 124.271 120.613 124.288 120.053C124.322 117.39 124.424 116.627 124.729 116.525C125.187 116.373 125.289 116.576 125.051 117.17C124.865 117.662 124.899 117.747 125.34 118.137C125.696 118.476 125.781 118.663 125.696 118.917C125.56 119.273 125.781 119.68 126.103 119.68C126.205 119.68 126.425 119.528 126.595 119.341C126.748 119.154 126.968 119.002 127.07 119.002C127.206 119.002 127.189 119.104 127.019 119.29C126.595 119.782 126.544 120.308 126.9 120.63C127.206 120.902 127.239 120.902 127.562 120.613C127.765 120.427 127.867 120.189 127.816 120.003C127.765 119.85 127.782 119.663 127.85 119.629C127.918 119.579 127.986 119.256 127.986 118.883C127.969 118.357 127.918 118.255 127.664 118.289C127.29 118.357 126.9 117.865 127.002 117.458C127.053 117.289 126.849 116.763 126.561 116.271C126.137 115.592 126.069 115.355 126.222 115.168C126.323 115.032 126.527 114.931 126.646 114.931C126.764 114.931 127.053 114.693 127.256 114.405C127.545 114.015 127.731 113.913 128.02 113.998C128.325 114.066 128.41 114.015 128.41 113.743C128.41 113.285 127.986 113.133 127.46 113.404C127.239 113.523 126.781 113.641 126.442 113.641C126.018 113.658 125.73 113.794 125.509 114.066C125.204 114.439 124.678 114.456 124.678 114.083C124.678 113.998 124.525 113.76 124.322 113.557C124.05 113.285 123.983 113.082 124.067 112.675C124.237 111.809 124.39 111.759 126.544 111.911C129.428 112.098 129.937 112.081 129.937 111.691C129.937 111.589 130.123 111.267 130.361 110.961C130.615 110.622 130.751 110.283 130.683 110.113C130.53 109.723 130.445 109.757 129.699 110.52L129.699 110.52Z" id="path2365" fill="#D5E2E9" stroke="none" />
    <path d="M134.941 116.593C134.669 116.627 134.381 116.746 134.313 116.847C134.211 117 134.177 117 134.177 116.847C134.177 116.695 134.058 116.729 133.838 116.915C133.431 117.255 133.397 117.56 133.753 117.407C133.94 117.339 134.008 117.424 134.008 117.713C134.008 118.103 134.042 118.12 134.601 117.933C134.924 117.831 135.195 117.645 135.195 117.526C135.195 117.339 135.263 117.339 135.534 117.475C135.738 117.577 136.026 117.611 136.196 117.56C136.382 117.509 136.773 117.611 137.095 117.814C137.807 118.255 137.909 118.238 137.909 117.763C137.909 116.898 136.637 116.406 134.941 116.593L134.941 116.593Z" id="path2367" fill="#D5E2E9" stroke="none" />
    <path d="M132.294 124.667C132.26 124.701 131.769 124.786 131.209 124.854C130.496 124.922 130.106 125.058 129.937 125.278C129.801 125.465 129.326 125.753 128.885 125.957C128.393 126.177 128.054 126.449 127.969 126.686C127.918 126.89 127.748 127.178 127.613 127.348C127.426 127.551 127.426 127.653 127.562 127.738C127.918 127.958 129.038 127.449 129.648 126.822C129.987 126.465 130.564 126.092 130.988 125.957C131.938 125.651 133.024 124.973 132.905 124.769C132.803 124.6 132.43 124.549 132.294 124.667L132.294 124.667Z" id="path2369" fill="#D5E2E9" stroke="none" />
  </g>
</svg>