<?xml version="1.0" encoding="utf-8"?>
<svg width="53.547607px" height="63.49315px" viewBox="0 0 53.547607 63.49315" version="1.1" xmlns:xlink="http://www.w3.org/1999/xlink" xmlns="http://www.w3.org/2000/svg">
  <g id="australia">
    <path d="M29.3335 0.307487C29.0112 0.49408 28.6549 0.7146 28.5362 0.799416C28.4005 0.91816 28.2987 0.91816 28.2309 0.816383C28.1121 0.629784 27.4675 0.578896 27.4675 0.748528C27.4675 1.0369 28.2139 1.83416 28.4853 1.83416C28.9603 1.83416 29.3335 2.02075 29.3335 2.25823C29.3335 2.75016 29.9102 2.98764 30.911 2.91979C31.6235 2.8689 31.8779 2.88586 31.7931 3.02157C31.7253 3.14031 31.5047 3.17424 31.2842 3.12334C31.0467 3.0555 30.8092 3.12334 30.6905 3.27602C30.5717 3.42868 30.3343 3.49654 30.1816 3.44565C29.8423 3.34386 29.3335 3.49654 29.3335 3.71706C29.3335 3.80186 29.5201 3.95454 29.7575 4.03935C29.995 4.12417 30.1816 4.31076 30.1816 4.46343C30.1816 4.59913 30.2664 4.71787 30.3682 4.71787C30.453 4.71787 30.4869 4.80269 30.4361 4.8875C30.2834 5.14195 30.5209 5.75261 30.7075 5.63387C30.8092 5.58298 30.9958 5.63387 31.1315 5.75261C31.2672 5.85439 31.4369 5.90528 31.4878 5.83743C31.5556 5.76958 31.5217 5.6678 31.4199 5.59995C31.3012 5.51513 31.2672 5.37943 31.369 5.24372C31.4878 5.04017 31.6065 5.05713 32.1324 5.29461C32.4716 5.46424 32.8957 5.71869 33.0653 5.85439C33.235 6.00706 33.6081 6.15972 33.8795 6.17669C34.5411 6.26151 37.0516 7.46587 37.0347 7.68639C37.0177 7.77121 37.1195 8.00868 37.2382 8.19528C37.3739 8.38188 37.4757 8.65327 37.4757 8.82292C37.4757 8.99254 37.5266 9.12825 37.6114 9.12825C37.6793 9.12825 37.7301 9.39966 37.7471 9.72195C37.7471 10.1799 37.6962 10.3157 37.4587 10.3157C37.1364 10.3157 36.2883 11.4013 36.2883 11.8084C36.2883 12.0459 37.815 12.0459 38.0016 11.7914C38.0524 11.7236 38.3578 11.6218 38.6801 11.5879C39.2229 11.52 39.3247 11.5709 39.9014 12.3343C40.5291 13.1485 40.546 13.1655 41.462 13.1655C41.9879 13.1485 42.4459 13.1994 42.5137 13.2503C42.5646 13.3181 42.7512 13.2842 42.9208 13.1994C43.1753 13.0637 43.2092 13.0806 43.1583 13.369C43.1244 13.5556 43.0396 13.7931 42.9887 13.8779C42.9378 13.9797 42.9547 14.0475 43.0396 14.0475C43.2431 14.0475 43.4128 13.6404 43.4128 13.1824C43.4128 13.0128 43.4976 12.8601 43.5824 12.8601C43.6841 12.8601 43.752 12.7414 43.752 12.5887C43.752 12.453 43.8199 12.3682 43.9047 12.4191C43.9895 12.47 44.0573 12.3343 44.0573 12.1137C44.0573 11.4352 45.2957 10.5531 45.6858 10.9603C45.7536 11.0281 46.0929 11.1638 46.4322 11.2486C46.8054 11.3504 47.1277 11.5709 47.2294 11.8084C47.3142 12.012 47.45 12.1816 47.5178 12.1816C47.6026 12.1816 47.6535 12.3173 47.6535 12.5039C47.6535 12.6735 47.7722 12.911 47.908 13.0297C48.0436 13.1485 48.1115 13.3011 48.0606 13.386C48.0097 13.4708 48.0945 13.5386 48.2303 13.5386C48.3829 13.5386 48.5356 13.7252 48.6034 13.9457C48.6713 14.2511 48.8918 14.4037 49.4855 14.5734C49.9265 14.6921 50.5202 14.7769 50.7917 14.76C51.08 14.76 51.4702 14.8617 51.6737 14.9975C52.1148 15.2688 53.3531 15.3197 53.5057 15.0653C53.5736 14.9635 53.5566 14.8957 53.4718 14.9126C53.404 14.9296 53.2174 14.9296 53.0817 14.9126C52.8781 14.8957 52.8781 14.8617 53.0477 14.76C53.2004 14.6582 53.0477 14.5394 52.5728 14.3868C51.9621 14.1832 51.6398 13.8779 52.0639 13.8779C52.454 13.8779 52.1996 13.5556 51.7755 13.5047C51.3853 13.4708 51.3175 13.386 51.3514 13.0467C51.4023 12.6735 51.3684 12.6566 50.9104 12.7414C50.4524 12.8432 50.4015 12.7923 50.181 12.1307C50.0453 11.7406 49.6551 11.1469 49.3159 10.8076C48.9597 10.4683 48.6713 10.0273 48.6713 9.8407C48.6713 9.53535 48.7731 9.46751 49.265 9.46751C49.723 9.46751 49.8587 9.39966 49.8587 9.16219C49.8587 8.80595 49.2989 8.2292 48.9088 8.17833C48.7561 8.16136 48.5186 8.02565 48.3659 7.88995C48.1963 7.75426 47.874 7.60158 47.6365 7.53373C47.2633 7.44891 47.2125 7.3641 47.2803 7.00787C47.3142 6.77039 47.416 6.5838 47.5008 6.5838C47.5857 6.5838 47.6535 6.46506 47.6535 6.31239C47.6535 6.07491 47.6026 6.07491 47.399 6.24454C47.1785 6.43113 47.0768 6.39721 46.8054 6.10883C46.6187 5.90528 46.4661 5.6678 46.4661 5.56602C46.4661 5.46424 46.3982 5.41335 46.3134 5.48121C46.2286 5.5321 46.042 5.44728 45.9063 5.31158C45.7536 5.17587 45.4992 5.05713 45.3126 5.05713C45.126 5.05713 44.8885 4.93839 44.7698 4.80269C44.668 4.66698 44.1422 4.44646 43.6163 4.29379C43.0735 4.14113 42.3441 3.83579 41.9709 3.63224C41.5977 3.41172 41.1906 3.27602 41.0888 3.30994C40.9701 3.36083 40.8683 3.30994 40.8683 3.22513C40.8683 3.14031 40.546 3.02157 40.1728 2.95372C39.7827 2.88586 38.9515 2.56357 38.3239 2.22431C37.2552 1.66453 37.1364 1.63061 36.6615 1.85112C36.3731 1.96986 36.1017 2.20734 36.0678 2.37698C36.0169 2.56357 35.8133 2.68231 35.5419 2.68231C35.3044 2.68231 35.1009 2.75016 35.1009 2.81802C35.1009 2.90283 34.9652 3.12334 34.8125 3.3269C34.6429 3.5135 34.3884 3.83579 34.2527 4.02238C34.117 4.22594 33.8456 4.37861 33.6421 4.37861C33.3537 4.37861 33.235 4.22594 33.0653 3.56438C32.9466 3.12334 32.8109 2.8689 32.7769 2.98764C32.6582 3.29298 32.3868 3.0555 32.3868 2.63142C32.3868 2.32609 32.4207 2.29216 32.5734 2.51268C32.7261 2.71624 32.743 2.69927 32.6412 2.42786C32.5734 2.24127 32.5056 1.80023 32.4716 1.44401C32.3868 0.663712 32.2511 0.426231 31.9627 0.544975C31.844 0.578896 31.4708 0.477119 31.1315 0.290527C30.3852 -0.0996246 30.0968 -0.0996246 29.3335 0.307487L29.3335 0.307487Z" id="path2372" fill="#D5E2E9" stroke="none" />
    <path d="M41.92 15.4385C41.8352 15.5572 41.6995 15.8456 41.6317 16.0831C41.5638 16.3206 41.3603 16.7616 41.1567 17.0669C40.9701 17.3892 40.8005 17.949 40.7665 18.3222C40.7326 18.6954 40.6309 19.1025 40.5291 19.2212C40.4442 19.34 40.3255 19.9167 40.2746 20.5104C40.1729 21.7996 39.5961 23.6655 39.1551 24.1575C38.9685 24.3441 38.8328 24.5815 38.8328 24.6833C38.8328 25.0226 38.3069 25.4127 37.8828 25.4127C37.6114 25.4127 37.2213 25.1583 36.7972 24.7342C36.424 24.361 35.983 24.0557 35.8134 24.0557C35.6437 24.0557 35.3893 23.8691 35.2705 23.6316C35.1518 23.3941 34.9482 23.2075 34.8295 23.2075C34.6938 23.2075 34.5581 23.021 34.4902 22.7835C34.3715 22.3255 34.0831 22.2067 34.0831 22.6138C34.0831 22.7835 33.7778 22.5799 33.252 22.088L32.4207 21.2907L32.76 20.9345C32.9466 20.7309 33.1671 20.4086 33.252 20.1881C33.3368 19.9676 33.4894 19.8489 33.5912 19.8998C33.693 19.9676 33.7269 20.1203 33.676 20.239C33.5912 20.4595 34.2019 20.714 34.4563 20.5613C34.592 20.4765 34.5242 19.6792 34.3546 19.5096C34.3036 19.4587 34.151 19.5266 33.9983 19.6453C33.7778 19.8319 33.7439 19.798 33.7439 19.4078C33.7439 19.1703 33.8287 18.9837 33.9305 19.0007C34.0322 19.0347 34.3036 18.7123 34.5411 18.2883C34.8804 17.6606 34.8974 17.508 34.7108 17.3553C34.575 17.2705 34.5072 17.0839 34.5411 16.9652C34.592 16.8634 34.5411 16.7616 34.4394 16.7616C34.3376 16.7616 34.2527 16.8295 34.2527 16.9143C34.2527 16.9991 34.1001 17.1009 33.8965 17.1517C33.6421 17.2196 33.5743 17.1857 33.6421 16.9991C33.7608 16.6768 33.6421 16.6937 33.0653 17.1348C32.6752 17.4232 32.5056 17.4571 32.3529 17.3044C32.2342 17.1857 31.9797 17.1009 31.7762 17.1009C31.5556 17.1009 31.2842 16.9991 31.1655 16.8803C31.0468 16.7446 30.8432 16.6768 30.7245 16.7277C30.6227 16.7616 30.5209 16.6429 30.5209 16.4732C30.5209 16.2188 30.487 16.2018 30.3513 16.4223C30.1986 16.6429 30.1477 16.6429 29.9951 16.3714C29.8933 16.2188 29.7576 16.117 29.6558 16.1679C29.571 16.2357 29.5031 16.117 29.5031 15.9304C29.5031 15.6251 29.4522 15.6081 29.079 15.7438C28.8416 15.8286 28.655 15.8456 28.655 15.7947C28.655 15.7269 28.5702 15.7608 28.4514 15.8795C28.2139 16.117 28.5702 16.6089 28.8925 16.4902C29.2148 16.3714 29.3844 16.9143 29.1299 17.2196C28.9773 17.4232 28.6889 17.4571 28.0273 17.3892C27.5185 17.3383 27.1283 17.3723 27.1283 17.4571C27.1283 17.5419 27.0435 17.6098 26.9247 17.6098C26.6194 17.6098 25.7882 18.6275 25.873 18.882C25.9239 19.0177 25.8052 19.1873 25.6186 19.306C25.415 19.4078 25.2624 19.5775 25.2624 19.6792C25.2624 19.798 25.0927 20.0524 24.8892 20.2729C24.5839 20.5952 24.5499 20.714 24.7365 20.8158C25.1267 21.0702 24.7704 21.3246 24.1428 21.2398C23.8036 21.2059 23.4134 21.2568 23.2947 21.3586C23.0911 21.5282 23.0742 21.5112 23.159 21.2738C23.2268 21.1041 23.159 20.9684 22.9893 20.9006C22.8367 20.8497 22.7179 20.697 22.7179 20.5783C22.7179 20.4426 22.4804 20.1712 22.1921 19.9676C21.7001 19.6283 21.6323 19.6114 21.4457 19.8658C21.327 20.0185 21.2082 20.1203 21.1743 20.0694C20.9877 19.8998 20.0038 19.8149 20.0038 19.9846C20.0038 20.0694 20.0887 20.1542 20.1735 20.1542C20.2752 20.1542 20.3431 20.3238 20.3431 20.5274C20.3261 20.9006 20.3261 20.9175 20.0887 20.5952C19.8512 20.2899 19.8342 20.2899 19.8342 20.5613C19.8342 20.7818 19.7494 20.8327 19.495 20.7479C19.2066 20.6631 19.1557 20.714 19.1557 21.1041C19.1557 21.3586 19.1048 21.5282 19.0539 21.4773C18.8673 21.2907 18.0701 22.2237 18.0361 22.6647C18.0192 22.9192 17.9852 23.1906 17.9852 23.2754C17.9683 23.3432 17.6969 23.3602 17.3576 23.2923C16.9675 23.2245 16.7809 23.2415 16.8487 23.3602C16.9166 23.445 16.8827 23.5638 16.7809 23.6316C16.6621 23.6995 16.6621 23.8352 16.7809 24.0726C16.8996 24.2592 16.8996 24.3949 16.7978 24.3949C16.713 24.3949 16.6112 24.5307 16.5604 24.6833C16.5264 24.853 16.4247 24.6664 16.3568 24.2592C16.2889 23.8691 16.1702 23.5468 16.1193 23.5468C16.0515 23.5468 15.7122 23.8352 15.373 24.1914C14.881 24.6833 14.7453 24.9717 14.7453 25.4297C14.7453 25.8877 14.5927 26.193 14.2025 26.6341C13.8972 26.9733 13.507 27.4313 13.3374 27.6858C12.9133 28.2964 12.0991 28.6866 11.1492 28.7205C10.6742 28.7375 10.2162 28.8562 10.0296 29.0258C9.85995 29.1785 9.52072 29.3142 9.28323 29.3142C9.04575 29.3142 8.75739 29.433 8.63864 29.5687C8.48596 29.7553 8.21457 29.8061 7.77353 29.7553C7.40033 29.7213 7.07803 29.7553 7.01019 29.8401C6.95929 29.9249 6.80664 29.9927 6.67093 29.9927C6.53522 29.9927 6.17899 30.2133 5.87366 30.4847C5.5853 30.773 5.05945 31.1123 4.72018 31.265C4.38092 31.4346 4.00772 31.7569 3.87204 32.0113L3.66849 32.4524L3.56668 31.9435C3.48187 31.5364 3.431 31.4855 3.29529 31.689C2.87122 32.3336 2.70157 32.7916 2.70157 33.2496C2.70157 33.521 2.51498 34.0299 2.2775 34.3692C1.76862 35.1156 1.76862 35.2682 2.15875 36.5574C2.54892 37.8296 2.46411 38.4742 2.02307 37.5243L1.71774 36.8627L1.5481 37.2868L1.37848 37.7109L1.19186 37.2868C1.02225 36.9137 1.00528 36.9645 1.09009 37.6091C1.14099 38.0162 1.31061 38.576 1.44632 38.8474C1.599 39.1358 1.73468 39.7465 1.76862 40.2384C1.80255 40.7134 1.88736 41.324 1.93823 41.6124C2.0061 41.8838 2.05698 42.3418 2.04004 42.6302C2.04004 42.9016 2.0061 44.0551 1.98914 45.1577C1.9552 46.5995 1.87039 47.2102 1.73468 47.2441C1.61594 47.295 1.51416 47.4986 1.51416 47.7021C1.51416 48.211 1.05618 48.8217 0.649048 48.8217C0.445496 48.8217 0.258911 48.9913 0.157135 49.2627C-0.0803528 49.8734 -0.063385 50.0091 0.309784 50.0091C0.496399 50.0091 0.682983 50.1448 0.733887 50.3144C0.869568 50.7215 1.41238 50.976 2.39624 51.0947C3.15958 51.1795 4.05862 50.959 4.05862 50.6876C4.05862 50.5519 4.60144 50.3314 5.09335 50.2635C5.24603 50.2466 5.51743 50.0769 5.70404 49.8903C6.12811 49.4663 7.34946 49.2966 9.35107 49.3984L10.8099 49.4832L11.5563 48.7199C11.9464 48.3128 12.4214 47.9735 12.574 47.9735C12.7267 47.9735 12.8963 47.9057 12.9472 47.8208C12.9981 47.736 13.2526 47.6173 13.507 47.5495C13.7784 47.4986 14.1177 47.3289 14.2704 47.1763C14.4739 46.9897 14.7284 46.9557 15.1185 47.0236C15.6783 47.1254 18.0192 46.5995 18.3924 46.2772C18.4941 46.1924 19.2744 46.0737 20.1396 46.0058C21.6153 45.8871 21.7341 45.904 22.1242 46.2772C22.3447 46.4808 22.6331 46.6165 22.7519 46.5826C22.8706 46.5317 23.2607 46.6843 23.6 46.9048C23.9562 47.1084 24.3294 47.295 24.4482 47.295C24.6008 47.295 24.6008 47.3459 24.4482 47.4986C24.1598 47.7869 24.1937 48.3128 24.4821 48.3128C24.8722 48.3128 25.0588 49.8564 24.7026 50.0769C24.4651 50.2296 24.499 50.3144 24.974 50.7385C25.5168 51.2135 25.5168 51.2135 25.5677 50.8403C25.6356 50.4162 26.7212 49.3306 27.0774 49.3306C27.2131 49.3306 27.6711 48.9913 28.0952 48.5672C28.5193 48.1431 28.9094 47.8378 28.9773 47.9057C29.0282 47.9735 28.9773 48.0583 28.8755 48.0923C28.7567 48.1431 28.655 48.3128 28.655 48.4824C28.655 48.652 28.4514 48.9065 28.2139 49.0761C27.9764 49.2288 27.6711 49.6189 27.5354 49.9412C27.3997 50.2635 27.1113 50.6028 26.9078 50.6706C26.6873 50.7554 26.4159 50.959 26.2802 51.1286C26.0427 51.4 26.0596 51.417 26.4498 51.3152C26.6873 51.2474 27.0096 51.1965 27.1792 51.1965C27.3488 51.1965 27.6372 50.9251 27.8238 50.6028C28.0273 50.2805 28.2479 50.0091 28.3327 50.0091C28.6719 50.0091 28.4514 50.8572 27.9764 51.3322C27.4167 51.892 27.4676 52.0786 28.1461 51.9429C28.5362 51.858 28.638 51.9259 28.8246 52.4009C29.0282 52.8928 29.0282 53.0115 28.7228 53.5543C28.4344 54.0802 28.4005 54.2498 28.5702 54.7418C28.6889 55.0641 28.9433 55.3864 29.1469 55.4542C29.3335 55.539 29.5031 55.6578 29.5031 55.7426C29.5031 55.8274 29.8084 55.8952 30.1986 55.8952C30.5887 55.8952 30.945 55.9801 31.0128 56.0649C31.0637 56.1666 31.2842 56.3193 31.4878 56.4381C31.8101 56.6077 31.9967 56.5738 32.6752 56.2175C33.1162 55.9801 33.5233 55.8443 33.5743 55.9122C33.6251 55.9801 33.9474 56.1836 34.3036 56.3532C34.6429 56.5398 34.9313 56.7943 34.9313 56.93C34.9313 57.1335 34.9991 57.1335 35.2875 56.8621C36.2714 55.9801 38.0694 55.098 38.9515 55.098C40.0371 55.098 41.021 54.5552 41.038 53.9615C41.038 53.8427 41.2246 53.5543 41.462 53.2999C41.6995 53.0455 41.8861 52.7571 41.8861 52.6384C41.8861 52.5366 42.2254 52.1295 42.6494 51.7393C43.0735 51.3492 43.786 50.5858 44.2101 50.043C45.2448 48.7538 46.076 47.9566 46.8563 47.5495C47.1955 47.3629 47.4839 47.1254 47.4839 47.0236C47.4839 46.9218 47.6875 46.6165 47.9589 46.3281C48.7222 45.4969 49.0106 45.0898 49.0106 44.8862C49.0106 44.7675 49.1802 44.4113 49.4007 44.089C50.3676 42.6132 50.9104 41.6124 50.9783 41.1205C51.0292 40.8321 51.1818 40.3062 51.3175 39.9331C51.589 39.2376 51.5041 38.8305 51.2327 39.509C51.1479 39.7295 51.0631 39.8313 51.0631 39.7465C51.0461 39.5599 51.3515 38.3555 51.5041 37.9653C51.555 37.8296 51.589 37.6431 51.572 37.5752C51.555 37.4904 51.7077 37.185 51.8943 36.8627C52.0809 36.5574 52.2336 36.1673 52.2166 35.9976C52.2166 35.7602 52.1826 35.7432 52.1148 35.9298C51.8604 36.6253 51.2158 36.744 51.2158 36.0825C51.2158 35.9128 51.1479 35.7602 51.0631 35.7602C50.9783 35.7602 50.8765 35.5227 50.8256 35.2513C50.7578 34.9629 50.6051 34.7424 50.4694 34.7424C50.3337 34.7424 50.198 34.5727 50.1641 34.3522C50.1301 34.1487 50.0114 33.996 49.8926 34.0299C49.7061 34.0639 49.6891 33.8603 49.7909 33.1139C49.8926 32.1979 49.8926 32.147 49.5534 32.2319C49.3329 32.2997 49.1632 32.2319 49.1123 32.0792C49.0275 31.8587 48.9597 31.8587 48.7392 32.0453C48.5187 32.2319 48.4847 32.164 48.5187 31.5703C48.5526 31.1462 48.4508 30.7052 48.2812 30.4338C47.9249 29.9079 47.9249 29.8231 48.2472 29.8231C48.4169 29.8231 48.4847 29.6874 48.4338 29.433C48.3999 29.2294 48.2812 29.0767 48.1624 29.1107C47.8741 29.1785 46.8224 28.4491 46.7036 28.0929C46.6527 27.9233 46.517 27.8384 46.3643 27.9063C46.2456 27.9572 46.1269 27.9063 46.1269 27.7876C46.1269 27.6858 46.059 27.6349 45.9742 27.6858C45.7198 27.8554 45.3975 27.2956 45.4823 26.8546C45.5331 26.6171 45.4992 26.3796 45.4144 26.3287C45.3466 26.2778 45.3296 26.1591 45.3805 26.0573C45.584 25.735 45.4483 24.3441 45.1939 24.0557C44.9395 23.7843 44.9055 21.9692 45.16 21.5791C45.2278 21.4603 45.0921 21.2568 44.8207 21.0872C44.4136 20.8158 44.3966 20.7649 44.6511 20.5783C44.8546 20.4256 44.8885 20.3408 44.7359 20.1881C44.6172 20.0694 44.4136 19.9846 44.2779 20.0015C44.0913 20.0015 44.1083 20.0524 44.3457 20.1542C44.685 20.3069 44.685 20.3069 44.3457 20.3238C44.1591 20.3578 43.9556 20.3578 43.8878 20.3408C43.8029 20.3408 43.752 20.3917 43.752 20.4935C43.752 20.5783 43.6333 20.6631 43.4806 20.6631C43.2771 20.6631 43.2432 20.4935 43.2771 19.8149C43.311 19.1873 43.3958 18.9837 43.5485 19.0516C43.7181 19.1195 43.769 18.9668 43.752 18.4918C43.7351 18.1526 43.7351 17.8303 43.752 17.7794C43.8708 17.4232 43.8708 17.1009 43.7351 17.1009C43.5655 17.1009 43.5146 17.4401 43.5655 18.2713C43.5994 18.6106 43.5485 18.7972 43.4467 18.7293C43.3449 18.6784 43.294 18.4918 43.328 18.3222C43.3449 18.1695 43.294 17.949 43.2092 17.8472C43.0396 17.6098 43.0905 17.2535 43.328 17.05C43.4297 16.9652 43.3788 16.9312 43.2092 16.9991C42.9209 17.0839 42.4798 16.575 42.6664 16.3714C42.7173 16.3206 42.7173 16.0491 42.6494 15.7608C42.5307 15.218 42.2254 15.0823 41.92 15.4385L41.92 15.4385ZM2.59204 38.4654C2.59204 38.732 2.46233 38.9653 2.3325 38.9653C2.20267 38.9653 1.94312 38.732 1.68346 38.4654C1.48883 38.1987 1.61866 37.9653 1.94312 37.9653C2.3325 37.9653 2.59204 38.1987 2.59204 38.4654L2.59204 38.4654ZM34.5134 55.8335C34.2351 56.1731 33.917 56.324 33.8375 56.2486C33.5592 55.9845 34.1158 55.2676 34.5929 55.2676C34.8315 55.2676 34.8315 55.494 34.5134 55.8335L34.5134 55.8335Z" id="path2374" fill="#D5E2E9" fill-rule="evenodd" stroke="none" />
    <path d="M31.6404 59.3048C31.4029 59.661 31.1654 60.2717 31.1315 60.6618C31.0806 61.035 30.9619 61.51 30.8601 61.6966C30.7583 61.9001 30.6905 62.3581 30.7244 62.7144C30.7583 63.3081 30.8092 63.3929 31.2502 63.4777C31.7761 63.5795 32.8957 63.1554 32.8957 62.867C32.8957 62.7483 32.9805 62.7483 33.1162 62.867C33.2858 63.0027 33.4554 62.9349 33.7947 62.5617C34.0491 62.3072 34.2527 61.968 34.2527 61.8153C34.2527 61.6626 34.3884 61.5439 34.575 61.5439C34.7786 61.5439 34.9651 61.3912 35.033 61.1537C35.1009 60.9502 35.3214 60.5092 35.5419 60.1699C36.0677 59.3387 35.8472 59.1521 34.7107 59.4744C33.218 59.8815 33.1671 59.8815 32.8109 59.5592C32.6242 59.3726 32.4037 59.203 32.3019 59.1521C32.2171 59.1182 32.1493 58.9825 32.1832 58.8638C32.268 58.5075 32.1154 58.6432 31.6404 59.3048L31.6404 59.3048Z" id="path2376" fill="#D5E2E9" stroke="none" />
  </g>
</svg>