<?xml version="1.0" encoding="utf-8"?>
<svg width="91.67932px" height="61.843506px" viewBox="0 0 91.67932 61.843506" version="1.1" xmlns:xlink="http://www.w3.org/1999/xlink" xmlns="http://www.w3.org/2000/svg">
  <g id="europe">
    <path d="M71.2623 0.152664C71.1944 0.237488 70.8382 0.356216 70.4311 0.424072C69.7186 0.542816 68.2768 1.15349 68.0902 1.4249C68.0223 1.5097 67.8866 1.5097 67.7849 1.45882C67.6831 1.39096 67.5983 1.4249 67.5983 1.5097C67.5983 1.61148 67.7 1.71326 67.8188 1.71326C67.9206 1.73022 68.2089 1.76414 68.4125 1.78111C68.65 1.79808 68.9723 1.66237 69.1589 1.45882C69.3624 1.27223 69.4642 1.18741 69.4133 1.28918C69.3455 1.40793 69.4642 1.52667 69.6847 1.59453C70.2106 1.73022 70.3463 1.71326 70.2275 1.52667C70.1766 1.4249 70.2445 1.40793 70.3802 1.45882C70.5329 1.5097 70.6007 1.64542 70.5329 1.74719C70.465 1.86594 70.8721 1.88289 71.856 1.81505C72.7041 1.76414 73.1452 1.78111 72.9416 1.86594C72.6702 1.98467 72.755 2.0186 73.2978 2.0186C73.7898 2.03555 74.0442 1.95074 74.1121 1.78111C74.1629 1.64542 74.3495 1.52667 74.5361 1.52667C74.9772 1.52667 75.4012 1.35704 75.4012 1.17044C75.4012 1.08563 75.2486 1.01778 75.0789 1.01778C74.8924 1.01778 74.7227 0.949921 74.6888 0.848145C74.6379 0.712448 73.5353 0.542816 72.4497 0.508896C72.1953 0.508896 72.1783 0.458008 72.3479 0.25444C72.5345 0.0339203 72.4666 0 71.9578 0C71.6185 0 71.3132 0.0678558 71.2623 0.152664L71.2623 0.152664ZM73.2809 1.19746C73.1112 1.49296 72.772 1.73473 72.5345 1.70786L72.0934 1.68101L72.5175 1.46609C72.755 1.35864 72.8229 1.22433 72.6872 1.19746C72.5515 1.17061 72.6193 1.03629 72.8568 0.928827C73.5353 0.579606 73.6032 0.633347 73.2809 1.19746L73.2809 1.19746ZM69.6161 1.43119C69.6161 1.61401 69.4161 1.91869 69.1161 2.10151C68.8661 2.28433 68.6161 2.16247 68.6161 1.85778C68.6161 1.49214 68.8661 1.18741 69.1161 1.18741C69.4161 1.18741 69.6161 1.30927 69.6161 1.43119L69.6161 1.43119Z" id="path2379" fill="#D5E2E9" fill-rule="evenodd" stroke="none" />
    <path d="M65.4268 0.915998C65.1215 1.01777 64.918 1.17044 64.9858 1.23829C65.0536 1.30615 65.0197 1.35704 64.918 1.35704C64.7992 1.35704 64.7144 1.27223 64.7144 1.18741C64.7144 0.983854 63.4931 0.983854 62.2548 1.18741C61.4066 1.30615 61.6441 1.40793 62.7976 1.40793C63.1029 1.40793 63.3065 1.47578 63.2556 1.56059C63.2047 1.62845 63.1877 1.6963 63.2216 1.71325C64.1207 1.86593 65.2403 1.86593 65.1554 1.71325C65.0706 1.59453 65.1894 1.52667 65.4268 1.52667C65.6982 1.52667 65.7491 1.57756 65.5965 1.67933C65.3251 1.832 66.1054 2.03555 66.9875 2.03555C67.3946 2.03555 67.4624 1.98466 67.2589 1.86593C67.1231 1.76414 66.7839 1.74719 66.4955 1.79808C66.0375 1.89985 66.0205 1.88289 66.2241 1.62845C66.3428 1.47578 66.5973 1.35704 66.7839 1.35704C66.9535 1.35704 67.0553 1.27223 67.0044 1.18741C66.9535 1.08563 66.75 1.01777 66.5634 1.01777C66.3937 1.01777 66.2411 0.932966 66.2411 0.848143C66.2411 0.64459 66.1393 0.64459 65.4268 0.915998L65.4268 0.915998Z" id="path2381" fill="#D5E2E9" stroke="none" />
    <path d="M40.1181 1.66238C39.9655 1.83201 39.694 1.86594 39.236 1.79809C38.7271 1.71326 38.5575 1.7472 38.4727 1.96772C38.4218 2.12038 38.4727 2.30697 38.6084 2.39179C38.7441 2.4766 38.7611 2.54446 38.6593 2.54446C38.5575 2.54446 38.3709 2.42571 38.2352 2.27305C38.1165 2.12038 37.862 2.03556 37.6246 2.08646C37.404 2.12038 37.2005 2.10342 37.1496 2.03556C37.1157 1.96772 36.6407 1.95075 36.0979 1.96772C35.5551 2.00164 34.9105 2.01861 34.656 2.03556C34.2828 2.03556 34.215 2.10342 34.2998 2.32394C34.3677 2.49357 34.6051 2.81586 34.8426 3.03638L35.2837 3.44349L34.8257 3.1721C34.5542 3.00246 34.3337 2.95158 34.2659 3.05335C34.215 3.13816 34.4864 3.35868 34.8935 3.56223C35.7417 3.96935 35.8095 3.9863 35.5381 3.64706C35.131 3.15513 36.4032 3.95238 36.8612 4.44431C37.0817 4.71572 37.3871 4.91927 37.5397 4.91927C37.7094 4.93624 38.1334 5.07194 38.5066 5.25854C39.5074 5.75046 39.8976 5.69958 40.0333 5.0889C40.1012 4.80053 40.2538 4.58002 40.3726 4.58002C40.627 4.58002 41.6109 3.73186 41.3734 3.73186C41.2886 3.73186 41.3564 3.64706 41.526 3.54528C41.8653 3.34171 42.4081 3.47742 42.9679 3.91846C43.3241 4.18987 43.3411 4.22379 43.0527 4.39342C42.7135 4.59698 42.8322 4.63091 43.6125 4.58002C43.9178 4.56306 44.2062 4.63091 44.274 4.73269C44.3928 4.93624 45.1731 4.8175 45.4615 4.56306C45.5463 4.47823 45.7498 4.41039 45.9364 4.41039C46.106 4.41039 46.1909 4.32557 46.14 4.24076C46.0891 4.13898 45.8177 4.07113 45.5463 4.07113C45.2749 4.07113 45.0374 3.95238 44.9695 3.79972C44.9017 3.61312 44.7321 3.54528 44.4437 3.59617C44.2062 3.64706 44.0196 3.61312 44.0196 3.54528C44.0196 3.30779 42.476 2.68017 42.1876 2.7989C41.9671 2.88372 41.9501 2.84978 42.1028 2.69712C42.2385 2.56142 42.6286 2.54446 43.375 2.61231C45.19 2.81586 46.7506 2.71409 46.8694 2.37482C46.9033 2.27305 47.0729 2.20519 47.2426 2.20519C47.6836 2.20519 47.8193 1.91683 47.4631 1.73023C46.9712 1.47579 44.9017 1.37401 44.7829 1.59453C44.7321 1.73023 44.6642 1.71326 44.5963 1.5606C44.4437 1.25527 43.6803 1.30616 43.6803 1.62846C43.6803 1.84898 43.6295 1.86594 43.4259 1.69631C43.0697 1.39097 40.4065 1.37401 40.1181 1.66238L40.1181 1.66238ZM41.9632 2.82968C42.0428 3.15144 41.9102 3.29446 41.5919 3.18721C41.3531 3.15144 41.0879 2.86541 41.0083 2.61516C40.9287 2.29337 41.0614 2.15038 41.3797 2.25763C41.6184 2.29337 41.8836 2.5794 41.9632 2.82968L41.9632 2.82968ZM38.6246 4.11754C38.6246 4.24324 38.4084 4.32703 38.1381 4.32703C37.8678 4.32703 37.6246 4.03372 37.6246 3.74044C37.6246 3.27951 37.7597 3.19572 38.1381 3.53091C38.4084 3.74044 38.6246 4.03372 38.6246 4.11754L38.6246 4.11754ZM37.7255 4.4015C37.7255 4.65147 37.5255 4.9015 37.2255 4.9015C36.9755 4.9015 36.7255 4.65147 36.7255 4.4015C36.7255 4.1015 36.9755 3.9015 37.2255 3.9015C37.5255 3.9015 37.7255 4.1015 37.7255 4.4015L37.7255 4.4015Z" id="path2383" fill="#D5E2E9" fill-rule="evenodd" stroke="none" />
    <path d="M82.0337 5.03801C81.7962 5.0889 81.4399 5.24156 81.2194 5.37727C80.948 5.56386 80.1168 5.6826 78.692 5.78438C76.6564 5.92009 75.927 6.03883 75.7404 6.25935C75.5538 6.49683 74.2816 7.00572 73.9932 6.97179C73.7727 6.93787 73.6879 7.02268 73.7218 7.2432C73.8066 7.78601 73.5352 8.24402 72.9754 8.51543L72.4326 8.78684L72.8567 8.95647C73.1111 9.07521 73.179 9.14305 73.0093 9.14305C72.8567 9.16002 72.5174 9.34662 72.246 9.58409C71.8559 9.90639 71.8219 10.0082 72.0594 10.0082C72.4835 10.0082 72.4156 10.3305 71.9237 10.5171C71.6862 10.6019 71.4996 10.7885 71.4996 10.9242C71.4996 11.2804 71.9576 11.5857 72.3478 11.4839C72.5344 11.4331 72.6531 11.467 72.5853 11.5518C72.5344 11.6366 72.704 11.7893 72.9584 11.8741C73.3147 12.0098 73.4504 12.0098 73.5691 11.8402C73.6709 11.6705 73.7048 11.6875 73.7048 11.8911C73.7048 12.2643 74.061 12.383 75.4011 12.5017C77.4367 12.6544 77.6572 12.6544 77.742 12.3999C77.7929 12.2303 77.742 12.1964 77.5385 12.2643C77.3858 12.3321 77.284 12.3151 77.3349 12.2303C77.3858 12.1625 77.1144 11.9928 76.7581 11.8741C76.385 11.7554 76.0797 11.6027 76.0797 11.5518C76.0797 11.4839 75.8761 11.3143 75.6047 11.1617C75.1467 10.8902 74.8583 10.0082 75.2315 10.0082C75.3333 10.0082 75.4011 9.92336 75.4011 9.83855C75.4011 9.60106 77.1823 7.80298 77.4197 7.80298C77.5215 7.80298 77.742 7.66728 77.9117 7.49765C78.3018 7.1075 79.0312 6.88698 81.2534 6.44594C84.2049 5.85223 84.7986 5.47905 83.4077 5.0889C82.7631 4.91927 82.7122 4.91927 82.0337 5.03801L82.0337 5.03801ZM73.8655 9.31373C73.7444 9.68836 73.3809 9.81316 73.0982 9.43853C72.7751 9.0639 72.8963 8.68927 73.3405 8.68927C73.7848 8.56435 74.0271 8.9391 73.8655 9.31373L73.8655 9.31373Z" id="path2385" fill="#D5E2E9" fill-rule="evenodd" stroke="none" />
    <path d="M48.0059 11.8911C47.938 11.9928 47.7684 12.0268 47.6157 11.9589C47.48 11.908 47.1747 12.0268 46.9372 12.2473C46.6997 12.4678 46.564 12.5357 46.6319 12.4169C46.7167 12.2812 46.598 12.2134 46.1909 12.2134C45.4614 12.2134 44.8508 12.383 44.9526 12.5526C45.0543 12.7222 44.2231 12.9597 43.6973 12.9088C43.4089 12.8749 43.3411 12.9258 43.4259 13.0954C43.5277 13.2651 43.5107 13.282 43.3241 13.0954C42.917 12.7222 41.8144 12.8919 41.8144 13.3329C41.8144 13.5874 41.7974 13.5874 41.1868 13.6552C40.4913 13.7231 40.2538 13.8927 40.3386 14.2489C40.3895 14.4355 40.3386 14.6391 40.2538 14.7069C40.1351 14.7748 40.1181 14.7239 40.2029 14.5882C40.3047 14.4185 40.2368 14.4016 39.8636 14.4864C39.4396 14.5882 39.4057 14.5712 39.5922 14.3507C39.9145 13.9775 39.5922 13.9945 38.6932 14.4355C38.1334 14.69 37.9638 14.8596 38.0316 15.0462C38.0995 15.2328 38.0656 15.2837 37.9468 15.1988C37.7094 15.0631 36.5559 15.5211 36.5559 15.7586C36.5559 15.9961 36.6237 15.9961 37.3192 15.7077C37.6415 15.572 37.9129 15.4872 37.9129 15.5211C37.9129 15.5551 38.1504 15.5211 38.4218 15.4363C38.7271 15.3515 38.9307 15.3515 38.9307 15.4533C38.9307 15.5381 38.812 15.606 38.6762 15.606C38.5405 15.606 38.4218 15.7586 38.4218 15.9282C38.4218 16.1148 38.0825 16.505 37.5737 16.8612C37.1156 17.2005 36.7255 17.5397 36.7255 17.6246C36.7255 17.7094 36.5728 17.8112 36.3862 17.862C36.1488 17.9129 36.047 18.0995 36.047 18.3879C36.047 18.9646 35.4872 19.5074 34.9105 19.5074C34.5203 19.5074 34.4864 19.5414 34.6899 19.694C34.8935 19.8467 34.9105 19.8806 34.7069 19.9655C34.5882 20.0163 34.181 20.3556 33.8248 20.7118C33.2311 21.3055 33.1293 21.3564 32.8071 21.1698C32.5187 20.9832 32.4339 21.0002 32.2642 21.2207C32.1455 21.3734 31.9589 21.4582 31.8232 21.4073C31.6536 21.3564 31.6196 21.4073 31.6875 21.5939C31.7553 21.7805 31.6536 21.8823 31.2804 21.9671C31.009 22.0349 30.7885 22.1537 30.7885 22.2385C30.7885 22.3233 30.6019 22.4251 30.3644 22.4929C30.1269 22.5438 29.9403 22.6626 29.9403 22.7643C29.9403 22.8492 29.8725 22.8831 29.8046 22.8322C29.7198 22.7813 29.4314 22.8831 29.143 23.0697C28.6341 23.375 28.6172 23.4259 28.6002 24.6642C28.5833 25.7329 28.6341 25.9195 28.8377 25.8516C29.1091 25.7498 29.1939 26.0382 28.9565 26.1909C28.7529 26.3096 28.7359 27.3104 28.9395 27.3104C29.0243 27.3104 29.0921 27.4631 29.0921 27.6497C29.0921 27.8532 29.3466 28.1416 29.7707 28.413C30.6527 28.9728 31.5687 28.9728 32.3321 28.413C32.6544 28.1925 33.2311 27.8363 33.6382 27.6327C34.0284 27.4292 34.3507 27.1408 34.3676 26.9881C34.3676 26.7676 34.4016 26.7507 34.4694 26.9712C34.5203 27.1069 34.673 27.2935 34.7917 27.3613C34.9274 27.4292 35.0292 27.7006 35.0292 27.955C35.0292 28.2095 35.1819 28.5996 35.3685 28.8371C35.5551 29.0746 35.7077 29.329 35.7077 29.3969C35.7077 29.4817 35.9791 29.8209 36.3014 30.1602C36.6237 30.4995 36.8103 30.8048 36.7255 30.8387C36.6237 30.8727 36.5559 31.0084 36.5559 31.1441C36.5559 31.2798 36.505 31.3646 36.4371 31.3646C36.1657 31.3137 35.1988 31.6021 35.1988 31.7208C35.1988 31.8904 34.198 32.1279 34.0623 32.0092C34.0284 31.9583 34.0623 31.7717 34.1641 31.6021C34.3337 31.3137 34.3337 31.3137 34.3507 31.6021C34.3507 31.7717 34.4355 31.8565 34.5203 31.8056C34.6221 31.7378 34.656 31.636 34.6051 31.5512C34.5542 31.4664 34.5882 31.3646 34.6899 31.2967C34.9953 31.1101 34.8765 30.703 34.5203 30.703C34.181 30.703 34.0453 30.2959 34.3337 30.1093C34.5373 29.9906 34.5203 29.0067 34.3168 29.0067C34.2489 29.0067 34.181 29.0746 34.181 29.1764C34.181 29.2612 34.0793 29.346 33.9436 29.346C33.8248 29.346 33.6213 29.4647 33.5025 29.6004C33.3838 29.7361 33.0785 29.8549 32.8071 29.8549C31.891 29.8549 31.2634 31.6699 31.9419 32.3654C32.1794 32.6368 32.1964 32.8573 31.9759 32.993C31.891 33.0439 31.8571 33.1966 31.925 33.3493C31.9928 33.5358 32.0776 33.5528 32.2473 33.4001C32.4339 33.2475 32.4847 33.2644 32.4847 33.485C32.4847 33.6376 32.3999 33.7564 32.2982 33.7564C32.1624 33.7564 32.1624 33.8412 32.3151 34.0108C32.6883 34.4519 32.2303 34.7911 31.45 34.6724C31.009 34.5876 30.6697 34.6384 30.4153 34.8081C30.1778 34.9607 29.8046 35.0286 29.4993 34.9947C28.702 34.8759 27.9726 35.317 27.8369 36.0124C27.6673 36.9115 26.5477 37.9293 25.2755 38.3533C24.5291 38.5908 24.4104 38.6926 24.2916 39.2354C24.1559 39.7782 24.0541 39.88 23.4774 40.0327C23.1042 40.1345 22.7141 40.3719 22.5953 40.5416C22.3578 40.9317 21.7641 40.9826 21.4249 40.6603C21.3061 40.5246 20.9838 40.3719 20.7124 40.3041C20.2714 40.2023 20.2375 40.2193 20.3562 40.5755C20.7124 41.729 20.6785 41.8138 19.983 41.8138C19.6268 41.8138 19.2536 41.7459 19.1349 41.6781C18.9144 41.5424 17.6252 41.695 17.218 41.9156C16.8958 42.0682 16.8618 42.9164 17.1672 42.9164C17.2859 42.9164 17.3877 42.9842 17.3877 43.086C17.3877 43.1708 17.4895 43.2048 17.6082 43.1539C17.9984 43.0012 18.7447 43.3913 18.6429 43.6797C18.5921 43.8154 18.626 43.9342 18.7447 43.9342C18.8465 43.9342 18.8804 43.8493 18.8295 43.7645C18.6429 43.4592 19.2536 43.5949 19.6268 43.9342C19.8473 44.1208 19.8982 44.2734 19.7795 44.2734C19.6268 44.2734 19.6438 44.3582 19.8304 44.5448C19.983 44.6805 20.1018 44.8841 20.1018 44.9689C20.1018 45.0537 20.2205 45.1216 20.3732 45.1216C20.5089 45.1216 20.5767 45.1894 20.5258 45.2912C20.4749 45.376 20.4919 45.4608 20.5767 45.4608C20.6615 45.4608 20.7294 45.5626 20.7294 45.6644C20.7294 45.7831 20.7633 45.9528 20.7972 46.0545C20.8651 46.292 20.6276 47.9883 20.4241 48.6499C20.2205 49.2605 19.7455 49.5998 19.2536 49.4471C18.9652 49.3623 16.6922 49.1927 14.5549 49.1248C14.0629 49.1079 13.6219 49.04 13.554 48.9722C13.3166 48.7347 12.6889 48.8534 12.3836 49.1927C12.214 49.3793 11.9426 49.5319 11.7899 49.5319C11.3149 49.5319 11.0774 49.9391 11.264 50.431C11.3488 50.6515 11.4506 51.364 11.4676 52.0086C11.5185 53.2469 11.1283 54.6717 10.6194 55.0789C10.4837 55.1976 10.4159 55.2994 10.4668 55.2994C10.5346 55.2994 10.5177 55.5199 10.4328 55.8083C10.348 56.1136 10.348 56.3172 10.4498 56.3172C10.5346 56.3172 10.6025 56.4359 10.6025 56.5716C10.6025 56.7073 10.7043 56.8091 10.823 56.7752C11.0435 56.7412 11.0774 57.6063 10.8739 58.3527C10.7551 58.7598 10.7891 58.7768 11.4846 58.7598C11.8917 58.7598 12.3836 58.692 12.6041 58.6241C13.2148 58.4206 13.6558 58.675 13.9442 59.3875C14.2326 60.1338 14.8772 60.4392 15.2334 59.9981C15.6066 59.5401 16.6074 59.2178 17.6421 59.2009C18.2019 59.2009 18.7956 59.2009 18.9652 59.1839C19.1179 59.1839 19.3723 58.9464 19.5081 58.675C19.6946 58.3357 19.9491 58.1322 20.2883 58.0643C20.6785 57.9965 20.8651 57.8099 21.0686 57.318C21.2044 56.9448 21.4249 56.6564 21.5436 56.6564C21.6624 56.6564 21.849 56.5377 21.9677 56.402C22.1543 56.1815 22.1373 56.0966 21.9338 55.927C21.5267 55.6047 21.4758 55.2146 21.7641 54.7566C22.3748 53.8575 23.4095 52.7549 23.647 52.7549C23.7827 52.7549 24.2916 52.5514 24.7836 52.2969C25.6996 51.8389 26.2084 51.1604 25.8692 50.8211C25.7844 50.7363 25.6996 50.4819 25.6996 50.2783C25.6996 49.4471 27.4976 49.1418 28.5324 49.8034C29.0921 50.1596 29.4823 50.0917 30.093 49.5489C30.4153 49.2605 30.8733 48.9891 31.1447 48.9382C31.4161 48.8704 31.7214 48.6838 31.8062 48.5142C31.891 48.3445 32.0776 48.1749 32.2133 48.124C32.5696 47.9883 34.0114 48.6499 34.0114 48.9552C34.0114 49.0909 34.1132 49.3454 34.2319 49.5489C34.4016 49.8373 34.3846 49.9221 34.1302 50.1257C33.9096 50.2783 33.8757 50.3801 34.0284 50.4649C34.1302 50.5328 34.2828 50.4989 34.3507 50.3631C34.4694 50.1935 34.5373 50.1935 34.7578 50.3631C34.9105 50.4989 35.0292 50.7024 35.0292 50.8211C35.0292 50.9568 35.1819 51.0586 35.3685 51.0586C35.5551 51.0586 35.7077 51.1095 35.7077 51.1943C35.7077 51.4488 37.404 52.6531 37.7942 52.6701C38.0147 52.6701 38.3879 52.8737 38.6254 53.1281C38.8628 53.3995 39.1851 53.6031 39.3378 53.6031C39.4905 53.6031 39.6092 53.7218 39.6092 53.8745C39.6092 54.0272 39.8297 54.2307 40.1181 54.3325C40.4913 54.4682 40.6779 54.7057 40.8814 55.2994C41.0511 55.7743 41.085 56.0797 40.9662 56.1136C40.8814 56.1475 40.7966 56.3172 40.7966 56.4698C40.7966 56.86 39.236 57.2162 38.0147 57.0975C37.0139 57.0126 36.7255 57.0975 36.7255 57.5046C36.7255 57.7929 38.2522 58.692 38.7271 58.692C38.8289 58.692 38.9816 58.7938 39.0494 58.9125C39.1173 59.0482 39.3548 59.1839 39.5753 59.2517C39.9994 59.3535 40.3556 58.8955 40.1859 58.4545C40.1351 58.3018 40.1351 57.9795 40.1859 57.742C40.2708 57.4028 40.3725 57.3349 40.644 57.4198C41.068 57.5554 41.8144 56.9278 41.8144 56.4359C41.8144 56.2663 41.9671 56.0797 42.1537 56.0288C42.6286 55.91 42.5947 55.2655 42.0688 54.9601C41.6957 54.7226 41.6787 54.6548 41.8653 54.2816C42.0349 53.9423 42.1876 53.8745 42.5777 53.9084C42.8661 53.9423 43.1205 54.0441 43.1375 54.1289C43.1714 54.2137 43.3241 54.4173 43.4768 54.553C43.7312 54.8074 43.7651 54.8074 43.9178 54.4682C44.1383 53.9593 43.6294 53.4504 42.1537 52.738C41.1528 52.263 41.0171 52.1273 41.1528 51.8728C41.2377 51.7032 41.2546 51.5675 41.1868 51.5505C41.1189 51.5505 40.7288 51.5336 40.3386 51.4997C39.7619 51.4657 39.4905 51.33 39.0155 50.8381C38.6932 50.4989 38.4218 50.0917 38.4218 49.9221C38.4048 49.498 38.1165 49.1588 37.3701 48.7177C36.6746 48.2937 36.4202 47.7848 36.7255 47.4116C36.8442 47.2589 36.8612 47.1571 36.7255 47.0723C36.3862 46.8688 36.5559 46.5465 37.1156 46.3429C37.7942 46.1054 38.2861 46.0715 37.9468 46.2751C37.7942 46.3768 37.7772 46.5465 37.896 46.8518C38.0995 47.4116 38.4218 47.6151 38.6084 47.3098C38.7102 47.1232 38.7611 47.1741 38.7611 47.4455C38.7611 47.6491 38.8459 47.8696 38.9307 47.9205C39.0325 47.9714 39.1003 47.8696 39.1003 47.683C39.1003 47.4964 39.1851 47.2928 39.3039 47.225C39.4396 47.1402 39.4565 47.1911 39.3887 47.3946C39.3208 47.5643 39.3717 47.8017 39.5414 47.9544C39.728 48.158 39.7449 48.2597 39.6092 48.3445C39.3887 48.4803 40.1859 49.1927 40.5591 49.1927C40.6948 49.1927 40.9323 49.3454 41.085 49.5319C41.2546 49.7185 41.5769 49.8712 41.8144 49.8882L42.2385 49.9051L41.8144 50.0408C41.4073 50.1766 41.4073 50.1766 41.9331 50.1935C42.2215 50.2105 42.5268 50.2783 42.5777 50.3801C42.6286 50.4649 42.8152 50.5497 42.9848 50.5497C43.1375 50.5497 43.6634 50.8381 44.1383 51.1774L45.0204 51.822L44.9186 52.8737C44.8338 53.8575 44.8508 53.9254 45.2918 54.2137C45.5632 54.3834 45.665 54.553 45.5463 54.6209C45.3088 54.7735 45.5123 55.2994 45.8007 55.2994C45.9364 55.2994 46.1569 55.4181 46.2926 55.5708C46.564 55.8252 46.564 56.1306 46.3096 56.7243C46.2417 56.8939 46.2417 57.0805 46.3435 57.1483C46.4283 57.1992 46.5471 57.3858 46.6149 57.5385C46.7337 57.8778 47.0729 57.9456 47.0729 57.6403C47.0729 57.2162 47.7175 58.0643 47.8363 58.6411C47.938 59.1669 47.9889 59.2178 48.3621 59.133C48.6505 59.0482 48.7692 59.0991 48.7692 59.2857C48.7692 59.4214 48.854 59.5401 48.9389 59.5401C49.0406 59.5401 49.1085 59.4553 49.1085 59.3705C49.1085 59.2687 49.1933 59.2009 49.2781 59.2009C49.3799 59.2009 49.4478 59.3875 49.4478 59.6249C49.4478 59.8624 49.5326 60.049 49.6174 60.049C49.9397 60.049 49.8718 59.1839 49.4986 58.4375C49.312 58.0813 49.312 57.9965 49.4647 58.1322C49.5835 58.2509 49.8209 58.3527 50.0075 58.3527C50.245 58.3527 50.2959 58.2679 50.2111 57.9965C50.1093 57.7081 50.1602 57.6572 50.4995 57.7081C50.8048 57.742 50.8726 57.6912 50.8387 57.4367C50.7878 57.1483 50.8048 57.1314 51.0423 57.318C51.1949 57.4537 51.3137 57.4876 51.3137 57.4198C51.3137 57.3519 51.4324 57.3858 51.5681 57.5046C51.7038 57.6233 51.8226 57.8608 51.8226 58.0474C51.8226 58.3527 51.8395 58.3527 52.094 58.1152C52.3315 57.8778 52.3145 57.8099 52.0092 57.4706C51.8056 57.2671 51.6529 57.1653 51.6529 57.2332C51.6529 57.4876 51.1101 56.9278 50.9575 56.5377C50.8726 56.3002 50.6691 56.1475 50.4655 56.1475C50.228 56.1475 50.0584 55.9779 49.9397 55.6386C49.8379 55.3503 49.6852 55.1297 49.6004 55.1297C49.4138 55.1297 48.9049 54.1459 48.9728 53.9084C49.0067 53.8066 49.2781 53.9254 49.5665 54.1798C50.0923 54.6209 50.3977 54.7566 50.2111 54.4512C50.1432 54.3495 50.228 54.3325 50.3977 54.4003C50.6352 54.4851 50.6691 54.4512 50.5673 54.1798C50.4655 53.9254 50.4825 53.8914 50.6521 54.0611C51.0592 54.4682 51.2119 54.2816 50.8217 53.8745C50.4316 53.4674 50.4316 53.4674 50.7709 53.2808C51.0253 53.1451 51.161 53.1451 51.2458 53.2977C51.3137 53.4165 51.2967 53.4334 51.178 53.3656C51.0592 53.2977 50.9744 53.3317 50.9744 53.4165C50.9744 53.7388 51.4324 53.62 51.5342 53.2808C51.6021 52.9754 51.6699 52.9754 52.1788 53.162C52.5011 53.2638 52.9252 53.4504 53.1457 53.5691C53.6715 53.8575 54.2144 53.7727 54.5706 53.3317C54.7911 53.0603 55.0455 52.9754 55.4866 52.9924C55.8089 53.0094 56.1651 52.9246 56.2669 52.7888C56.4704 52.5514 56.4704 52.5514 55.8767 52.2969C55.3509 52.0764 54.6215 50.7363 54.8759 50.4819C54.9777 50.3801 55.0455 50.1426 55.0455 49.9391C55.0455 49.7185 55.1812 49.5319 55.3678 49.4811C55.6392 49.4132 55.7071 49.2266 55.758 48.582C55.8089 47.8696 55.8767 47.7169 56.2838 47.5303C56.6061 47.3777 56.7418 47.1741 56.7418 46.8857C56.7418 46.6483 56.9624 46.2242 57.2507 45.9188C57.5221 45.6135 57.7596 45.2742 57.7596 45.1555C57.7596 45.0537 57.9462 44.9519 58.1837 44.9519C58.4381 44.9519 58.6078 45.0537 58.6078 45.2064C58.6078 45.4608 59.4899 45.6983 60.4228 45.6813C60.7281 45.6644 60.9317 45.7322 60.8808 45.8171C60.8299 45.9019 60.7112 45.9697 60.6264 45.9697C60.4058 45.9697 59.6934 46.6483 59.897 46.6652C60.1175 46.6991 60.338 46.75 60.779 46.9027C61.0844 47.0045 61.1522 47.1402 61.1183 47.4794C61.0674 47.8526 61.1353 47.9205 61.5593 47.9714C61.8816 48.0053 62.1022 47.9374 62.2039 47.7678C62.2887 47.6151 62.5432 47.4964 62.7637 47.4964C62.9842 47.4964 63.2217 47.4116 63.2726 47.3268C63.3235 47.225 63.6458 47.1571 63.9681 47.1571C64.3752 47.1571 64.5448 47.0723 64.5448 46.9027C64.5448 46.6143 64.6296 46.6652 65.4099 47.3607C65.5796 47.5303 65.834 47.666 65.9527 47.666C66.0715 47.666 66.3259 47.7848 66.5125 47.9205C66.6821 48.0562 66.9366 48.1749 67.0723 48.1749C67.208 48.1749 67.4455 48.2937 67.6151 48.4463C67.8696 48.6668 68.0222 48.6838 68.4463 48.5481C68.8704 48.3954 69.057 48.4124 69.515 48.6668C69.8034 48.8534 70.3292 49.04 70.6515 49.1079C70.9738 49.1757 71.6014 49.4471 72.0255 49.7185C72.721 50.1596 72.9076 50.2105 73.7218 50.1087L74.6378 50.0069L75.7404 50.9738C77.6063 52.5853 82.1015 54.6378 81.7962 53.7218C81.7623 53.62 81.6096 53.5183 81.4569 53.5183C81.2873 53.5183 80.4392 52.721 79.5571 51.7541C78.1661 50.2614 77.9456 49.9221 77.9456 49.4302C77.9456 48.8704 77.4537 48.1749 76.8769 47.9374C76.7412 47.8865 76.7243 47.8187 76.843 47.7169C76.9448 47.6491 77.0974 47.3607 77.1823 47.0893C77.3519 46.5634 78.217 45.9697 78.5902 46.1054C78.692 46.1394 78.7937 46.0715 78.7937 45.9358C78.7937 45.5965 79.2178 45.2403 80.3204 44.6805C80.8293 44.4091 81.2873 44.1716 81.3382 44.1377C81.3891 44.1038 81.2025 43.9002 80.9141 43.6797C80.507 43.3405 80.4222 43.1539 80.4561 42.6789C80.49 42.2039 80.3713 41.9495 79.9303 41.4406C79.2009 40.6264 79.0312 40.3041 78.8955 39.405C78.7937 38.6926 78.7937 38.6926 79.4214 38.523C79.7776 38.4212 80.4561 38.3364 80.9311 38.3364C81.3891 38.3364 81.864 38.2516 81.9658 38.1498C82.3051 37.8105 84.3915 37.9123 85.4941 38.3025C86.2575 38.5908 86.6985 38.6587 87.3092 38.5739C87.8689 38.489 88.1234 38.523 88.1234 38.6587C88.1234 38.7604 88.276 38.8453 88.4457 38.8453C88.6323 38.8453 88.8867 38.964 89.0394 39.0997C89.3447 39.422 89.7518 39.422 89.8706 39.1167C89.9384 38.947 90.159 38.8962 90.617 38.964C91.8213 39.1167 92.0927 38.1328 90.9562 37.7427C90.0911 37.4543 89.7349 37.149 90.0232 36.9454C90.2438 36.7927 90.125 36.674 89.1412 35.9616C88.8019 35.7241 88.785 35.6562 88.9715 34.9098C89.1412 34.2144 89.1412 34.0617 88.8698 33.6037C88.4457 32.8912 87.9198 32.9082 87.2583 33.6716C86.5458 34.4688 85.986 34.4688 85.4093 33.6546C85.1718 33.3323 84.7986 32.8234 84.5781 32.552C84.188 32.0601 84.188 32.0261 84.4763 31.7208C84.646 31.5342 85.0022 31.3815 85.2736 31.3815C86.4101 31.3815 86.8172 30.0245 85.9352 29.2103C85.3075 28.6335 85.0701 28.0229 85.0701 27.0051C85.0531 25.0883 84.612 23.1884 83.6452 21.0511C82.9836 19.5753 82.7461 18.8798 82.8649 18.7441C82.9666 18.6254 83.4077 18.4049 83.8487 18.2352C85.5789 17.5906 87.4109 16.2845 87.4449 15.6908C87.4449 15.589 87.1226 15.1988 86.7324 14.8087C85.9012 14.0114 84.8665 13.6552 82.8649 13.4856C81.0668 13.3159 80.9819 13.299 79.9981 12.8749C79.3366 12.6035 79.0651 12.5526 78.9294 12.6883C78.7768 12.841 78.8277 12.9767 79.0991 13.2311C79.3026 13.4347 79.5401 13.5534 79.6249 13.5025C79.7945 13.4008 81.1177 14.0114 81.4569 14.3337C81.7792 14.656 81.7283 14.7578 81.2534 14.7578C80.948 14.7578 80.8632 14.8257 80.9311 15.0122C81.0159 15.1988 80.965 15.2328 80.7615 15.1649C80.6257 15.114 80.507 15.0122 80.507 14.9614C80.5579 14.6221 80.2525 14.0962 79.9642 14.0284C79.608 13.9266 79.5062 14.1811 79.8624 14.2998C79.9642 14.3337 79.7606 14.4355 79.3874 14.5034C79.0143 14.5712 78.6411 14.69 78.5393 14.7578C78.4545 14.8257 78.0134 14.8766 77.5554 14.8766C77.1144 14.8935 76.6395 14.9783 76.5037 15.0971C76.385 15.1988 76.0966 15.2667 75.8761 15.2328C75.4011 15.1649 75.2654 14.656 75.6895 14.5373C75.8591 14.4864 75.6895 14.4525 75.3163 14.4355C74.9431 14.4355 74.4682 14.5373 74.2646 14.673C74.078 14.8087 73.6539 14.9444 73.3486 14.9614C73.0263 14.9783 72.4665 15.1819 72.0933 15.3854C71.7202 15.606 71.2622 15.7756 71.0756 15.7756C70.5497 15.7926 70.0408 16.1657 70.0578 16.5389C70.0578 16.7255 69.939 16.9291 69.8034 16.9969C69.3454 17.2005 68.4972 17.1326 68.2767 16.8782C68.1579 16.7425 67.9544 16.6237 67.8187 16.6237C67.3437 16.6237 67.7169 16.2166 68.3615 16.047L69.0061 15.8604L68.4293 15.4194C67.9713 15.0631 67.5982 14.9614 66.6143 14.8935C65.3591 14.8087 64.8162 14.9783 65.7322 15.1819C66.2072 15.2837 66.2411 15.3515 66.2411 16.0131C66.2411 16.6237 66.309 16.7764 66.6652 16.9291C67.1062 17.1326 67.1911 17.3871 66.9366 17.7942C66.8348 17.9638 66.7161 17.9808 66.4447 17.8281C66.2581 17.7263 65.9358 17.6415 65.7492 17.6415C65.5456 17.6415 65.393 17.5228 65.393 17.3701C65.393 17.2005 65.2233 17.2683 64.8501 17.6246C64.5448 17.9129 64.1716 18.1504 64.0359 18.1504C63.9002 18.1504 63.561 18.337 63.2896 18.5406L62.7976 18.9307L63.1878 19.3039C63.8154 19.8806 63.4422 20.0842 62.2887 19.7789C61.7799 19.6432 61.1861 19.4396 60.9656 19.3378C60.6942 19.1851 60.5076 19.1851 60.2193 19.3378C59.8121 19.5583 59.8291 20.0163 60.2362 20.0163C60.3719 20.0163 60.4737 20.0842 60.4737 20.186C60.4737 20.2708 60.6942 20.3556 60.9656 20.3556C61.237 20.3556 61.4915 20.4574 61.5593 20.61C61.712 21.0511 60.6942 20.9832 59.8121 20.5083C59.4729 20.3386 59.0658 20.186 58.9131 20.186C58.7435 20.186 58.6078 20.0842 58.6078 19.9655C58.6078 19.8297 58.4551 19.5923 58.2685 19.4226C58.014 19.1851 57.9801 19.0494 58.1158 18.795C58.3194 18.4049 57.9801 18.0656 57.2168 17.896C56.9793 17.8451 56.7418 17.6924 56.691 17.5737C56.6231 17.421 56.9284 17.438 57.9971 17.6415C61.5254 18.3709 62.5093 18.3709 63.561 17.6246C64.1038 17.2344 64.1547 16.8612 63.7306 16.3354C63.4422 15.9791 62.187 15.3685 62.0343 15.5042C62.0004 15.5551 61.712 15.4703 61.4236 15.3176C61.1353 15.1649 60.8638 15.0462 60.8129 15.0462C60.6773 15.0631 60.2871 14.9105 59.4559 14.5543C59.0318 14.3677 57.9801 14.1471 57.132 14.0454C56.0972 13.9266 55.5544 13.7909 55.5544 13.6552C55.5544 13.4177 54.384 13.1802 54.1295 13.3668C54.0278 13.4347 53.6037 13.4517 53.1796 13.4008L52.4163 13.3159L52.9761 13.1124C53.2984 12.9936 53.5019 12.841 53.451 12.7562C53.3153 12.5357 51.3476 12.0098 51.144 12.1285C51.0423 12.1794 50.9744 12.1455 50.9744 12.0607C50.9744 11.9589 50.72 11.8741 50.3977 11.8741C50.0075 11.8741 49.7531 11.9928 49.5665 12.2473C49.3799 12.5187 49.2951 12.5526 49.2781 12.383C49.2781 12.2473 49.0746 12.0268 48.8201 11.908C48.2603 11.6536 48.1416 11.6536 48.0059 11.8911L48.0059 11.8911ZM49.4909 12.5437C49.4909 12.7937 49.1862 13.0437 48.8206 13.0437C48.5158 13.0437 48.394 12.7937 48.5768 12.5437C48.7596 12.2437 49.0643 12.0437 49.2471 12.0437C49.369 12.0437 49.4909 12.2437 49.4909 12.5437L49.4909 12.5437ZM51.0222 12.3293C51.0222 12.9718 50.192 13.3287 50.0536 12.7576C49.9429 12.3293 50.1367 12.0437 50.441 12.0437C50.7731 12.0437 51.0222 12.1865 51.0222 12.3293L51.0222 12.3293ZM43.3233 14.2194C43.3233 14.5438 43.09 14.6736 42.8233 14.4789C42.5566 14.2194 42.3233 13.9598 42.3233 13.8299C42.3233 13.7002 42.5566 13.5704 42.8233 13.5704C43.09 13.5704 43.3233 13.8299 43.3233 14.2194L43.3233 14.2194ZM41.643 14.4003C41.643 14.6635 41.3677 14.9266 41.0579 14.9266C40.5416 14.9266 40.5072 14.8214 40.9547 14.4003C41.6086 13.7687 41.643 13.7687 41.643 14.4003L41.643 14.4003ZM39.9956 15.5434C40.1874 15.8536 40.1234 16.0087 39.7398 15.8923C39.3561 15.776 39.1003 15.5046 39.1003 15.2719C39.1003 14.729 39.5479 14.8453 39.9956 15.5434L39.9956 15.5434ZM41.119 15.7305C40.8906 16.0383 40.4989 16.0383 40.303 15.7305C40.0746 15.269 40.2378 14.9614 40.6947 14.9614C41.1517 14.9614 41.3148 15.269 41.119 15.7305L41.119 15.7305ZM48.2434 18.7611C48.5996 18.8289 48.7692 18.9646 48.7692 19.1682C48.7692 19.4057 48.6844 19.4566 48.413 19.3887C48.1416 19.3209 48.0737 19.3548 48.1246 19.5244C48.2264 19.7958 47.1747 20.8645 46.8015 20.8645C46.6658 20.8645 46.564 20.9323 46.564 21.0002C46.564 21.2377 45.5802 21.7126 45.3257 21.6109C45.19 21.56 45.0204 21.5939 44.9526 21.6957C44.9017 21.7975 44.9695 21.9331 45.1052 21.9841C45.3427 22.0689 45.3427 22.1197 45.1222 22.3233C44.9356 22.5099 44.9186 22.6626 45.0374 22.9001C45.1391 23.0866 45.2749 23.375 45.3427 23.5277C45.4275 23.6973 45.4614 24.2232 45.4445 24.6981C45.4106 25.4275 45.4445 25.5632 45.682 25.5463C45.8346 25.5463 45.9534 25.6141 45.9364 25.7159C45.9194 25.8347 46.1569 25.9703 46.4792 26.0212C46.7846 26.0891 47.0729 26.2078 47.1069 26.3096C47.1408 26.4284 47.6157 26.3605 48.413 26.1569C49.1085 25.9703 49.787 25.8516 49.9057 25.9025C50.0415 25.9534 50.2111 25.9195 50.2789 25.8177C50.3298 25.7159 50.9235 25.5972 51.5681 25.5463C52.552 25.4784 52.8234 25.5123 53.1796 25.7837C53.6546 26.14 53.6037 26.2757 52.9591 26.3266C52.7047 26.3435 52.5011 26.4623 52.5011 26.598C52.5011 26.8185 51.6529 26.8015 49.9566 26.581C49.1594 26.4792 47.1747 27.3783 47.7175 27.5988C48.0059 27.7175 47.972 28.0059 47.6666 27.8872C47.5309 27.8193 47.4122 27.6836 47.4122 27.5479C47.4122 27.4122 47.3104 27.3104 47.2086 27.3274C46.8863 27.3444 46.2757 27.6158 46.5301 27.6327C46.8354 27.6497 46.7846 27.9889 46.4623 27.9889C46.2417 27.9889 46.2078 28.0907 46.3096 28.4469C46.4453 29.0067 46.581 29.1594 46.6828 28.871C46.7337 28.7692 46.9033 28.6675 47.0899 28.6675C47.2595 28.6675 47.4122 28.5996 47.4122 28.5148C47.4122 28.3112 48.0737 28.1586 48.1925 28.3452C48.2434 28.43 48.413 28.4978 48.5657 28.4978C49.1424 28.4978 48.9728 30.1772 48.413 30.1941C48.3621 30.1941 48.0398 29.9397 47.6836 29.6174C47.1069 29.1085 46.9881 29.0746 46.564 29.2272C45.9025 29.4817 45.4784 30.4995 45.5972 31.5512C45.6989 32.4163 45.4106 32.9082 44.8168 32.9082C44.6642 32.9082 44.5285 33.027 44.5285 33.1627C44.5285 33.3153 44.3419 33.5019 44.1214 33.6207C43.6634 33.8242 43.0866 33.6885 43.2563 33.4171C43.5616 32.9252 41.1528 33.1457 40.7118 33.6716C40.627 33.7733 40.0672 33.9599 39.4905 34.0956C38.3879 34.3161 37.9129 34.1974 37.9129 33.6716C37.9129 33.1966 37.4379 33.2644 35.8095 33.9938C35.4533 34.1465 35.114 34.2313 35.0462 34.1804C34.9105 34.0278 35.7077 33.4001 35.8773 33.5019C35.9452 33.5528 36.047 33.468 36.1148 33.3323C36.1657 33.1966 36.3353 33.0778 36.4711 33.0778C36.6237 33.0778 36.6916 32.993 36.6407 32.9082C36.5728 32.8064 36.4371 32.7895 36.3353 32.8573C36.1996 32.9421 36.1996 32.8912 36.3353 32.7047C36.4541 32.569 36.505 32.3993 36.4371 32.3484C36.3862 32.2806 36.4202 32.2297 36.5219 32.2297C36.6407 32.2297 36.7255 32.094 36.7425 31.9244C36.7594 31.7378 36.8103 31.7887 36.8782 32.0601C36.9799 32.4333 37.0987 32.4841 37.7433 32.4841C38.3709 32.4841 38.5066 32.4163 38.5745 32.1449C38.6593 31.653 39.1003 31.3985 39.8297 31.3815C40.3047 31.3815 40.4574 31.3137 40.4574 31.0762C40.4574 30.8387 40.4913 30.8218 40.627 31.0423C40.7118 31.178 40.8136 31.2458 40.8475 31.2119C41.0511 30.9914 41.4582 29.787 41.3734 29.7022C41.3055 29.6513 41.2207 29.7022 41.1868 29.804C41.0511 30.1941 40.7796 30.0415 40.8814 29.6343C40.9662 29.329 41.068 28.7183 41.1189 28.1416C41.1359 28.0738 41.3055 27.972 41.526 27.9041C41.7296 27.8363 41.9331 27.7684 41.984 27.7515C42.0349 27.7345 42.2385 27.6667 42.459 27.5818C42.6626 27.514 42.8322 27.3444 42.8322 27.1917C42.8322 27.039 42.9509 26.8355 43.0866 26.7337C43.2902 26.581 43.2902 26.4792 43.1205 26.14C42.917 25.7159 42.7813 25.6311 41.8992 25.2409C41.3734 25.0035 41.1868 24.6133 41.4073 24.1214C41.4751 23.9687 41.526 23.6295 41.526 23.392C41.526 23.1036 41.6787 22.8492 42.001 22.6286C42.2724 22.459 42.4929 22.2215 42.4929 22.1367C42.4929 21.9671 43.6803 21.3734 44.0365 21.3734C44.1214 21.3734 44.4776 21.102 44.8338 20.7627C45.2918 20.3217 45.3936 20.1351 45.224 20.0333C45.0374 19.9146 45.0713 19.7789 45.3766 19.3717C45.5972 19.0834 45.8346 18.8798 45.9194 18.9307C45.9873 18.9816 46.0551 18.9307 46.0551 18.8459C46.0551 18.6423 47.3952 18.5914 48.2434 18.7611L48.2434 18.7611ZM35.0292 20.3895C35.0292 20.627 34.215 21.3734 33.9605 21.3734C33.8757 21.3734 33.8927 21.2546 34.0114 21.1189C34.1302 20.9832 34.1641 20.8645 34.0962 20.8645C34.0114 20.8645 34.1302 20.7118 34.3507 20.5252C34.7917 20.1351 35.0292 20.1011 35.0292 20.3895L35.0292 20.3895ZM32.4758 22.884C32.3547 23.2587 31.9912 23.3836 31.7085 23.009C31.3855 22.6343 31.5066 22.2597 31.9508 22.2597C32.395 22.1347 32.6373 22.5094 32.4758 22.884L32.4758 22.884ZM35.8596 33.1433C35.8596 33.2765 35.6846 33.5094 35.4596 33.6093C35.2596 33.7091 35.1596 33.6758 35.2346 33.4761C35.3096 33.2765 35.2596 33.1433 35.1346 33.1433C34.9846 33.1433 34.8596 33.0102 34.8596 32.8438C34.8596 32.6774 35.0846 32.6109 35.3596 32.7107C35.6346 32.8105 35.8596 33.0102 35.8596 33.1433L35.8596 33.1433ZM46.158 33.3812C45.8011 33.6613 45.5463 33.7013 45.5463 33.4613C45.5463 32.9012 46.158 32.4211 46.5148 32.7012C46.6167 32.8212 46.4638 33.1412 46.158 33.3812L46.158 33.3812ZM34.6899 33.2775C34.6899 33.1175 34.7917 33.1495 34.9274 33.3736C35.2836 33.9817 34.7747 34.4619 34.2489 33.9817C33.6891 33.5016 33.7061 32.9254 34.2659 33.3095C34.5373 33.5016 34.6899 33.5016 34.6899 33.2775L34.6899 33.2775ZM29.3164 36.606C29.1904 36.8499 28.8545 37.0531 28.6445 37.0531C28.4345 37.0531 28.4765 36.8092 28.7705 36.4841C29.3583 35.8338 29.7783 35.9557 29.3164 36.606L29.3164 36.606ZM66.5804 44.4261C66.2581 44.5957 65.9358 44.7145 65.8679 44.6636C65.7831 44.6297 65.7322 44.6975 65.7322 44.8332C65.7322 44.9689 65.9019 45.1385 66.1224 45.1894C66.4447 45.2912 66.4616 45.3251 66.2242 45.4608C66.0715 45.5457 65.8849 45.8171 65.834 46.0715C65.7153 46.4956 65.6814 46.5125 64.7145 46.4277C64.1716 46.3938 63.6458 46.4277 63.561 46.5125C63.4592 46.6143 63.2556 46.4956 63.0521 46.2242L62.6958 45.7662L63.1539 45.2742C63.4083 45.0028 63.8493 44.7653 64.1207 44.7145C64.4091 44.6805 64.7653 44.5957 64.9519 44.5279C65.393 44.3413 66.2581 44.1377 66.75 44.1208C67.1232 44.1038 67.1062 44.1377 66.5804 44.4261L66.5804 44.4261ZM47.6354 56.8769C47.7491 56.843 47.7946 56.9448 47.7264 57.0805C47.6354 57.2162 47.4988 57.3349 47.3851 57.3349C47.2713 57.3349 47.112 57.3519 47.021 57.3689C46.93 57.4028 46.839 57.1483 46.7935 56.826C46.7252 56.2493 46.7252 56.2493 47.0893 56.5716C47.2713 56.7582 47.5216 56.8939 47.6354 56.8769L47.6354 56.8769ZM50.9127 56.8151C51.265 57.2201 51.265 57.3214 50.8585 57.3214C50.6147 57.3214 50.3166 57.0682 50.2353 56.8151C50.0186 56.1568 50.3708 56.1568 50.9127 56.8151L50.9127 56.8151ZM50.1173 57.6582C49.9962 58.0328 49.6327 58.1578 49.35 57.7831C49.027 57.4085 49.1481 57.0338 49.5923 57.0338C50.0366 56.909 50.2789 57.2836 50.1173 57.6582L50.1173 57.6582ZM50.5744 58.1822C50.1998 58.5053 49.8251 58.3841 49.8251 57.9399C49.7002 57.4957 50.0749 57.2534 50.4495 57.415C50.8242 57.5361 50.949 57.8995 50.5744 58.1822L50.5744 58.1822Z" id="path2387" fill="#D5E2E9" fill-rule="evenodd" stroke="none" />
    <path d="M1.71391 17.7433C1.56125 17.879 1.28984 18.0147 1.10324 18.0317C0.916657 18.0486 0.763992 18.1504 0.763992 18.2691C0.763992 18.3879 0.696136 18.4897 0.628281 18.4897C0.543472 18.4897 0.339905 18.6084 0.15332 18.7441C-0.135056 18.9986 -0.0841675 18.9986 0.899689 18.9477C2.23976 18.8628 2.37547 19.253 1.05235 19.4396C0.255096 19.5583 0.0515442 19.6601 0.170273 19.8467C0.221176 19.9315 0.356873 20.0163 0.441681 20.0163C0.543472 20.0163 0.577393 19.9485 0.526505 19.8806C0.407761 19.6771 1.67999 19.8637 1.81569 20.0842C2.07013 20.4574 1.9514 20.6948 1.52731 20.6948C1.27287 20.6948 1.10324 20.7966 1.10324 20.9323C1.10324 21.102 1.30681 21.1529 1.91747 21.1189C2.37547 21.085 2.95221 21.1698 3.25755 21.3225C3.9191 21.6278 5.41185 21.6787 6.10733 21.4243C7.05725 21.068 7.80364 20.8306 8.58392 20.61C9.6526 20.3047 10.7722 19.5753 10.7722 19.1851C10.7722 18.9986 10.5686 18.795 10.2633 18.6593C9.99185 18.5406 9.80527 18.3879 9.85616 18.3031C9.90704 18.2183 9.83919 18.1504 9.72044 18.1504C9.58475 18.1334 9.63564 18.0317 9.83919 17.879C10.1615 17.6246 10.1445 17.6076 9.55081 17.7094C9.1946 17.7772 8.88927 17.7433 8.82141 17.6415C8.65178 17.3701 8.05807 17.438 8.05807 17.7263C8.05807 17.879 7.90541 17.9808 7.68489 17.9808C7.46437 17.9808 6.81978 17.9808 6.24303 17.9808C5.4288 17.9808 5.15741 18.0486 5.0217 18.2861C4.86903 18.5575 4.85207 18.5575 4.75029 18.2691C4.58066 17.862 4.15659 17.9129 4.15659 18.337C4.15659 18.5745 4.07178 18.6593 3.90215 18.6084C3.76643 18.5406 3.61377 18.5745 3.56288 18.6593C3.37628 18.9477 3.17273 18.8459 3.25755 18.5066C3.30844 18.2861 3.15576 18.0995 2.71474 17.8281C1.98532 17.404 2.03621 17.404 1.71391 17.7433L1.71391 17.7433Z" id="path2389" fill="#D5E2E9" stroke="none" />
    <path d="M16.3191 23.0188C16.1325 23.1884 16.1833 23.6125 16.353 23.4938C16.4378 23.4429 16.5735 23.4938 16.6414 23.5955C16.6922 23.6973 16.6583 23.85 16.5565 23.9178C16.4039 24.0026 16.4378 24.1044 16.6414 24.2741C16.9128 24.4776 16.9297 24.4776 16.8279 24.2232C16.7771 24.0535 16.794 23.8839 16.8958 23.833C16.9806 23.7652 17.0145 23.6634 16.9637 23.5786C16.9128 23.4938 16.9467 23.392 17.0485 23.3241C17.1333 23.2732 17.2181 23.1206 17.2181 23.0188C17.2181 22.8831 17.1672 22.8831 17.0654 23.0527C16.9637 23.2054 16.8788 23.2224 16.811 23.0866C16.6753 22.8831 16.4887 22.8492 16.3191 23.0188L16.3191 23.0188Z" id="path2391" fill="#D5E2E9" stroke="none" />
    <path d="M19.9491 27.1917C19.8474 27.2935 19.7625 27.4801 19.7625 27.5988C19.7625 27.8532 19.0501 28.0568 18.4903 27.955C18.185 27.8872 17.9984 27.972 17.8118 28.2773C17.3707 28.9389 16.8788 29.3629 16.6922 29.2612C16.6074 29.1933 16.4208 29.2442 16.2682 29.346C16.0816 29.5156 16.0646 29.6174 16.2342 29.8209C16.353 29.9566 16.4378 30.1093 16.4208 30.1432C16.3869 30.1602 16.3699 30.245 16.3699 30.3129C16.3699 30.3977 16.4378 30.3468 16.5226 30.2111C16.6074 30.0754 16.7092 30.0584 16.777 30.1602C16.8279 30.262 16.6244 30.4316 16.2851 30.5334C15.9628 30.6352 15.6914 30.8048 15.6914 30.8896C15.6914 30.9914 15.8271 30.9744 16.0307 30.8727C16.3021 30.7369 16.3699 30.7369 16.3699 30.9405C16.3699 31.0762 16.5056 31.2119 16.6753 31.2628C16.8958 31.3137 16.8619 31.3646 16.5056 31.5173C16.2342 31.619 16.0307 31.7887 16.0307 31.8735C16.0307 32.1449 16.3699 32.2636 16.6074 32.077C16.8449 31.8904 17.0484 31.9922 17.0484 32.2975C17.0484 32.3993 16.9636 32.3654 16.8788 32.2297C16.7431 32.0092 16.7092 32.0261 16.7092 32.2806C16.7092 32.535 16.794 32.569 17.2181 32.4841C17.6422 32.3993 17.71 32.4163 17.6252 32.6368C17.5743 32.7895 17.4556 32.9082 17.3707 32.9082C17.269 32.9082 17.2859 33.0778 17.4047 33.2644C17.5065 33.468 17.6422 33.5698 17.71 33.485C17.8796 33.2475 19.084 33.2475 18.9822 33.485C18.9483 33.5867 19.0501 33.8412 19.2197 34.0108C19.5251 34.367 19.5251 34.9438 19.1858 35.1473C19.084 35.2152 18.7108 35.2321 18.3716 35.1813C17.9814 35.1473 17.727 35.1813 17.727 35.283C17.727 35.3848 17.8118 35.4187 17.8966 35.3679C18.2019 35.1813 18.0832 35.4357 17.693 35.7919L17.3029 36.1651L17.727 36.0973C18.4733 35.9955 18.3546 36.5553 17.5573 36.8776C16.6074 37.2507 16.6753 37.7088 17.71 37.7596C18.5242 37.7936 19.1349 38.1667 18.3885 38.1667C17.9814 38.1667 17.2181 38.7096 17.2181 38.9979C17.2181 39.0658 16.9467 39.2693 16.6244 39.439C16.3021 39.6256 16.0816 39.7952 16.1324 39.8461C16.319 40.0327 16.777 39.9987 17.1672 39.7443C17.4047 39.5916 17.7439 39.5238 18.0323 39.5747C18.3885 39.6425 18.5921 39.5747 18.7956 39.3542C19.0162 39.0827 19.2536 39.0488 20.2545 39.0997C20.916 39.1336 21.4588 39.0997 21.4588 39.0149C21.4588 38.947 21.7811 38.8962 22.1882 38.9131C22.9346 38.964 24.3425 38.4721 24.3425 38.1837C24.3425 38.0819 24.2238 37.9971 24.0881 37.9971C23.7658 37.9971 23.7488 37.5561 24.0711 37.4373C24.5461 37.2507 24.8854 36.5213 24.6988 36.1481C24.4613 35.7241 23.5792 35.5205 23.1891 35.8258C22.9346 36.0124 22.9176 36.0124 23.1212 35.775C23.2908 35.5544 23.2908 35.4018 23.1212 35.0116C23.0194 34.7402 22.9176 34.4349 22.9176 34.3501C22.9007 34.1296 22.4257 33.6716 21.9847 33.4171C21.7981 33.3153 21.5776 33.027 21.5267 32.7725C21.3571 32.1279 20.916 31.5681 20.5768 31.5512C20.1696 31.5512 20.1866 31.0084 20.6107 30.703C20.7973 30.5673 20.9499 30.3638 20.9499 30.262C20.9499 30.1432 21.0687 29.9227 21.2213 29.787C21.6285 29.3629 21.3401 29.1764 20.2714 29.1764C19.7286 29.1764 19.2197 29.0915 19.1688 29.0067C19.1179 28.9049 19.1519 28.8371 19.2536 28.8371C19.3724 28.8371 19.6438 28.6844 19.8813 28.4978C20.1188 28.3112 20.2545 28.1586 20.1866 28.1586C20.1018 28.1586 20.2036 27.9889 20.3902 27.7684C20.5768 27.5649 20.7803 27.3104 20.8312 27.2086C20.9839 26.9542 20.1866 26.9542 19.9491 27.1917L19.9491 27.1917ZM17.4308 29.846C17.4308 30.096 17.1262 30.346 16.7605 30.346C16.4558 30.346 16.3339 30.096 16.5167 29.846C16.6996 29.546 17.0043 29.346 17.1871 29.346C17.309 29.346 17.4308 29.546 17.4308 29.846L17.4308 29.846Z" id="path2393" fill="#D5E2E9" fill-rule="evenodd" stroke="none" />
    <path d="M14.3853 32.535C13.9782 32.6707 13.181 33.5867 13.4863 33.5867C13.5881 33.5867 13.622 33.6716 13.5711 33.7564C13.5202 33.8582 13.1301 33.8921 12.706 33.8582C12.1123 33.7903 11.9257 33.8412 11.79 34.0956C11.6712 34.3161 11.6882 34.4349 11.8409 34.4858C11.9935 34.5536 11.9935 34.6045 11.8409 34.7911C11.5186 35.1134 11.5695 35.2321 12.0444 35.3509C12.6382 35.5036 12.5703 35.7919 11.79 36.3687C11.1624 36.8436 10.874 37.4882 11.2981 37.4882C11.3829 37.4882 11.4168 37.573 11.349 37.6918C11.2641 37.8275 11.315 37.8444 11.5016 37.7766C11.6712 37.7257 11.79 37.7427 11.79 37.8444C11.79 38.1328 13.0961 37.8444 13.9613 37.3864C14.3853 37.1659 14.9621 36.9793 15.2674 36.9793C15.7424 36.9793 15.8272 36.9115 15.9968 36.3178C16.1156 35.9616 16.2004 35.3679 16.2004 34.9947C16.2004 34.4349 16.2682 34.2822 16.6245 34.1296C17.1164 33.909 17.1673 33.485 16.7432 32.9761C16.4039 32.5859 15.0639 32.3315 14.3853 32.535L14.3853 32.535Z" id="path2395" fill="#D5E2E9" stroke="none" />
    <path d="M33.0954 50.0748C33.0275 50.2274 32.7901 50.3971 32.5695 50.448C32.349 50.4989 32.1455 50.6854 32.1115 50.8551C32.0098 51.2961 32.2642 52.0934 32.5865 52.3309C32.8579 52.5174 32.841 52.5683 32.4169 52.8397C32.0607 53.0772 31.925 53.1111 31.8232 52.9415C31.7214 52.7888 31.6535 52.8228 31.6027 53.0433C31.5518 53.2299 31.6196 53.5183 31.7384 53.6879C31.8741 53.8575 31.9419 54.1629 31.891 54.3495C31.6366 55.6895 31.6366 55.7913 32.0098 55.9949C32.3151 56.1475 32.4169 56.1306 32.5865 55.8931C32.7052 55.7234 32.9258 55.6386 33.0615 55.6895C33.3838 55.8252 33.4855 55.5029 33.5364 54.0611C33.5873 53.0942 33.5364 52.8567 33.282 52.6701C33.0106 52.4666 32.9936 52.3648 33.1633 51.788C33.3838 51.0756 33.3329 49.5829 33.0954 50.0748L33.0954 50.0748Z" id="path2397" fill="#D5E2E9" stroke="none" />
    <path d="M50.4148 60.6767C50.3469 60.7275 50.296 60.9141 50.296 61.0668C50.296 61.2873 50.4996 61.3891 51.0085 61.4739C51.3986 61.5418 51.7718 61.6605 51.8227 61.7623C51.8905 61.8641 52.2807 61.8641 52.8405 61.7962C53.7056 61.6605 54.0279 61.44 53.5359 61.2704C53.3833 61.2195 53.3494 61.2704 53.4342 61.423C53.5359 61.5927 53.4681 61.5757 53.2476 61.3891C53.078 61.2364 52.5521 61.1007 52.0771 61.0838C51.6191 61.0498 51.1951 60.965 51.1781 60.8802C51.1442 60.7954 51.0424 60.7784 50.9406 60.8293C50.8388 60.8972 50.7201 60.8463 50.6522 60.7445C50.5844 60.6427 50.4826 60.6088 50.4148 60.6767L50.4148 60.6767Z" id="path2399" fill="#D5E2E9" stroke="none" />
  </g>
</svg>