<?xml version="1.0" encoding="utf-8"?>
<svg width="172.94177px" height="104.123886px" viewBox="0 0 172.94177 104.123886" version="1.1" xmlns:xlink="http://www.w3.org/1999/xlink" xmlns="http://www.w3.org/2000/svg">
  <g id="north_america">
    <path d="M153.914 0.0856962C152.658 0.153537 150.589 0.255328 149.334 0.306216C148.078 0.357104 146.823 0.45888 146.535 0.526736C146.263 0.577624 145.839 0.611545 145.602 0.594577L145.178 0.543689L145.602 0.899921C145.941 1.17133 145.975 1.23917 145.737 1.25614C145.585 1.25614 145.398 1.17133 145.33 1.06955C145.279 0.967761 145.076 0.916873 144.906 0.967761C144.72 1.01866 144.465 0.950809 144.346 0.815097C144.058 0.543689 143.838 0.492801 143.99 0.747256C144.058 0.849032 143.838 0.916873 143.481 0.916873C142.972 0.916873 142.871 0.967761 142.956 1.18828C143.04 1.4088 142.989 1.44274 142.684 1.34096C141.734 1.06955 141.124 1.06955 140.903 1.35791C140.699 1.64629 140.682 1.64629 140.682 1.34096C140.682 1.05258 140.547 1.03562 138.766 1.13739C137.714 1.20525 136.357 1.29007 135.763 1.34096C135.153 1.39185 134.762 1.39185 134.881 1.32399C135.288 1.12044 135.068 0.916873 134.44 0.916873C134.084 0.916873 133.711 0.832065 133.592 0.713321C133.456 0.577624 131.726 0.509768 127.587 0.492801C121.667 0.45888 119.75 0.560657 118.546 0.967761C118.071 1.13739 117.681 1.15436 117.155 1.05258C116.68 0.950809 116.12 0.950809 115.526 1.0865C115.017 1.18828 114 1.30703 113.27 1.34096C111.32 1.44274 110.149 1.61237 110.149 1.78199C110.149 1.86681 110.302 1.93466 110.488 1.93466C110.675 1.93466 110.828 2.03644 110.828 2.17214C110.828 2.29088 111.082 2.47748 111.387 2.57926C111.761 2.698 111.828 2.74889 111.591 2.76584C111.387 2.78281 111.133 2.88459 111.014 2.98636C110.845 3.17296 110.811 3.15599 110.862 2.96941C110.895 2.8337 110.743 2.71495 110.505 2.68103C110.268 2.63015 109.946 2.46051 109.776 2.27391C109.538 2.01947 109.233 1.93466 108.622 1.93466C108.164 1.93466 107.74 2.00251 107.689 2.10428C107.639 2.18911 107.316 2.27391 106.994 2.27391C106.672 2.27391 106.417 2.34177 106.417 2.44355C106.417 2.52837 106.248 2.61318 106.044 2.63015C105.824 2.63015 105.315 2.76584 104.891 2.93547C104.297 3.18991 104.144 3.32563 104.144 3.64792C104.127 3.97022 104.246 4.07199 104.636 4.12288C105.009 4.15682 105.06 4.20771 104.857 4.29251C104.585 4.39429 104.585 4.42823 104.891 4.81836C105.196 5.22548 105.264 5.24245 107.469 5.2594C109.759 5.27637 110.929 5.49689 110.251 5.7683C110.03 5.85311 109.895 5.81919 109.844 5.70044C109.776 5.49689 108.521 5.41207 108.063 5.59867C107.91 5.64955 107.842 5.81919 107.91 6.03971C107.978 6.34503 107.944 6.37897 107.639 6.29415C107.435 6.24326 106.841 6.31111 106.332 6.42986C105.824 6.5486 105.382 6.59949 105.332 6.56555C105.196 6.42986 104.551 6.70127 104.551 6.8709C104.551 6.97267 104.636 6.98963 104.755 6.92179C104.874 6.83696 104.891 6.8709 104.823 7.00659C104.721 7.15926 104.619 7.14231 104.382 6.93874C104.144 6.71822 103.89 6.6843 103.313 6.76911C102.821 6.83696 102.516 6.82001 102.448 6.70127C102.38 6.59949 102.143 6.51467 101.922 6.51467C101.702 6.51467 101.481 6.44681 101.43 6.362C101.328 6.19237 99.7677 6.32808 99.632 6.51467C99.5811 6.58252 99.4285 6.6843 99.2928 6.73519C99.0892 6.80304 99.0892 6.83696 99.3267 6.83696C99.6151 6.85393 99.9374 7.61727 99.7508 7.80385C99.7168 7.85474 99.1401 7.9226 98.5125 7.95653L97.342 8.04134L97.8339 7.6003C98.275 7.19319 98.275 7.12534 98.0375 6.8709C97.817 6.65038 97.6982 6.65038 97.4268 6.82001C97.0197 7.07445 96.8671 7.07445 97.0028 6.85393C97.1554 6.59949 95.985 6.65038 94.9502 6.95571C94.3735 7.12534 94.0342 7.31192 94.0342 7.4646C94.0342 7.6003 93.9494 7.66816 93.8646 7.61727C93.7628 7.54941 93.7289 7.44764 93.7798 7.36283C93.9155 7.14231 93.0673 6.6843 92.745 6.80304C92.3379 6.95571 91.7782 7.53244 92.0326 7.53244C92.1344 7.53244 92.1683 7.58333 92.1174 7.65119C91.8969 7.85474 92.6093 8.194 93.2879 8.21097C93.8646 8.21097 94.0003 8.26186 93.9664 8.49935C93.9494 8.77075 94.1021 8.80468 95.2047 8.75379C96.1376 8.71985 96.5108 8.63504 96.6635 8.43149C96.7992 8.24489 96.9688 8.194 97.1893 8.29578C97.4099 8.3806 97.4438 8.44844 97.2911 8.49935C97.1215 8.56719 97.1554 8.65201 97.3759 8.82164C97.5625 8.95734 97.5965 9.04216 97.4777 9.05912C97.1724 9.05912 97.2063 9.39838 97.5116 9.39838C97.6474 9.39838 97.7661 9.33052 97.7661 9.24572C97.7661 9.17786 98.1393 9.14394 98.5973 9.19483C99.3436 9.26267 99.4963 9.21178 99.9034 8.80468C100.277 8.43149 100.311 8.31275 100.124 8.17704C99.9374 8.05831 99.9374 7.99045 100.107 7.9226C100.209 7.88867 100.311 7.73601 100.311 7.6003C100.311 7.24408 101.769 7.278 101.905 7.63423C101.973 7.7869 101.99 7.93956 101.973 7.93956C101.939 7.95653 101.718 8.05831 101.481 8.16008C101.074 8.32971 100.684 9.0252 100.955 9.07608C101.481 9.17786 102.329 9.22875 104.941 9.33052C107.113 9.41535 108.012 9.38141 108.181 9.24572C108.368 9.09305 108.453 9.09305 108.538 9.24572C108.673 9.44927 110.522 9.34749 111.506 9.05912C112.049 8.90645 112.524 8.5163 112.524 8.22794C112.524 7.70208 110.183 7.58333 107.876 7.97348C107.13 8.09223 106.468 8.16008 106.383 8.10919C106.298 8.05831 105.891 7.99045 105.467 7.97348C104.704 7.9226 103.958 7.53244 104.653 7.53244C104.857 7.53244 105.06 7.48155 105.128 7.39675C105.196 7.32889 106.231 7.26103 107.401 7.26103C108.588 7.24408 110.013 7.22711 110.573 7.21015C111.133 7.19319 111.744 7.17623 111.93 7.19319C112.269 7.21015 112.269 7.21015 111.93 7.37978C111.693 7.48155 111.896 7.51549 112.609 7.44764C113.355 7.39675 113.525 7.41371 113.253 7.53244C112.744 7.73601 112.761 7.87171 113.304 7.87171C113.593 7.87171 113.779 7.76993 113.83 7.53244C113.881 7.32889 114.068 7.19319 114.305 7.19319C114.933 7.19319 115.747 6.83696 115.747 6.56555C115.747 6.37897 115.628 6.32808 115.306 6.41289C115.017 6.4977 114.916 6.46378 114.984 6.34503C115.034 6.26023 115.255 6.1754 115.458 6.1754C115.662 6.1754 116.069 6.05667 116.341 5.90399C116.629 5.75133 117.24 5.59867 117.698 5.56475C118.885 5.46297 119.258 5.32726 118.953 5.14066C118.8 5.03888 118.902 5.02193 119.241 5.08977C119.564 5.15763 119.818 5.10674 119.886 5.00496C119.954 4.90319 120.14 4.81836 120.31 4.81836C120.48 4.81836 120.785 4.63178 120.988 4.41126C121.379 4.00414 121.82 3.88541 123.703 3.69881C124.211 3.66489 124.873 3.49526 125.178 3.35955C125.484 3.20688 125.823 3.07119 125.959 3.05422C129.504 2.40963 130.471 2.18911 130.284 2.07036C130.182 2.00251 130.369 1.98555 130.708 2.05339C131.064 2.10428 131.438 2.07036 131.556 1.96859C131.794 1.79895 134.237 1.35791 134.355 1.49362C134.389 1.52754 134.304 1.68021 134.152 1.83289C133.965 2.01947 133.558 2.10428 132.913 2.10428C131.624 2.12125 128.096 2.81673 127.994 3.08814C127.96 3.22385 128.164 3.29171 128.707 3.29171C129.131 3.29171 129.487 3.35955 129.487 3.46132C129.487 3.78363 128.69 4.02111 127.112 4.15682C124.635 4.36037 121.972 4.76747 121.463 5.03888L121.005 5.27637L121.446 5.46297C121.684 5.5817 122.006 5.66652 122.193 5.66652C122.362 5.66652 122.549 5.73438 122.6 5.80222C122.634 5.87007 122.261 5.92096 121.752 5.90399C121.243 5.88704 120.785 5.93793 120.734 6.02274C120.683 6.10756 120.836 6.1754 121.073 6.1754C121.362 6.1754 121.48 6.24326 121.413 6.39592C121.26 6.78608 122.6 7.56638 123.584 7.66816C124.177 7.71904 124.415 7.68512 124.33 7.56638C124.262 7.44764 124.381 7.43067 124.754 7.53244C125.06 7.61727 125.348 7.65119 125.433 7.6003C125.84 7.34586 128.316 7.41371 129.555 7.71904C130.895 8.04134 131.319 8.21097 130.793 8.21097C130.403 8.21097 130.606 8.66896 131.064 8.78771C131.421 8.88948 131.421 8.90645 131.132 9.12697C130.827 9.36446 130.827 9.36446 131.132 9.44927C131.37 9.51712 131.353 9.53408 131.048 9.55104C130.827 9.55104 130.691 9.63587 130.759 9.73764C130.81 9.82245 130.98 9.85639 131.149 9.80548C131.336 9.73764 131.302 9.83942 131.014 10.0939L130.589 10.467L130.98 10.3653C131.37 10.2805 131.37 10.2805 131.081 10.6028C130.81 10.8911 130.81 10.9759 131.014 11.0947C131.217 11.2304 131.183 11.2643 130.895 11.2643C130.471 11.2643 130.369 11.5188 130.725 11.6714C130.861 11.7223 130.776 11.8919 130.454 12.1464C130.047 12.5026 130.013 12.5874 130.216 12.8758C130.403 13.1133 130.589 13.1642 131.064 13.0793C131.404 13.0285 131.726 13.0454 131.777 13.1472C131.828 13.232 131.76 13.249 131.624 13.1981C131.472 13.1472 131.353 13.1811 131.353 13.2829C131.353 13.3847 131.505 13.4695 131.709 13.4695C131.947 13.4695 132.031 13.3677 131.997 13.1642C131.98 13.0115 132.031 12.8758 132.116 12.8758C132.201 12.8758 132.269 12.9776 132.235 13.0793C132.201 13.2151 132.354 13.2999 132.574 13.2999C132.863 13.2999 132.981 13.4016 132.998 13.6391C133.032 13.9953 132.812 14.0971 132.625 13.8088C132.489 13.5882 130.556 13.5882 130.437 13.7918C130.369 13.8766 130.437 13.9953 130.539 14.0462C130.657 14.0971 130.539 14.1141 130.284 14.0632C130.013 14.0123 129.843 14.0293 129.894 14.1141C129.945 14.1989 129.843 14.4703 129.657 14.6908L129.334 15.1149L129.877 15.4202C130.369 15.6747 130.522 15.6747 131.336 15.4711C132.388 15.2167 132.574 14.9792 131.93 14.6739C131.675 14.5721 131.522 14.4194 131.59 14.3685C131.641 14.3007 131.794 14.3516 131.896 14.4534C132.014 14.5721 132.269 14.6569 132.472 14.6569C132.947 14.6569 132.964 15.1997 132.506 15.8782C132.218 16.3023 132.116 16.3193 131.387 16.2345C130.623 16.1496 130.539 16.1836 130.132 16.6755C129.877 16.9639 129.64 17.2014 129.572 17.2014C129.385 17.2014 128.639 18.1004 128.639 18.3209C128.639 18.4566 128.774 18.5584 128.944 18.5754C129.165 18.5754 129.148 18.6093 128.859 18.728C128.435 18.8977 128.045 19.5083 128.283 19.644C128.367 19.6949 128.401 19.9154 128.333 20.119C128.266 20.4074 128.299 20.4583 128.554 20.3734C128.774 20.2886 128.825 20.3225 128.741 20.5091C128.69 20.6449 128.707 20.7636 128.791 20.7636C128.876 20.7636 128.842 21.052 128.724 21.3912C128.537 21.951 128.537 22.0528 128.757 22.1885C128.944 22.2903 128.961 22.3581 128.825 22.4429C128.571 22.5956 128.876 23.4777 129.165 23.4777C129.283 23.4777 129.317 23.6643 129.266 23.9866C129.199 24.258 129.215 24.4955 129.3 24.4955C129.368 24.4955 129.521 24.8008 129.64 25.157C129.741 25.5132 129.945 25.8694 130.081 25.9203C130.216 25.9712 130.335 26.1748 130.335 26.3614C130.335 26.7346 130.539 26.7854 130.98 26.548C131.387 26.3444 132.88 26.8024 132.88 27.1417C132.88 27.2774 133.015 27.43 133.185 27.4809C133.337 27.5318 133.643 27.6506 133.846 27.7523C134.321 27.9898 135.119 27.7184 135.339 27.2435C135.424 27.0399 135.594 26.8703 135.712 26.8703C135.814 26.8703 135.95 26.7176 136.018 26.531C136.069 26.3614 136.374 25.9543 136.679 25.6489C136.985 25.3436 137.29 24.8686 137.358 24.6142C137.426 24.3258 137.646 24.0714 137.901 23.9866C138.121 23.9017 138.528 23.6303 138.783 23.3929C139.037 23.1554 139.376 22.9179 139.546 22.867C139.699 22.8161 139.834 22.6634 139.834 22.5447C139.834 22.409 140.004 22.1546 140.191 21.968C140.428 21.7474 140.53 21.51 140.462 21.2894C140.411 21.1028 140.428 20.9672 140.496 20.9841C140.716 21.052 141.7 20.5431 141.598 20.4074C141.548 20.3225 141.87 20.2547 142.294 20.2547C142.871 20.2547 143.04 20.2038 142.956 20.0342C142.854 19.8815 142.888 19.8815 143.074 20.0172C143.43 20.2886 144.245 20.4583 144.245 20.2547C144.245 20.1699 144.363 20.0851 144.499 20.0851C144.635 20.0851 144.754 20.0002 144.754 19.8985C144.754 19.8137 144.838 19.7797 144.923 19.8306C145.025 19.8985 145.195 19.8815 145.313 19.7967C145.432 19.7119 145.941 19.5083 146.45 19.3387C147.01 19.1521 147.722 18.745 148.231 18.287C148.706 17.8799 149.283 17.5067 149.537 17.4388C149.809 17.388 150.08 17.2183 150.182 17.0657C150.317 16.8282 150.368 16.8112 150.504 17.0148C150.606 17.1844 150.86 17.2183 151.403 17.1335C153.846 16.7603 156.373 16.2006 157.103 15.8443C157.493 15.6577 157.866 15.5051 157.934 15.5051C158.019 15.5051 158.595 15.2845 159.223 15.0131L160.377 14.5382L159.393 14.4194C158.019 14.2668 156.797 14.0293 157.272 13.9953C157.578 13.9784 157.662 13.8936 157.612 13.5882C157.578 13.2829 157.645 13.2151 158.053 13.2151C158.409 13.2151 158.561 13.2999 158.595 13.5204C158.612 13.707 158.68 13.8936 158.748 13.9445C158.901 14.1141 160.682 14.2668 160.885 14.1311C160.987 14.0632 161.106 13.69 161.123 13.2829C161.157 12.5874 161.123 12.5365 160.546 12.2482C160.037 12.0107 160.003 11.9767 160.41 12.0616C160.953 12.1633 161.53 11.8071 161.174 11.5866C161.004 11.4679 161.038 11.4339 161.259 11.4339C161.479 11.4339 161.547 11.3491 161.462 11.1116C161.36 10.7724 161.734 10.5858 162.582 10.5858C163.277 10.5858 163.701 10.0091 163.125 9.85639C162.904 9.80548 162.938 9.77156 163.243 9.73764C163.481 9.72068 163.735 9.70371 163.82 9.72068C164.074 9.77156 165.347 9.17786 165.55 8.90645C165.652 8.77075 165.856 8.71985 166.008 8.77075C166.161 8.82164 166.331 8.80468 166.381 8.71985C166.449 8.61808 166.364 8.55023 166.212 8.55023C166.059 8.55023 165.991 8.46541 166.042 8.3806C166.11 8.27883 165.94 8.21097 165.652 8.21097C165.16 8.21097 164.838 8.58416 165.041 8.90645C165.143 9.07608 164.38 9.12697 164.21 8.94037C164.142 8.88948 164.244 8.71985 164.431 8.60112C164.906 8.26186 164.821 7.41371 164.295 7.05748C163.803 6.73519 164.041 6.56555 164.838 6.65038C165.279 6.70127 165.398 6.78608 165.33 6.98963C165.262 7.14231 165.296 7.21015 165.398 7.14231C165.516 7.05748 165.55 7.14231 165.499 7.36283C165.364 7.88867 165.618 7.75296 165.805 7.19319C165.906 6.90482 166.11 6.6843 166.246 6.6843C166.381 6.6843 166.466 6.56555 166.432 6.37897C166.398 6.1754 166.195 6.09059 165.737 6.05667C165.381 6.05667 165.041 5.98882 164.973 5.92096C164.906 5.83615 165.024 5.81919 165.211 5.87007C165.415 5.92096 165.686 5.90399 165.805 5.81919C165.974 5.71741 165.906 5.64955 165.584 5.51386C165.347 5.42903 165.092 5.2594 165.024 5.15763C164.94 5.02193 164.838 5.02193 164.668 5.17459C164.261 5.51386 164.176 5.17459 164.583 4.83533C164.889 4.56392 165.126 4.51303 165.669 4.59786C166.246 4.6657 166.331 4.64875 166.246 4.41126C166.178 4.22466 166.229 4.13985 166.432 4.12288C166.67 4.12288 166.67 4.08896 166.381 3.97022C165.957 3.80059 166.195 3.69881 167.297 3.58007C167.705 3.52918 168.095 3.41043 168.146 3.32563C168.196 3.22385 168.536 3.10511 168.875 3.03725C169.231 2.96941 169.469 2.85067 169.418 2.76584C169.367 2.68103 169.604 2.61318 169.927 2.61318C170.249 2.61318 170.554 2.54532 170.605 2.47748C170.656 2.39266 171.233 2.23999 171.894 2.12125C173.608 1.81592 173.201 1.57843 170.809 1.45969C169.401 1.4088 168.773 1.44274 168.604 1.57843C168.315 1.81592 167.586 1.66326 167.738 1.4088C167.806 1.32399 167.721 1.25614 167.586 1.25614C167.433 1.25614 167.331 1.34096 167.365 1.45969C167.382 1.56148 167.264 1.69718 167.094 1.7311C166.924 1.76503 166.822 1.69718 166.839 1.57843C166.873 1.45969 166.738 1.32399 166.551 1.29007C166.364 1.25614 166.263 1.2731 166.348 1.35791C166.415 1.42577 166.11 1.62932 165.669 1.79895C164.702 2.17214 164.6 2.17214 165.024 1.88378C165.194 1.74806 165.279 1.56148 165.211 1.44274C165.143 1.34096 165.211 1.22222 165.347 1.17133C165.499 1.12044 165.737 1.05258 165.889 1.0017C166.348 0.849032 166.11 0.781177 164.872 0.662433C164.227 0.594577 163.413 0.441913 163.074 0.323169C162.259 0.0348082 156.95 -0.100904 153.914 0.0856962L153.914 0.0856962ZM147.658 1.60384C147.658 2.20924 147.658 2.20924 146.996 1.88873C146.536 1.67506 146.536 1.63943 147.053 1.39014C147.341 1.24771 147.6 1.10526 147.629 1.10526C147.629 1.06963 147.658 1.31893 147.658 1.60384L147.658 1.60384ZM163.647 1.76409C163.5 2.05392 163.206 2.28582 163.005 2.28582C162.711 2.22788 162.711 2.1699 163.096 1.76409C163.738 1.12639 163.977 1.12639 163.647 1.76409L163.647 1.76409ZM112.854 2.25792C112.733 2.63257 112.37 2.75749 112.087 2.38284C111.764 2.0082 111.885 1.63355 112.329 1.63355C112.773 1.50863 113.016 1.88328 112.854 2.25792L112.854 2.25792ZM113.152 2.94056C112.744 2.97818 112.439 3.12862 112.303 3.3731C112.032 3.86206 111.879 3.82446 111.964 3.27908C112.049 2.77131 112.558 2.60206 113.372 2.79012C113.711 2.86535 113.677 2.90295 113.152 2.94056L113.152 2.94056ZM116.107 2.83025C116.179 2.93926 116.058 3.0483 115.84 3.0483C115.453 3.0483 115.453 3.07011 115.889 3.37535C116.324 3.68061 116.3 3.68061 115.695 3.46257C115.163 3.24453 115.091 3.13552 115.284 2.89566C115.623 2.5468 115.913 2.52499 116.107 2.83025L116.107 2.83025ZM113.561 4.27469C113.561 4.61548 113.453 4.72907 113.309 4.53976C113.13 4.35041 112.878 4.08537 112.662 3.9339C112.447 3.78243 112.59 3.63095 112.95 3.63095C113.273 3.63095 113.561 3.89602 113.561 4.27469L113.561 4.27469ZM113.354 4.38363C113.354 4.56645 113.154 4.87113 112.854 5.05395C112.604 5.23677 112.354 5.11491 112.354 4.81023C112.354 4.44453 112.604 4.13985 112.854 4.13985C113.154 4.13985 113.354 4.26171 113.354 4.38363L113.354 4.38363ZM109.77 5.14865C109.57 5.42214 109.284 5.66146 109.113 5.66146C108.941 5.66146 109.056 5.42214 109.37 5.14865C110.085 4.49907 110.228 4.49907 109.77 5.14865L109.77 5.14865ZM126.417 6.63924C126.188 6.94702 125.797 6.94702 125.601 6.63924C125.372 6.17771 125.535 5.87007 125.992 5.87007C126.449 5.87007 126.613 6.17771 126.417 6.63924L126.417 6.63924ZM123.872 6.80887C123.644 7.11665 123.252 7.11665 123.056 6.80887C122.828 6.34735 122.991 6.03971 123.448 6.03971C123.905 6.03971 124.068 6.34735 123.872 6.80887L123.872 6.80887ZM95.9473 7.44785C96.3774 8.1036 95.9081 8.25791 95.3606 7.60215C95.0478 7.255 95.0478 7.02356 95.2824 7.02356C95.5171 7.02356 95.8299 7.21641 95.9473 7.44785L95.9473 7.44785ZM93.3468 8.02541C93.2256 8.40005 92.8622 8.52486 92.5795 8.15022C92.2564 7.77557 92.3776 7.40092 92.8218 7.40092C93.266 7.27612 93.5083 7.65076 93.3468 8.02541L93.3468 8.02541ZM160.595 10.7465C160.778 10.9965 160.656 11.2465 160.351 11.2465C159.986 11.2465 159.681 10.9965 159.681 10.7465C159.681 10.4465 159.803 10.2465 159.925 10.2465C160.108 10.2465 160.412 10.4465 160.595 10.7465L160.595 10.7465ZM159.562 10.9251C159.07 11.1286 159.053 11.5527 159.528 11.6884C159.986 11.8411 159.868 11.9598 159.376 11.8241C159.155 11.7732 159.003 11.6036 159.003 11.417C159.003 11.2473 158.867 11.0268 158.714 10.942C158.477 10.8063 158.578 10.7724 159.172 10.7724C159.8 10.7724 159.868 10.8063 159.562 10.9251L159.562 10.9251ZM161.44 11.5586C161.251 11.8662 160.872 11.8662 160.629 11.5586C160.359 11.0971 160.521 10.7893 160.954 10.7893C161.413 10.7893 161.602 11.0971 161.44 11.5586L161.44 11.5586ZM161.708 11.7572C161.587 12.1319 161.223 12.2568 160.94 11.882C160.617 11.5074 160.738 11.1328 161.183 11.1328C161.627 11.008 161.869 11.3826 161.708 11.7572L161.708 11.7572ZM129.793 22.5819C129.672 22.7597 129.348 22.5819 129.064 22.167C128.7 21.5742 128.74 21.515 129.307 21.8706C129.712 22.0484 129.915 22.4041 129.793 22.5819L129.793 22.5819Z" id="path2407" fill="#D5E2E9" fill-rule="evenodd" stroke="none" />
    <path d="M96.409 3.95325C95.9849 4.00414 95.6457 4.13985 95.6457 4.25859C95.6457 4.37734 95.493 4.58089 95.3064 4.71659C95.1198 4.8523 95.0011 5.00496 95.052 5.05585C95.1029 5.10674 95.7135 5.17459 96.3921 5.22548C97.0706 5.2594 97.7152 5.37815 97.817 5.47992C97.9187 5.5817 98.2919 5.66652 98.6312 5.66652C99.174 5.66652 99.3097 5.5817 99.5132 5.15763C99.7677 4.6657 99.7677 4.64875 99.2418 4.41126C98.9365 4.27555 98.5124 4.13985 98.2749 4.08896C98.0375 4.03807 97.6982 3.97022 97.5116 3.91933C97.325 3.88541 96.8331 3.88541 96.409 3.95325L96.409 3.95325Z" id="path2409" fill="#D5E2E9" stroke="none" />
    <path d="M89.3355 4.71659C88.0124 4.92016 87.5374 5.15763 88.4534 5.15763C88.7757 5.15763 89.115 5.22548 89.2167 5.29334C89.3355 5.36118 88.8944 5.41207 88.2498 5.41207C87.3847 5.41207 87.0285 5.47993 86.9098 5.66652C86.6723 6.05668 87.1812 6.22629 88.3007 6.10756C89.3355 6.00579 90.1836 5.61564 89.7596 5.446C89.6408 5.39512 89.7935 5.39512 90.1158 5.446C90.5229 5.51386 90.6586 5.49689 90.5738 5.36118C90.489 5.22548 90.5907 5.15763 90.8452 5.15763C91.0657 5.15763 91.3541 5.07282 91.4898 4.988C91.7103 4.83533 91.7103 4.80141 91.4898 4.64875C91.1844 4.46215 90.947 4.46215 89.3355 4.71659L89.3355 4.71659Z" id="path2411" fill="#D5E2E9" stroke="none" />
    <path d="M82.1601 5.98881C81.0406 6.09059 80.2263 6.27719 78.3265 6.87089C78.0381 6.9557 77.614 7.02356 77.3765 7.02356C77.1391 7.02356 76.715 7.10837 76.4097 7.21014C75.7651 7.44763 75.6802 7.85473 76.3248 7.73601C76.5962 7.68512 76.8168 7.75296 76.9016 7.88867C77.0203 8.07525 77.1221 8.0583 77.3935 7.80385C77.631 7.58333 77.7497 7.54941 77.7497 7.70207C77.7497 7.85473 77.9024 7.88867 78.2925 7.80385C78.8014 7.70207 78.8184 7.71904 78.5131 7.93956C78.1908 8.194 78.1908 8.194 78.6318 8.21097C78.8863 8.21097 79.2764 8.14311 79.5139 8.04133C79.7514 7.95653 79.9549 7.92259 79.9549 7.95653C79.9549 8.00741 79.7514 8.12614 79.4969 8.22793C79.0898 8.3806 79.0559 8.43149 79.3103 8.56718C79.463 8.65201 79.921 8.75378 80.3281 8.7877C80.7691 8.82164 81.0406 8.90645 81.0066 9.04216C80.9048 9.51712 81.8548 9.58497 83.9243 9.24571C85.0608 9.05911 86.6723 8.87253 87.5035 8.82164C88.7418 8.75378 89.2167 8.65201 89.9292 8.27882C90.9809 7.73601 90.8791 7.44763 89.6917 7.51549L88.8944 7.54941L89.1658 7.1423C89.4203 6.73518 89.3863 6.51466 89.081 6.51466C88.9962 6.51466 88.9792 6.59949 89.0471 6.71821C89.1149 6.83696 89.098 6.85393 88.9623 6.78607C88.8605 6.71821 88.4873 6.75215 88.1311 6.85393C86.9098 7.22711 86.9776 7.19319 87.249 7.36282C87.4526 7.49852 87.4186 7.53244 87.1303 7.53244C86.6723 7.53244 86.6044 7.82081 87.0454 7.92259C87.1981 7.97348 86.8928 8.00741 86.35 8.02437C85.8072 8.02437 85.4 7.97348 85.4509 7.88867C85.6545 7.56637 84.8912 7.19319 83.8394 7.07445C82.7708 6.97267 82.7538 6.9557 83.2627 6.75215C83.5511 6.63341 83.7037 6.51466 83.602 6.49769C83.5172 6.48074 83.6529 6.42985 83.9243 6.362C84.2126 6.31111 84.4331 6.1754 84.4331 6.09059C84.4501 5.87007 83.7886 5.8531 82.1601 5.98881L82.1601 5.98881ZM81.8039 7.63148L82.5842 7.79676L81.7869 7.73479C81.3628 7.69346 80.9048 7.73479 80.7691 7.83807C80.5995 7.98268 80.6334 8.02399 80.8879 8.04466C81.0745 8.04466 81.1423 8.10663 81.0406 8.14794C80.9388 8.20992 80.6674 8.14794 80.4468 8.04466C80.1585 7.90004 80.1245 7.83807 80.3451 7.83807C80.4977 7.81741 80.6334 7.71412 80.6334 7.59017C80.6334 7.44556 80.4299 7.42489 80.0906 7.50753C79.5308 7.63148 79.5308 7.63148 79.9549 7.34226C80.2433 7.15633 80.4808 7.11502 80.7013 7.25963C80.8709 7.36292 81.3628 7.5282 81.8039 7.63148L81.8039 7.63148ZM82.7045 7.52356C82.6322 7.77354 82.3434 8.02356 82.0785 8.02356C81.8137 8.02356 81.6693 7.77354 81.7415 7.52356C81.8137 7.22357 82.1026 7.02356 82.3674 7.02356C82.6322 7.02356 82.7767 7.22357 82.7045 7.52356L82.7045 7.52356ZM82.3514 9.06456C82.4275 9.39236 82.2182 9.61082 81.8379 9.55623C81.2482 9.50159 81.2292 9.50159 81.6857 9.06456C81.952 8.8461 82.1802 8.62758 82.1992 8.57294C82.2182 8.51835 82.2943 8.73682 82.3514 9.06456L82.3514 9.06456Z" id="path2413" fill="#D5E2E9" fill-rule="evenodd" stroke="none" />
    <path d="M71.9314 9.34749C71.6431 9.39838 71.3886 9.58498 71.2699 9.83942C71.1681 10.0599 70.9815 10.2465 70.8797 10.2465C70.761 10.2465 70.32 10.4331 69.8789 10.6706C69.4379 10.9081 68.9968 11.0947 68.8951 11.0947C68.7933 11.0947 68.5728 11.1965 68.4371 11.3322C68.2844 11.4509 67.8094 11.6884 67.3684 11.858C66.9274 12.0276 66.6051 12.2142 66.656 12.299C66.6899 12.3669 66.8256 12.4008 66.9443 12.3669C67.2666 12.2482 67.7925 12.7401 67.6737 13.0454C67.5211 13.4356 67.9282 13.5204 68.7763 13.249C69.1834 13.1133 69.828 12.9945 70.1842 12.9776C70.5574 12.9606 71.0494 12.8079 71.2868 12.6383C71.8636 12.2312 73.8143 11.5866 73.9331 11.7732C73.984 11.8411 73.7634 11.9598 73.4581 12.0107C73.1697 12.0785 72.7626 12.2312 72.593 12.3669C72.2707 12.6214 72.2707 12.6214 72.576 12.8419C72.8644 13.0624 72.8474 13.0963 72.3555 13.2659C71.7279 13.4865 71.7109 13.5204 72.0841 13.8766C72.3046 14.1141 72.61 14.1311 73.8991 14.0462C75.6463 13.9105 75.6124 13.9105 76.2909 13.9445C76.5623 13.9614 76.7489 14.0293 76.6811 14.0802C76.6302 14.1311 75.7142 14.1989 74.6625 14.2328C72.118 14.2837 71.3038 14.4364 71.3038 14.8435C71.3038 15.4033 71.7788 15.6747 72.7965 15.6747C73.526 15.6747 73.6956 15.7256 73.5429 15.8782C73.4242 15.997 73.3394 16.2006 73.3394 16.3532C73.3394 16.6077 73.5429 16.6246 74.8321 16.5907C75.6463 16.5568 76.698 16.455 77.156 16.3532C77.631 16.2514 78.3435 16.1327 78.7675 16.0988L79.5309 16.0309L78.8523 16.1666C77.4614 16.455 77.1391 16.6755 77.2409 17.354C77.2578 17.5237 77.1221 17.5576 76.6132 17.4558C75.9177 17.3371 75.7651 17.2522 75.9177 17.0996C75.9856 17.0487 76.1722 17.0826 76.3588 17.1844C76.7659 17.4049 76.9694 17.2353 76.6471 16.93C76.4606 16.7434 76.3079 16.7264 75.9347 16.8791C74.9848 17.2522 72.8474 17.4049 72.2537 17.1335C72.0163 17.0148 71.9654 17.0317 72.0502 17.1674C72.135 17.3201 71.9484 17.371 71.3886 17.3371C70.4896 17.3031 70.6762 17.0996 71.7788 16.93C72.6608 16.7943 72.8305 16.5568 72.3385 16.1666C72.0671 15.9461 71.694 15.8613 70.9985 15.8782C70.4726 15.8952 69.6584 15.7765 69.2174 15.6238C68.7763 15.4711 68.3014 15.3354 68.1826 15.3354C68.0469 15.3354 67.8603 15.2167 67.7416 15.081C67.4532 14.7417 66.0792 14.7417 65.4007 15.0979C65.0953 15.2336 64.7052 15.3185 64.5186 15.2506C64.1624 15.1319 64.0436 14.8265 64.349 14.8265C64.4508 14.8265 64.5186 14.8944 64.5186 14.9962C64.5186 15.081 64.6034 15.1658 64.7052 15.1658C64.79 15.1658 64.8409 15.0979 64.79 15.0131C64.7391 14.9283 64.807 14.8265 64.9427 14.7587C65.0784 14.7078 65.1971 14.5891 65.1971 14.4873C65.1971 14.2837 64.3829 14.4364 64.0097 14.7248C63.7722 14.9283 62.8902 15.3354 62.7205 15.3354C62.6866 15.3354 62.7036 15.0301 62.7545 14.6569C62.8393 14.1141 62.8053 13.9614 62.5679 13.8766C62.4152 13.8088 62.2286 13.8427 62.1438 13.9614C61.9742 14.2498 61.1599 14.6569 60.7698 14.6569C60.5493 14.6569 60.4814 14.5721 60.5662 14.3685C60.651 14.148 60.6171 14.1141 60.3457 14.2159C60.1761 14.3007 59.8707 14.3855 59.6842 14.4025C58.5307 14.5721 56.4781 15.0131 56.2407 15.1658C56.0201 15.3015 56.071 15.3185 56.4612 15.2506C56.9022 15.1658 56.9192 15.1658 56.6478 15.3354C56.4103 15.5051 56.2407 15.4881 55.8844 15.3185C55.4095 15.081 53.8319 14.9962 53.8319 15.1997C53.8319 15.2845 53.6792 15.3354 53.5096 15.3354C53.323 15.3354 53.0516 15.4711 52.8989 15.6238C52.407 16.1157 50.5072 15.8274 50.7107 15.2845C50.7616 15.1319 50.5411 15.064 49.8965 15.0301C48.7261 14.9792 48.0645 14.8435 48.0645 14.623C48.0645 14.5382 47.5556 14.4703 46.8432 14.4873C46.1646 14.4873 45.1129 14.4194 44.5023 14.3176C43.8916 14.2159 42.7551 14.0802 41.9578 14.0123C40.8891 13.9275 40.5329 13.8427 40.5669 13.6731C40.6008 13.4865 40.3972 13.4525 39.6678 13.5034C39.0063 13.5374 38.7179 13.4865 38.65 13.3168C38.5991 13.1981 38.4465 13.1302 38.3108 13.1981C38.1751 13.249 38.0054 13.1811 37.9206 13.0285C37.8019 12.8249 37.6492 12.8419 36.7841 13.1472C36.2243 13.3338 35.2744 13.5204 34.6637 13.5543C34.0531 13.5882 33.1031 13.7239 32.5434 13.8766C32.0005 14.0293 31.3051 14.148 30.9997 14.148C30.406 14.148 29.1168 14.5721 27.6919 15.2336C27.1152 15.5051 26.1483 15.7595 25.3171 15.8613C24.5368 15.9631 23.6717 16.1496 23.4173 16.2854C23.1459 16.4211 22.7896 16.5228 22.603 16.5228C22.179 16.5228 22.1959 16.8112 22.62 16.9469C23.078 17.0996 23.4003 17.6763 23.1459 17.9308C22.8575 18.2191 22.9253 18.3888 23.2985 18.3888C23.536 18.3888 23.6039 18.4736 23.519 18.6771C23.3664 19.1012 22.7896 19.5762 22.4673 19.5592C21.9924 19.5253 21.1612 19.2708 21.4495 19.2539C21.6022 19.2539 21.8227 19.1182 21.9415 18.9825C22.2129 18.6432 22.0263 18.6432 20.4996 18.9994C19.0408 19.3217 18.2266 19.5083 17.0222 19.7458C15.9875 19.9663 15.6312 20.1868 16.0553 20.3565C16.3098 20.4583 16.3098 20.5091 16.0044 20.9332C15.5464 21.5609 15.733 21.6626 17.2427 21.6457C17.9043 21.6287 18.5319 21.6966 18.6337 21.7814C18.7694 21.9001 19.0408 21.8662 19.4479 21.6966C20.1604 21.4082 20.6523 21.3573 20.2452 21.6117C20.0416 21.7474 20.0416 21.7814 20.2282 21.7814C20.5844 21.7814 19.6345 22.6126 19.1426 22.7313C18.9051 22.7822 18.4471 22.7822 18.1248 22.7313C17.7855 22.6634 17.5311 22.6804 17.5311 22.7822C17.5311 23.0536 16.4794 23.325 15.8687 23.2063C15.292 23.0875 14.8509 23.2402 13.9349 23.8508C13.6975 24.0205 13.3752 24.1562 13.2225 24.1562C12.9511 24.1562 11.7467 24.6651 11.594 24.8517C11.5432 24.9026 11.2887 25.0043 11.0343 25.0722C10.5593 25.1909 10.1352 25.8864 10.3388 26.2087C10.3897 26.2935 10.237 26.4292 10.0165 26.514C9.66026 26.6498 9.59241 26.7854 9.60938 27.2774C9.62634 27.8202 9.67723 27.888 10.0504 27.888C10.3049 27.888 10.7798 27.8202 11.1191 27.7354C11.6958 27.5997 11.7467 27.6166 11.594 27.888C11.4923 28.0577 11.2717 28.2443 11.1021 28.3121C10.9155 28.363 10.6611 28.6005 10.5084 28.821C10.3557 29.0585 10.1013 29.2451 9.94864 29.2451C9.74508 29.2451 9.71115 29.296 9.84686 29.4317C9.98256 29.5674 10.1352 29.5674 10.4066 29.4147C10.6611 29.279 10.7459 29.279 10.678 29.3978C10.5084 29.6522 10.678 29.6352 11.2548 29.3299C11.8485 29.0246 12.6797 29.1603 12.544 29.5165C12.4252 29.8388 12.9511 29.8218 13.1886 29.4826C13.3412 29.296 13.4939 29.2621 13.7992 29.3808C14.2063 29.5335 14.2063 29.5335 13.46 30.0932C13.0359 30.3986 12.3574 30.7887 11.9333 30.9753C11.5092 31.1619 11.0173 31.3655 10.8307 31.4503C10.6441 31.5351 9.91471 31.7895 9.21923 32.0101C7.67559 32.519 7.01404 32.8073 7.01404 33.0109C7.01404 33.0957 6.86137 33.0787 6.69174 32.9939C6.36944 32.8073 5.82663 32.96 3.87588 33.7064C2.73936 34.1474 2.5358 34.1983 1.89121 34.2661C1.07699 34.351 -0.19524 34.9955 0.02528 35.2161C0.12706 35.3178 0.313652 35.3178 0.534172 35.1991C0.720764 35.0973 1.09395 35.0125 1.36536 35.0125C1.6198 35.0125 2.06084 34.8938 2.34921 34.7411C2.62062 34.6054 3.01077 34.5206 3.19736 34.5715C3.38395 34.6224 3.68929 34.5375 3.85892 34.4188C4.02855 34.2831 4.23211 34.2152 4.31692 34.2492C4.38477 34.3001 4.48655 34.2661 4.5544 34.1644C4.74099 33.8421 5.50433 33.9778 5.60611 34.334C5.70789 34.7241 5.84359 34.7581 6.13196 34.4697C6.26767 34.334 6.38641 34.334 6.573 34.4867C6.77655 34.6563 6.86137 34.6224 7.01404 34.351C7.1667 34.0626 7.14974 33.9947 6.92922 33.9947C6.79352 33.9947 6.67478 33.876 6.67478 33.7233C6.67478 33.5198 6.77655 33.4689 7.09885 33.5537C7.37026 33.6215 7.67559 33.5537 7.947 33.3841C8.16752 33.2484 8.43893 33.1635 8.52374 33.2314C8.7273 33.3501 9.84686 32.8752 10.2031 32.519C10.3388 32.4002 10.5084 32.3324 10.5932 32.3832C10.678 32.4511 10.7459 32.4002 10.7459 32.2984C10.7459 32.1966 10.9495 32.1627 11.2717 32.2136C11.5771 32.2645 11.7467 32.2475 11.6958 32.1458C11.6449 32.0609 11.8994 31.9422 12.2726 31.8743C12.6458 31.8065 13.1207 31.6369 13.3243 31.4672C13.6466 31.2298 14.1046 31.0432 15.3259 30.6869C15.3768 30.67 15.6312 30.5682 15.8857 30.4664C16.1571 30.3477 16.4964 30.2629 16.649 30.2629C16.8017 30.2629 17.2427 30.0763 17.6159 29.8388C17.9891 29.6183 18.4641 29.4147 18.6507 29.4147C19.1595 29.4147 19.5497 28.9398 19.2104 28.7192C19.0238 28.6005 19.0408 28.5666 19.3122 28.5496C19.4988 28.5326 19.7363 28.5326 19.8381 28.5496C19.9568 28.5666 20.0755 28.4648 20.1434 28.3121C20.1943 28.1764 20.4318 28.0577 20.6693 28.0577C20.9067 28.0577 21.0933 27.9729 21.0933 27.888C21.0933 27.7863 21.229 27.7184 21.3987 27.7184C21.5683 27.7184 21.8397 27.6166 22.0263 27.4979C22.5013 27.1756 22.9593 27.0229 22.9593 27.1926C22.9593 27.2604 22.7557 27.4131 22.5182 27.5149C22.2807 27.6336 22.145 27.8032 22.1959 27.888C22.2638 27.9898 22.0772 28.1425 21.7888 28.2443C21.5004 28.346 21.263 28.4987 21.263 28.5835C21.263 28.8549 22.162 28.7362 23.3494 28.3291C23.977 28.1086 24.4859 27.9559 24.4859 28.0068C24.4859 28.0577 24.5877 28.0237 24.7064 27.922C24.9609 27.7015 25.9956 27.6336 26.3858 27.8032C26.5724 27.8711 26.9795 27.7693 27.4545 27.5488C28.1499 27.2095 28.4553 26.8703 28.0482 26.8703C27.9633 26.8703 27.8785 26.9381 27.8785 27.0399C27.8785 27.1247 27.8107 27.2095 27.7259 27.2095C27.641 27.2095 27.5902 27.0738 27.6241 26.9042C27.641 26.7176 27.7937 26.6328 28.0312 26.6498C28.2178 26.6837 28.3874 26.6158 28.3874 26.531C28.3874 26.4292 28.574 26.3614 28.8115 26.3614C29.3034 26.3614 29.3204 26.7346 28.8285 26.8703C28.6419 26.9212 28.4722 27.0569 28.4383 27.1586C28.3874 27.3113 28.5231 27.3113 28.9472 27.1756C29.3543 27.0569 29.6766 27.0569 30.0159 27.1756C30.4908 27.3452 30.4908 27.3622 30.1346 27.464C29.9141 27.5318 29.7445 27.6675 29.7445 27.7523C29.7445 27.8541 29.8632 27.8711 30.0498 27.7863C30.2025 27.7184 30.881 27.6336 31.5425 27.5827C32.4585 27.5318 32.8826 27.5827 33.3067 27.8032C33.6459 27.9729 34.0191 28.0407 34.3075 27.9898C34.5959 27.905 34.6807 27.922 34.5111 28.0407C34.3245 28.1595 34.3584 28.2612 34.7146 28.5666C34.9521 28.7701 35.1896 29.1263 35.2405 29.3469C35.3083 29.5674 35.4271 29.754 35.5119 29.754C35.7833 29.754 35.478 31.0092 35.1048 31.4333C34.8673 31.7047 34.8334 31.8065 35.003 31.7556C35.1896 31.6878 35.2574 31.7726 35.2574 32.044C35.2574 32.2645 35.2065 32.4002 35.1387 32.3493C35.0539 32.3154 35.003 32.4002 35.003 32.5359C35.003 32.9261 35.2744 32.8752 35.5797 32.4341C35.7324 32.2306 35.8851 32.1118 35.936 32.1627C35.9868 32.2136 35.8002 32.4511 35.5119 32.6886C34.9012 33.2144 34.8842 33.3162 35.3931 33.3332L35.7663 33.3332L35.3931 33.4858C35.0708 33.6215 35.02 33.7572 35.0708 34.1983C35.1217 34.6733 35.1896 34.7581 35.6306 34.792C35.9699 34.8259 36.2582 34.7241 36.4448 34.5036C36.7332 34.1813 36.7671 34.1813 36.9707 34.4697C37.1742 34.7411 37.1912 34.7241 37.3778 34.334L37.5474 33.9099L37.4626 34.3679C37.4117 34.6224 37.4457 34.8768 37.5474 34.9277C37.6323 34.9786 37.7171 35.1312 37.7171 35.233C37.7171 35.3687 37.6662 35.3518 37.5644 35.1991C37.4457 35.0125 37.3778 35.0295 37.2421 35.2839C37.1403 35.4535 37.0046 35.5553 36.9537 35.4875C36.7841 35.3178 36.3091 35.8098 36.4448 36.0133C36.4957 36.0981 36.4618 36.2169 36.36 36.2847C36.1056 36.4544 36.1565 36.6579 36.5636 37.0481C36.7671 37.2347 36.835 37.3873 36.7162 37.3873C36.5975 37.3873 36.5297 37.54 36.5636 37.7605C36.5975 37.981 36.7162 38.1337 36.852 38.0998C37.0046 38.0658 36.9707 38.2355 36.7332 38.6426C36.4957 39.0327 36.4448 39.2872 36.5636 39.355C36.6823 39.4229 36.6654 39.5077 36.5297 39.5925C36.36 39.6943 36.4448 39.847 36.8011 40.2032C37.1573 40.5424 37.2082 40.6273 36.9537 40.5255C36.5127 40.3559 36.2074 40.3559 35.7324 40.5085C35.4949 40.5764 35.3423 40.5594 35.3423 40.4576C35.3423 40.3728 35.5119 40.2541 35.7324 40.2201C36.0547 40.1693 36.0547 40.1523 35.6815 40.1693C35.3253 40.1862 35.2574 40.271 35.2914 40.6442C35.3083 40.9156 35.2405 41.1192 35.1217 41.1192C35.003 41.1192 35.1048 41.221 35.3423 41.3397C35.5797 41.4585 35.7833 41.645 35.7833 41.7638C35.8002 41.8825 35.8172 42.0352 35.8342 42.12C35.8342 42.2048 36.0038 42.3405 36.1904 42.3914C36.377 42.4593 36.4957 42.578 36.4448 42.6628C36.377 42.7476 36.4618 42.8664 36.5975 42.9173C36.7502 42.9682 36.818 43.0869 36.7671 43.1717C36.7162 43.2565 36.7841 43.3244 36.9028 43.3244C37.0216 43.3244 37.2591 43.4431 37.4457 43.5788C37.734 43.7993 37.734 43.8163 37.293 43.7824C36.7841 43.7484 36.7162 43.8333 36.2922 45.1564C36.0038 46.0385 35.0369 47.8365 34.6128 48.2776C34.4941 48.3963 34.2057 48.7695 33.9852 49.0918C33.7647 49.4141 33.2728 50.0078 32.8996 50.4149C31.9666 51.4157 31.6613 51.9246 31.3559 52.9085C31.2202 53.3665 30.8131 54.1298 30.4399 54.5709C29.8632 55.2494 29.7953 55.436 29.948 55.7074C30.1007 55.9448 30.0667 56.1484 29.8462 56.6403C29.5918 57.1492 29.5748 57.3528 29.7275 57.692C29.8462 57.9295 29.8802 58.2518 29.8293 58.4215C29.7784 58.5911 29.8123 58.7777 29.8971 58.8286C29.9819 58.8964 30.0159 59.2017 29.965 59.541C29.8971 59.9651 29.931 60.2026 30.1007 60.3043C30.3042 60.44 30.3042 60.474 30.1007 60.6097C29.8802 60.7454 29.8802 60.915 30.0837 61.7632C30.2194 62.306 30.3212 63.0184 30.3212 63.3407C30.3382 63.9005 30.3721 63.9344 30.9828 63.9853C31.3899 64.0192 31.6104 64.121 31.6104 64.2906C31.6104 64.4942 31.9327 64.6129 32.3568 64.5451C32.4416 64.5281 32.4585 64.6299 32.4076 64.7826C32.3398 64.9352 32.3907 65.037 32.5264 65.037C32.9505 65.037 33.2897 65.6307 33.2897 66.3941C33.2897 67.1404 33.4254 69.1929 33.4763 69.1929C33.4933 69.1929 33.5272 69.6001 33.5611 70.1089C33.612 70.7705 33.7138 71.0758 33.9682 71.2455C34.1548 71.3812 34.4602 71.7544 34.6637 72.0767C35.02 72.6364 35.02 72.7043 34.7655 73.0944C34.4941 73.5185 34.3414 73.5864 33.7816 73.5355C33.612 73.5185 33.4763 73.5524 33.4763 73.6373C33.4763 73.9256 34.8673 75.3844 35.0369 75.2827C35.2405 75.147 36.36 76.3174 36.36 76.6397C36.36 76.7754 36.2413 77.0977 36.1056 77.3521C35.9699 77.6236 35.8511 77.9628 35.8511 78.0985C35.8511 78.4378 36.1734 78.777 36.4957 78.777C36.8859 78.777 38.0563 80.1341 38.0563 80.5921C38.0563 80.8635 38.1242 80.9822 38.2769 80.9144C38.3786 80.8635 38.6161 80.7617 38.8027 80.7108C39.0571 80.6091 39.0911 80.4733 39.0063 79.9814C38.9554 79.6421 38.9045 79.235 38.9045 79.0654C38.9045 78.9128 38.8197 78.777 38.7179 78.777C38.6331 78.777 38.5991 78.8788 38.65 78.9806C38.7179 79.0993 38.6161 79.0145 38.4295 78.794C38.1072 78.4039 38.0902 78.4039 38.0054 78.7092C37.9545 78.9467 37.9206 78.9128 37.9037 78.5735C37.9037 78.319 37.9715 78.0646 38.0563 78.0137C38.3108 77.861 38.2599 77.5896 37.9885 77.5896C37.734 77.5896 37.5135 76.6058 37.751 76.4701C37.8188 76.4192 37.8867 76.3004 37.8867 76.2156C37.8867 76.1138 37.8188 76.0969 37.7171 76.1478C37.6153 76.1987 37.5474 76.063 37.5474 75.8424C37.5474 75.4184 36.9028 73.9935 36.6654 73.8917C36.4618 73.7899 36.5127 72.9248 36.7332 72.7043C36.835 72.6025 36.8689 72.4498 36.8011 72.382C36.7332 72.3141 36.6145 72.365 36.5297 72.5007C36.394 72.7043 36.36 72.6704 36.36 72.382C36.36 72.1784 36.2922 71.9579 36.1904 71.907C36.1056 71.8561 36.0208 71.7204 36.0208 71.6017C36.0208 71.4999 36.1395 71.5678 36.2922 71.7544C36.5466 72.0597 36.5466 72.0597 36.4448 71.5678C36.3091 70.9401 36.2074 70.8384 36.0377 71.1267C35.936 71.2794 35.8172 71.1946 35.5628 70.8044C35.2574 70.3295 35.2574 70.1938 35.444 69.2608C35.6815 68.0734 35.7324 68.0055 36.1395 68.1752C36.3091 68.26 36.5127 68.2939 36.5805 68.2769C36.818 68.2261 37.4287 68.9215 37.3439 69.1421C37.293 69.2608 37.31 69.7867 37.3778 70.2955C37.4626 70.9571 37.4457 71.3642 37.276 71.6695C37.0725 72.0936 37.1064 72.3311 37.3948 72.3311C37.4626 72.3311 37.4796 72.1615 37.4287 71.9409C37.3778 71.7204 37.4796 71.8053 37.6492 72.1615C37.8188 72.4838 38.0563 72.857 38.1751 72.9757C38.2938 73.0944 38.3956 73.2641 38.3956 73.3489C38.3956 73.4337 38.5313 73.5355 38.7179 73.6033C38.9384 73.6712 39.0063 73.8069 38.9384 74.1292C38.8875 74.4684 38.9384 74.5702 39.2268 74.655C39.4134 74.7059 39.583 74.8755 39.583 75.0452C39.583 75.2148 39.7526 75.3844 39.9562 75.4353C40.2954 75.5371 40.2954 75.5541 40.041 75.9612C39.8714 76.1987 39.7526 76.487 39.7526 76.5888C39.7526 76.8093 40.3972 77.42 40.6347 77.42C40.7195 77.42 40.8722 77.6236 40.9909 77.878C41.0927 78.1494 41.3811 78.5396 41.6355 78.777C41.873 79.0145 42.2123 79.4725 42.3819 79.7948C42.5346 80.1171 42.8569 80.626 43.0604 80.9144C43.4336 81.3893 43.5014 81.7625 43.5014 83.1874C43.5014 84.2391 43.4675 84.3748 43.2131 84.3748C42.8569 84.3748 42.9247 85.1212 43.3657 85.7828C43.5693 86.105 44.0103 86.5122 44.3326 86.6818C44.6549 86.8514 44.9942 87.1737 45.079 87.3773C45.2317 87.7165 46.2155 88.1576 46.8092 88.1576C46.9619 88.1576 47.3181 88.3951 47.6235 88.7004C48.1324 89.2262 49.8795 90.1423 50.3545 90.1423C50.4732 90.1423 50.6938 90.244 50.8125 90.3458C51.1687 90.6851 52.0678 91.16 52.3561 91.16C52.4918 91.16 52.8141 91.2618 53.0686 91.3975C53.5605 91.652 54.0694 91.5671 55.0533 91.0922C55.3416 90.9395 55.7148 90.8208 55.8675 90.8208C56.563 90.8208 57.4111 91.3636 58.0557 92.2287C59.1074 93.6366 59.6163 94.0437 60.5493 94.1964C61.0073 94.2643 61.5331 94.4 61.7197 94.5017C62.6866 95.0106 63.3482 95.1972 64.0776 95.1463C64.7052 95.1124 64.8239 95.1463 64.6204 95.299C64.3829 95.4517 64.4338 95.5874 64.9936 96.198C66.5372 97.9622 66.8425 98.5389 66.5033 99.0987C66.2828 99.438 66.5372 99.9469 67.0631 100.218C67.5211 100.439 67.5889 100.439 67.7416 100.184C67.8942 99.9129 67.8942 99.9129 67.9112 100.184C67.9112 100.337 68.1656 100.591 68.4879 100.744C69.0816 101.032 69.37 101.423 69.0986 101.592C68.8951 101.711 69.0816 102.186 69.3191 102.186C69.4209 102.186 69.6754 102.356 69.8959 102.559C70.2521 102.881 70.286 102.898 70.286 102.627C70.286 102.423 70.3708 102.356 70.5574 102.423C70.7101 102.474 70.9645 102.525 71.1342 102.525C71.4904 102.525 71.7279 103.017 71.4734 103.272C71.236 103.509 71.2699 103.713 71.5583 103.713C71.7109 103.713 71.7618 103.611 71.7109 103.458C71.5583 103.051 72.0841 103.323 72.3894 103.814C72.6608 104.205 72.6778 104.205 73.2545 103.933C73.8991 103.628 73.967 103.441 73.5938 102.932C73.2545 102.491 73.2715 102.474 73.8483 102.22C74.1366 102.084 74.3571 101.881 74.3571 101.762C74.3571 101.643 74.4759 101.507 74.6116 101.44C74.8491 101.355 74.9848 100.32 74.7643 100.32C74.7134 100.32 74.1706 100.591 73.5769 100.914C72.3555 101.592 72.2198 101.609 71.7788 101.219C71.5583 101.032 71.4734 101.016 71.4734 101.168C71.4734 101.338 71.4225 101.338 71.236 101.168C71.1003 101.066 71.0154 100.88 71.0663 100.761C71.1172 100.642 70.9476 100.456 70.7101 100.354C70.4726 100.252 70.286 100.049 70.286 99.896C70.286 99.7603 70.2012 99.6415 70.1164 99.6415C70.0146 99.6415 69.8619 99.438 69.7771 99.1666C69.6754 98.9121 69.5227 98.5389 69.4209 98.3523C69.2852 98.0809 69.2852 97.8943 69.4209 97.6399C69.5227 97.4533 69.6075 97.0971 69.6075 96.8596C69.6075 96.6221 69.6923 96.4186 69.7771 96.4186C69.8789 96.4186 69.9468 96.0114 69.9468 95.5195C69.9468 94.9597 70.0655 94.4 70.2691 94.0268C70.4557 93.6875 70.5574 93.2465 70.5235 93.0599C70.4726 92.8733 70.5065 92.6697 70.6253 92.6019C70.744 92.534 70.6423 92.3474 70.3369 92.076C70.0825 91.8555 69.7432 91.5502 69.5905 91.4145C69.2513 91.0922 67.2327 90.8038 66.9443 91.0243C66.7068 91.2109 65.2989 91.2448 65.0275 91.0752C64.9257 91.0074 64.7391 91.0583 64.6034 91.16C64.3999 91.3297 64.2981 91.3297 64.0945 91.16C63.9588 91.0583 63.7553 91.0243 63.6365 91.0922C63.5178 91.16 63.6365 90.9904 63.891 90.702C64.1624 90.4137 64.3999 89.9217 64.4677 89.5316C64.5186 89.1754 64.6373 88.7682 64.7391 88.6495C64.8239 88.5477 64.8579 88.4459 64.807 88.4459C64.7561 88.4459 64.8918 88.2594 65.1123 88.0219C65.3498 87.8014 65.5364 87.496 65.5364 87.3603C65.5364 87.2246 65.6212 86.9023 65.7399 86.6309C65.8417 86.3765 65.9435 86.0202 65.9435 85.8676C65.9605 85.7149 66.0114 85.5283 66.0962 85.4605C66.164 85.3926 66.2149 85.206 66.2149 85.0534C66.2149 84.8837 66.3336 84.6632 66.4694 84.5445C66.6899 84.3579 66.7068 84.3748 66.622 84.6123C66.4694 85.0025 66.7747 84.9516 67.0291 84.5445C67.1648 84.3239 67.1648 84.2052 67.0631 84.2052C66.9443 84.2052 66.9443 84.0865 67.0631 83.849C67.1818 83.6624 67.2157 83.3231 67.1648 83.1026C67.0631 82.7294 66.9952 82.7125 66.0114 82.7633C65.4176 82.7803 64.4338 82.933 63.8231 83.0856C62.941 83.3231 62.6527 83.4588 62.5 83.7981C62.3982 84.0356 62.3134 84.307 62.3134 84.3918C62.3134 84.4936 62.1268 84.9685 61.9063 85.4435C61.4992 86.3595 60.7528 86.9023 59.769 87.021C58.853 87.1228 57.5638 87.4112 57.2245 87.5978C56.9192 87.7674 56.8004 87.7335 56.4442 87.3773C56.2237 87.1398 55.8166 86.9193 55.5621 86.8684C55.1041 86.7666 54.8327 86.3595 54.5953 85.3078C54.5444 85.0194 54.3578 84.6632 54.2051 84.4936C54.0524 84.3239 53.9167 83.8659 53.8998 83.4758C53.8828 83.0856 53.798 82.5768 53.7132 82.3393C53.6114 82.1018 53.5605 81.7625 53.5944 81.5759C53.8658 79.8966 54.5104 77.9628 55.0193 77.2504C55.2568 76.9111 55.3925 76.4192 55.4434 75.7067C55.5452 74.1631 55.9184 73.7051 58.1405 72.382C60.6171 70.8893 61.4992 70.567 61.9233 70.991C62.0081 71.0758 62.483 71.1776 62.975 71.1776C63.5687 71.1946 63.8401 71.2794 63.8401 71.4321C63.8401 71.5508 63.9419 71.6695 64.0606 71.6865C64.773 71.7713 65.2989 71.7374 65.4007 71.5847C65.5194 71.3981 66.0792 71.2794 65.9774 71.449C65.9435 71.5169 65.9605 71.7035 66.0283 71.8731C66.1301 72.1445 66.164 72.1445 66.4694 71.907C66.8086 71.6526 66.8086 71.6526 66.4185 71.3472C66.0453 71.0589 66.0453 71.0419 66.3676 70.7705C66.5372 70.6348 66.7068 70.4143 66.7577 70.2955C66.8595 69.9733 70.4217 69.9224 70.9306 70.2277C71.1342 70.3634 71.3038 70.5839 71.3038 70.7027C71.3038 71.1267 71.8636 71.1776 72.3555 70.8044C72.9323 70.3804 73.3394 70.4143 73.6108 70.9401C73.7125 71.1437 73.9161 71.449 74.0688 71.6187C74.425 72.0088 74.425 72.382 74.1027 72.9927C73.984 73.2471 73.8822 73.6542 73.9161 73.8747C74.0349 74.9095 74.2384 75.7237 74.3741 75.7237C74.4589 75.7237 74.5268 75.8424 74.5268 75.9781C74.5268 76.1138 74.6794 76.3683 74.866 76.521C75.0526 76.6906 75.2053 77.0299 75.2053 77.2843C75.2053 77.6405 75.2731 77.7253 75.4767 77.6405C75.6294 77.5896 75.816 77.6405 75.9008 77.7762C76.0365 77.9798 76.0874 77.9798 76.2061 77.7593C76.2909 77.6236 76.3757 77.42 76.3927 77.3352C76.3927 77.2334 76.5115 77.0129 76.6302 76.8263C77.0882 76.0799 77.2409 75.147 77.0543 74.0613C76.9694 73.4676 76.9355 72.9248 76.9864 72.84C77.0373 72.7721 76.9525 72.2124 76.7998 71.6356C76.257 69.4983 77.19 67.6324 79.3612 66.5637C79.6326 66.428 80.1755 65.9869 80.5656 65.5798C81.0236 65.1049 81.3968 64.8674 81.7021 64.8674C81.9396 64.8674 82.1941 64.7826 82.2449 64.6978C82.4655 64.3585 83.6868 63.68 84.0939 63.68C84.6028 63.68 85.0438 63.205 84.7215 63.0184C84.5689 62.9166 84.7215 62.764 85.1965 62.5435C85.8411 62.2212 85.875 62.2212 85.7054 62.5095C85.6206 62.6961 85.417 62.8318 85.2474 62.8488C85.0947 62.8488 85.0438 62.8997 85.1626 62.9336C85.2813 62.9845 85.5188 62.9336 85.7054 62.8318C86.0107 62.6792 86.0616 62.4926 86.0616 61.5087C86.0616 60.8641 85.9768 60.2704 85.892 60.1856C85.7563 60.0499 85.7732 59.8463 85.909 59.5071C86.0107 59.2357 86.1295 58.8625 86.1634 58.6929C86.2652 58.1161 86.5196 58.0483 86.4857 58.5911C86.4687 58.8794 86.367 59.2017 86.2652 59.3035C86.1464 59.4223 86.0616 59.6597 86.0616 59.8463C86.0616 60.1686 86.1125 60.1347 86.4687 59.6937C86.6892 59.4223 86.8419 59.1169 86.791 59.0321C86.7232 58.9473 86.7741 58.9303 86.8758 58.9982C86.9946 59.066 87.266 58.9134 87.5204 58.642C87.8597 58.2688 87.9445 58.0483 87.8767 57.6242C87.8258 57.3188 87.8597 57.0305 87.9445 56.9796C88.0293 56.9117 88.0972 56.9966 88.0972 57.1323C88.0972 57.5224 88.199 57.4715 89.0132 56.81C89.4033 56.4877 89.8274 55.9618 89.9462 55.6395C90.1667 55.1137 90.2854 55.0458 91.1336 54.8762C92.321 54.6217 93.2709 54.2146 92.762 54.1807C92.5754 54.1637 92.779 54.045 93.237 53.9263C93.678 53.8075 94.1869 53.7397 94.3565 53.7905C94.5262 53.8414 94.7297 53.7905 94.7806 53.6888C94.8484 53.587 95.035 53.5022 95.2216 53.5022C95.5779 53.5022 95.8154 53.0103 95.5609 52.7558C95.4421 52.6371 95.3913 52.671 95.3913 52.8745C95.3913 53.2817 95.069 53.2308 94.8993 52.7728C94.7806 52.5183 94.8145 52.3487 94.9842 52.213C95.1199 52.1112 95.2216 51.9077 95.2216 51.7719C95.2216 51.2631 96.3242 50.5167 97.7661 50.0248C98.5633 49.7534 99.3776 49.4311 99.5811 49.3123C99.7847 49.1766 100.175 49.0579 100.463 49.0579C100.955 49.0409 101.227 48.7695 100.785 48.7356C100.48 48.7186 101.176 48.4642 101.769 48.3624C102.041 48.3115 102.465 48.1927 102.719 48.091C102.991 47.9892 103.228 47.9722 103.279 48.074C103.33 48.1588 102.855 48.4811 102.244 48.7865C101.26 49.2614 101.091 49.4141 101.057 49.8382C101.023 50.1096 101.108 50.4319 101.243 50.5506C101.515 50.822 102.007 50.8729 102.007 50.6185C102.007 50.5167 102.16 50.4488 102.346 50.4488C102.533 50.4488 102.685 50.381 102.685 50.2962C102.685 50.0587 104.008 49.2275 104.195 49.3462C104.297 49.3971 104.466 49.3971 104.585 49.3293C104.958 49.0918 107.503 48.2606 107.588 48.3285C107.622 48.3794 107.757 48.2606 107.893 48.074C108.029 47.8874 108.249 47.7348 108.402 47.7348C108.775 47.7348 109.64 47.1919 109.64 46.9375C109.64 46.8188 109.521 46.717 109.386 46.717C109.08 46.717 109.063 46.6491 109.335 46.2081C109.504 45.9536 109.504 45.8349 109.335 45.6653C109.182 45.5126 108.911 45.6992 108.114 46.5134C107.554 47.0902 107.096 47.4973 107.096 47.3955C107.096 47.2937 106.943 47.2937 106.723 47.3785C106.265 47.5312 104.84 47.2768 104.975 47.0562C105.094 46.8696 105.908 46.9036 105.908 47.0902C105.908 47.158 106.061 47.2259 106.248 47.2259C106.434 47.2259 106.587 47.158 106.587 47.0562C106.587 46.9714 106.79 46.7848 107.062 46.6491C107.52 46.3947 107.503 46.3947 106.587 46.3777C105.501 46.3777 105.179 46.2251 105.332 45.784C105.416 45.5635 105.382 45.5126 105.213 45.5635C105.077 45.6144 104.992 45.7331 105.009 45.8349C105.043 45.9367 104.941 45.9876 104.806 45.9367C104.483 45.801 104.483 46.1063 104.806 46.4456C105.145 46.7848 105.128 46.8696 104.721 46.7679C104.365 46.6661 104.178 46.1911 104.263 45.6313C104.297 45.4448 104.585 45.0376 104.908 44.7323L105.484 44.1556L105.026 44.2573C104.331 44.427 104.45 44.2065 105.23 43.9011C106.587 43.3583 106.214 42.3745 104.67 42.4253C103.635 42.4593 101.396 43.1547 100.378 43.7484C99.4285 44.3082 99.3267 44.2913 100.005 43.6806C100.667 43.1208 101.922 42.4762 102.397 42.4762C102.584 42.4762 102.94 42.2557 103.194 41.9843C103.432 41.6959 103.839 41.3906 104.11 41.2888C104.399 41.187 105.993 41.1192 108.147 41.1362C110.285 41.1531 111.761 41.0853 111.828 40.9835C111.879 40.8987 112.1 40.7799 112.32 40.7121C112.524 40.6442 112.897 40.4067 113.168 40.2032C113.728 39.7452 114.593 39.4229 115.306 39.4229L115.832 39.4229L115.068 40.1693C113.847 41.3397 113.033 42.2557 113.033 42.4593C113.033 42.561 112.914 42.6459 112.778 42.6459C112.626 42.6459 112.473 42.7646 112.422 42.9003C112.354 43.036 112.252 43.1039 112.168 43.053C112.015 42.9682 111.506 43.3583 111.506 43.5788C111.506 43.6297 111.676 43.6467 111.896 43.5788C112.1 43.5279 111.947 43.6806 111.54 43.935C110.353 44.6645 110.607 44.851 112.948 44.9359C117.274 45.1225 116.934 45.0716 116.663 45.3769C116.374 45.6822 116.358 46.0385 116.612 46.0385C116.697 46.0385 116.748 45.9706 116.68 45.8858C116.629 45.801 116.663 45.6653 116.765 45.6144C116.866 45.5465 116.934 45.5635 116.917 45.6483C116.832 46.1572 116.951 46.3268 117.358 46.242C118.003 46.1233 119.021 44.5118 118.461 44.5118C118.376 44.5118 118.291 44.5796 118.291 44.6814C118.291 44.7662 118.223 44.851 118.156 44.851C118.071 44.851 118.003 44.7323 118.003 44.5966C118.003 44.4609 118.071 44.3931 118.139 44.427C118.19 44.4779 118.342 44.3931 118.461 44.2573C118.631 44.0538 118.614 44.0029 118.393 44.0029C118.24 44.0029 117.986 44.1556 117.833 44.3422C117.664 44.5287 117.46 44.6814 117.375 44.6814C117.29 44.6814 117.392 44.4948 117.596 44.2743C117.884 43.969 117.918 43.8502 117.749 43.7824C117.63 43.7315 117.749 43.7145 118.037 43.7145C118.376 43.7484 118.546 43.6636 118.597 43.4601C118.631 43.2565 118.563 43.2056 118.308 43.2735C117.884 43.3753 117.799 42.9173 118.207 42.7476C118.58 42.6119 118.512 42.3236 118.088 42.137C117.867 42.0522 117.799 41.9843 117.918 41.9843C118.037 41.9673 118.088 41.8825 118.02 41.7638C117.935 41.645 117.833 41.679 117.664 41.8825C117.545 42.0691 117.443 42.103 117.443 42.0013C117.443 41.8825 117.324 41.7977 117.189 41.7977C117.053 41.7977 116.934 41.8486 116.934 41.9334C116.934 42.0013 116.714 42.0691 116.442 42.0691C116.086 42.0861 115.967 42.0352 116.035 41.8656C116.086 41.7299 116.222 41.6281 116.358 41.6281C116.816 41.6281 116.595 41.3227 116.052 41.221L115.492 41.1022L116.069 40.6103C116.459 40.288 116.697 40.1693 116.782 40.288C116.934 40.5594 117.138 40.2032 117.002 39.8639C116.951 39.7113 116.968 39.5925 117.07 39.5925C117.155 39.5925 117.274 39.4738 117.341 39.3381C117.409 39.1515 117.307 39.0836 116.968 39.0836C116.646 39.0836 116.578 39.1345 116.731 39.2363C116.883 39.3211 116.782 39.372 116.442 39.355C116.154 39.3381 115.916 39.3211 115.916 39.3041C115.916 39.2702 116.256 39.1006 116.68 38.897C117.392 38.5578 117.511 38.4221 117.715 37.523C117.986 36.4374 117.935 36.2169 117.409 36.1151C116.832 35.9794 116.493 35.3518 116.866 35.1312C117.257 34.9107 116.646 34.4188 116.052 34.4867C115.747 34.5036 115.577 34.4527 115.611 34.317C115.662 34.0795 114.831 33.8081 114.424 33.9438C114.254 33.9947 114.203 33.9608 114.305 33.876C114.627 33.6215 114.576 33.2823 114.152 32.8921C113.745 32.519 113.745 32.485 114.034 32.3832C114.356 32.2815 114.475 31.5351 114.203 31.3485C114.118 31.2976 114.169 31.0771 114.322 30.8566C114.559 30.4834 114.559 30.4495 114.254 30.2798C114.017 30.1611 113.915 29.9236 113.915 29.5335C113.915 29.2112 113.796 28.7362 113.66 28.4648C113.525 28.1764 113.44 27.6675 113.491 27.2435C113.525 26.8533 113.508 26.531 113.44 26.531C113.236 26.531 112.846 27.0399 112.948 27.2095C112.999 27.2943 112.948 27.3283 112.812 27.2774C112.677 27.2265 112.151 27.5997 111.591 28.1425C111.048 28.6514 110.505 29.0755 110.404 29.0755C110.302 29.0755 109.895 29.2281 109.488 29.4317C108.877 29.72 108.724 29.737 108.487 29.5504C107.876 29.0585 107.588 28.7023 107.554 28.4139C107.537 28.0746 108.046 26.9381 108.283 26.7854C108.385 26.7176 108.419 26.5989 108.351 26.514C108.3 26.4292 108.317 26.3783 108.402 26.3953C108.47 26.4292 108.538 26.3783 108.538 26.2935C108.538 26.1917 108.317 26.1069 108.029 26.073C107.757 26.056 107.333 25.9882 107.13 25.9373C106.79 25.8525 106.756 25.8016 106.943 25.5811C107.113 25.3606 107.113 25.2927 106.909 25.174C106.417 24.8686 105.84 24.3937 105.586 24.1053C105.433 23.9526 105.23 23.8169 105.111 23.8169C104.823 23.8169 104.823 24.1562 105.111 24.1562C105.213 24.1562 105.179 24.241 105.009 24.3428C104.704 24.5294 104.433 24.4955 102.414 24.1223C101.43 23.9526 101.362 23.9526 101.006 24.3089C100.802 24.5124 100.599 24.8686 100.582 25.0892C100.531 25.632 100.175 26.0221 99.5133 26.3105C98.8348 26.5819 98.7839 26.7515 99.3945 26.5989C99.8017 26.4971 99.8356 26.514 99.7168 26.8872C99.632 27.1077 99.5811 27.3961 99.5811 27.4979C99.5811 27.6166 99.5302 27.7184 99.4624 27.7184C99.3945 27.7184 99.0044 27.9898 98.5973 28.3121C98.1902 28.6344 97.783 28.9058 97.7152 28.9058C97.5456 28.9058 97.0876 29.3469 97.0876 29.4826C97.0876 29.5335 97.1554 29.5844 97.2572 29.5844C97.5625 29.5844 98.275 30.3138 98.275 30.6361C98.275 31.0601 97.6473 32.3663 97.2911 32.6886C96.6465 33.2653 94.6619 34.1983 93.695 34.3679L92.6772 34.5375L92.762 35.2839C92.8129 35.7249 92.779 36.0303 92.6772 36.0303C92.5924 36.0303 92.5076 36.2169 92.5076 36.4374C92.5076 36.6749 92.4397 36.8954 92.3718 36.9463C92.304 36.9802 92.2192 37.2686 92.2022 37.5909C92.1683 37.981 91.9987 38.2694 91.6594 38.5408C91.371 38.7613 91.1844 39.0158 91.2353 39.1006C91.3032 39.1854 91.2692 39.2533 91.1675 39.2533C91.0827 39.2533 90.9809 39.1515 90.93 39.0327C90.8791 38.897 90.7264 38.9479 90.4211 39.2363C89.9631 39.6604 89.6238 39.5925 89.6238 39.0836C89.6238 38.914 89.4881 38.6595 89.3355 38.5408C89.1658 38.4221 89.0132 38.2016 89.0132 38.0658C88.9962 37.9301 88.9284 37.6757 88.8605 37.523C88.7587 37.2686 88.8096 37.2516 89.2337 37.3704C90.2006 37.6587 90.2176 37.6587 90.2176 37.2177C90.2176 36.8445 90.1497 36.7936 89.6917 36.8106C89.2507 36.8275 89.1658 36.7936 89.2337 36.5222C89.2846 36.3356 89.3864 36.149 89.4712 36.0981C89.556 36.0472 89.6238 35.8267 89.6238 35.5893C89.6238 35.3687 89.6917 35.1821 89.7595 35.1821C89.9801 35.1821 90.489 34.1983 90.3193 34.0965C90.2345 34.0456 89.573 33.9608 88.8435 33.9099C88.0633 33.859 87.4186 33.7233 87.266 33.5876C87.1133 33.4519 86.6723 33.2484 86.2821 33.1127C85.875 32.9939 85.5527 32.7904 85.5527 32.6886C85.5527 32.3832 84.976 31.8404 84.501 31.7047C84.2975 31.6369 83.8564 31.4842 83.5511 31.3485C83.127 31.1449 82.8726 31.128 82.3637 31.2637C82.0244 31.3655 81.6852 31.4503 81.6343 31.4503C81.4986 31.4503 81.6852 30.5682 81.9735 29.8727C82.228 29.2451 82.0923 29.0755 81.3798 29.0755C81.0575 29.0755 80.8031 29.0246 80.8031 28.9737C80.8031 28.821 82.3467 26.8703 82.4655 26.8703C82.5333 26.8703 83.0422 26.531 83.585 26.1069C84.1448 25.6998 84.8064 25.3097 85.0608 25.2588C85.3152 25.1909 85.5697 25.0552 85.6206 24.9195C85.6715 24.7838 85.9768 24.6312 86.2991 24.5633C86.6384 24.5124 86.9098 24.3937 86.9098 24.3089C86.9098 24.224 87.0116 24.1731 87.1303 24.1901C87.2321 24.224 87.3169 24.1392 87.283 24.0035C87.2321 23.783 87.3847 23.783 88.182 24.0714C88.4195 24.1562 88.4534 24.1392 88.2838 24.0205C88.1141 23.9017 88.199 23.8169 88.64 23.6643C88.9453 23.5625 89.3185 23.325 89.4542 23.1384C89.5899 22.9518 89.8274 22.7992 89.9631 22.7992C90.1158 22.7992 90.3193 22.7143 90.4211 22.6126C90.5399 22.4938 90.9809 22.392 91.4389 22.3581C92.3549 22.2733 94.136 21.4591 94.7806 20.8145C95.1538 20.4413 96.2564 19.7458 96.4769 19.7458C96.5278 19.7458 96.1037 20.1868 95.5439 20.7127C95.0011 21.2555 94.5431 21.7644 94.5431 21.8662C94.5431 21.968 94.2038 22.1546 93.7798 22.2733C92.8638 22.5447 92.8468 22.9009 93.7628 22.8331C94.3396 22.7822 94.3904 22.7992 94.2887 23.1214C94.153 23.5964 94.577 23.5964 95.4421 23.1384C95.7814 22.9518 96.1885 22.7992 96.3242 22.7992C96.4599 22.7992 96.6974 22.6465 96.8671 22.4599C97.2233 22.1037 97.9696 22.1546 97.8339 22.5447C97.6982 22.884 98.9874 23.0366 99.6999 22.7822C100.192 22.6126 100.26 22.5108 100.124 22.2733C100.039 22.1037 99.8695 22.0019 99.7338 22.0528C99.5981 22.1037 99.4624 21.9849 99.4115 21.7474C99.3097 21.3912 98.6821 20.8993 97.8848 20.56C97.6643 20.4583 97.6134 20.3225 97.6982 19.9663C97.7661 19.6949 97.8509 19.4574 97.8848 19.4065C97.9866 19.2878 98.258 19.7967 98.1732 19.9494C98.0884 20.0681 98.1902 20.102 98.8348 20.1529C98.9365 20.1699 99.0383 20.0172 99.0553 19.8306C99.1062 18.8128 99.1062 18.8298 99.4454 19.2539C99.7508 19.6271 99.7847 19.6271 99.8865 19.3557C99.9543 19.203 100.141 19.0673 100.294 19.0673C100.446 19.0673 100.785 18.9486 101.057 18.8128C101.311 18.6771 101.634 18.5584 101.735 18.5584C101.854 18.5584 102.126 18.3718 102.346 18.1343C102.651 17.812 102.685 17.6763 102.55 17.4897C102.312 17.2014 102.702 16.7943 103.466 16.5228C103.737 16.4211 104.042 16.1496 104.161 15.9291C104.331 15.5559 104.314 15.5051 104.042 15.5051C103.449 15.5051 103.517 15.1828 104.144 15.0131C104.619 14.8774 104.874 14.8944 105.247 15.081C105.518 15.2336 105.925 15.2845 106.214 15.2336C106.841 15.1149 107.113 15.4542 106.519 15.6068C106.01 15.7256 105.569 16.1836 105.925 16.1836C106.078 16.2006 106.01 16.3193 105.756 16.5398C105.535 16.7264 105.416 16.93 105.484 16.9978C105.552 17.0657 105.654 17.0148 105.688 16.896C105.739 16.7943 105.874 16.6925 106.01 16.6925C106.231 16.6925 106.315 16.4889 106.265 16.1327C106.265 16.0648 106.332 16.014 106.417 16.014C106.689 16.014 107.944 15.1488 107.944 14.9622C107.944 14.8605 107.808 14.8435 107.656 14.9114C107.028 15.1658 106.756 15.1997 106.756 15.0131C106.756 14.9114 106.943 14.8265 107.181 14.8265C107.469 14.8265 107.672 14.7078 107.774 14.4364C107.859 14.2328 107.927 14.165 107.927 14.2668C107.944 14.3855 108.063 14.4873 108.198 14.4873C108.351 14.4873 108.402 14.5891 108.334 14.7757C108.266 14.9622 108.283 15.0131 108.419 14.9283C108.538 14.8605 108.622 14.8774 108.622 14.9453C108.622 15.0301 108.826 15.2167 109.097 15.3694L109.555 15.6577L109.08 15.6747C108.809 15.6747 108.639 15.6068 108.707 15.522C108.86 15.2506 108.453 15.1149 108.181 15.3354C108.012 15.5051 107.995 15.6068 108.13 15.7765C108.232 15.8952 108.249 16.0818 108.181 16.2006C108.097 16.3532 108.215 16.3702 108.656 16.2854C109.114 16.2006 109.25 16.2345 109.25 16.438C109.25 16.6246 109.063 16.6925 108.538 16.6925C107.401 16.6925 106.163 17.5067 106.502 18.0495C106.756 18.4566 108.962 17.9308 108.962 17.4558C108.962 17.3371 109.063 17.1505 109.199 17.0487C109.386 16.896 109.437 16.913 109.403 17.1505C109.386 17.388 109.538 17.4728 110.03 17.5067C110.488 17.5406 110.658 17.4897 110.658 17.3031C110.658 17.1674 110.488 17.0317 110.285 16.9978C110.081 16.9639 109.878 16.8282 109.844 16.6925C109.776 16.4719 109.793 16.4719 110.013 16.6585C110.234 16.8282 110.302 16.8282 110.37 16.6585C110.437 16.4889 110.471 16.4889 110.471 16.6416C110.488 16.7603 110.641 16.8621 110.828 16.8621C111.082 16.8621 111.15 16.9469 111.099 17.2353C111.048 17.4558 111.014 17.7611 111.014 17.9138C110.997 18.0834 110.862 18.2191 110.709 18.2191C110.556 18.2191 110.302 18.3209 110.166 18.4397C110.013 18.5754 109.521 18.8128 109.046 18.9825C107.995 19.3557 107.808 19.5083 108.08 19.7797C108.368 20.0681 108.334 20.2377 107.995 20.2377C107.825 20.2377 107.401 20.3056 107.062 20.3904C106.672 20.4922 106.112 20.4922 105.552 20.3904C104.823 20.2547 104.568 20.2886 104.059 20.5431C103.16 21.0011 102.787 21.4082 103.008 21.6796C103.296 22.0188 103.992 22.1037 104.772 21.8832C105.162 21.7644 105.756 21.6966 106.078 21.7135C106.4 21.7305 106.841 21.7474 107.062 21.7644C107.282 21.7644 107.401 21.8492 107.35 21.951C107.299 22.0358 107.367 22.1206 107.52 22.1206C107.689 22.1206 107.774 22.2394 107.74 22.409C107.706 22.5786 107.859 22.9009 108.063 23.1384C108.283 23.3759 108.453 23.6812 108.453 23.8508C108.453 24.258 108.707 24.3597 109.199 24.1392C109.555 23.9696 109.691 24.0035 110.081 24.3089C110.336 24.4955 110.709 24.6651 110.929 24.6651C111.15 24.6651 111.71 24.8178 112.185 25.0043C112.643 25.1909 113.033 25.3097 113.033 25.2588C113.033 25.2079 113.185 25.3266 113.389 25.5302C113.796 25.9373 114.237 25.7168 114.101 25.174C114 24.8178 113.542 24.699 113.542 25.0213C113.542 25.1231 113.44 25.174 113.338 25.1231C113.219 25.0892 113.135 24.9026 113.168 24.7329C113.185 24.5463 113.033 24.241 112.778 24.0205C112.541 23.8169 112.354 23.5794 112.354 23.4946C112.354 23.4098 112.202 23.308 112.015 23.2571C111.828 23.2063 111.676 23.0366 111.676 22.867C111.676 22.5956 111.693 22.5956 112.015 22.884C112.202 23.0536 112.405 23.1384 112.473 23.0875C112.524 23.0197 112.694 23.1214 112.829 23.325C113.033 23.6134 113.101 23.6303 113.338 23.4437C113.491 23.325 113.559 23.308 113.491 23.4098C113.423 23.5286 113.542 23.6473 113.779 23.7152C114 23.766 114.22 23.9696 114.271 24.1562C114.373 24.5294 114.797 24.6142 115.001 24.3089C115.051 24.2071 115.001 24.0544 114.882 23.9696C114.712 23.8678 114.695 23.8169 114.865 23.8169C114.967 23.8169 115.068 23.6643 115.068 23.4777C115.068 23.2741 115.153 23.1893 115.306 23.2402C115.425 23.2911 115.662 23.2063 115.815 23.0366C116.069 22.7992 116.069 22.7143 115.849 22.392C115.679 22.1206 115.662 21.934 115.781 21.7135C115.967 21.3743 115.73 21.1028 115.221 21.1028C114.933 21.1028 114.729 20.7975 114.627 20.2038C114.593 20.0342 114.661 19.9154 114.814 19.9154C115.119 19.9154 115.136 19.7288 114.865 19.4235C114.678 19.2369 114.695 19.22 114.865 19.3048C114.984 19.3726 115.187 19.3557 115.289 19.2539C115.56 19.0334 116.307 19.661 116.391 20.1699C116.459 20.56 116.765 20.9841 116.9 20.8654C116.934 20.8145 117.121 20.8484 117.29 20.9332C117.681 21.1537 118.122 20.9672 118.291 20.5261C118.41 20.2208 118.529 20.1699 119.038 20.2208C119.428 20.2717 119.648 20.2208 119.648 20.0851C119.648 19.8306 120.072 19.4065 120.361 19.4065C120.48 19.4065 120.768 19.2539 120.988 19.0842L121.379 18.7789L120.904 18.4397C120.632 18.2531 120.31 18.1343 120.174 18.1852C120.039 18.2361 119.988 18.1852 120.055 18.0665C120.123 17.9647 120.072 17.8799 119.937 17.8799C119.818 17.8799 119.53 17.6933 119.309 17.4388C119.021 17.1505 118.783 17.0487 118.512 17.1166C118.308 17.1674 118.088 17.1166 118.02 17.0148C117.969 16.913 117.647 16.7264 117.341 16.5907C117.019 16.455 116.765 16.2854 116.765 16.2175C116.765 15.997 117.562 15.6238 117.765 15.7425C118.088 15.9461 118.325 15.6747 118.088 15.3694C117.918 15.1658 117.918 15.0979 118.088 15.0471C118.648 14.8435 117.935 13.9105 117.019 13.6561C116.663 13.5543 116.307 13.5204 116.222 13.5713C116.154 13.6222 116.086 13.5374 116.086 13.3847C116.086 13.232 116.018 13.1472 115.933 13.1981C115.849 13.249 115.747 13.1472 115.696 12.9606C115.628 12.6892 115.458 12.6214 114.865 12.6214C114.458 12.6214 114.017 12.7231 113.881 12.8249C113.677 13.0115 113.677 12.9945 113.864 12.7401C114.034 12.5365 114.034 12.4517 113.898 12.4517C113.779 12.4517 113.745 12.3669 113.796 12.2821C113.847 12.1803 113.779 12.1125 113.643 12.1125C113.491 12.1125 113.372 11.9937 113.372 11.858C113.372 11.7223 113.202 11.5696 112.999 11.5357C112.778 11.4848 112.456 11.417 112.269 11.383C112.032 11.3322 112.066 11.2982 112.405 11.2813C112.66 11.2643 112.863 11.1625 112.863 11.0438C112.863 10.5519 112.269 10.2974 110.912 10.1956C109.81 10.1108 109.504 10.1447 109.267 10.3653C108.979 10.6197 108.962 10.6197 108.962 10.3653C108.962 10.0091 108.13 9.99208 106.587 10.3313C105.298 10.6197 104.975 10.6367 105.569 10.3822L105.993 10.2126L105.569 10.043C104.416 9.60193 101.159 10.6028 99.7677 11.8411C99.5981 11.9937 99.4115 12.1125 99.3436 12.1125C99.191 12.1294 98.5464 12.9606 98.6482 13.0285C98.6651 13.0624 99.1231 13.1642 99.632 13.249L100.565 13.4356L99.5642 13.4016C98.4276 13.3847 98.2241 13.5882 98.8008 14.1311C99.0553 14.3685 99.3097 14.4534 99.5133 14.3855C99.7338 14.3176 99.8017 14.3516 99.7338 14.4703C99.5981 14.6739 99.7508 14.7078 100.735 14.6908C101.108 14.6739 101.294 14.7078 101.159 14.7757C100.752 14.9453 100.48 15.2845 100.429 15.7086C100.395 15.9291 100.26 16.0988 100.124 16.0988C99.9882 16.0988 99.615 16.3193 99.2758 16.5737C98.6482 17.0487 98.3428 17.1674 98.5294 16.8621C98.5803 16.7603 98.5294 16.6925 98.3937 16.6925C98.1053 16.6925 97.4947 17.3371 97.6643 17.4897C97.7152 17.5576 97.5286 17.7103 97.2233 17.829C96.7992 18.0156 96.6635 18.0156 96.5447 17.846C96.3242 17.4897 96.4769 17.1335 96.9519 16.896C97.9357 16.4211 97.5965 15.3015 96.5617 15.6577C96.0868 15.8104 96.0528 15.8104 96.1546 15.5051C96.2394 15.2336 96.1885 15.1658 95.9171 15.1658C95.527 15.1658 95.4082 14.5721 95.7475 14.4534C95.9002 14.4025 95.9002 14.2837 95.7475 13.9953C95.5948 13.707 95.5779 13.5543 95.7305 13.3847C95.985 13.0793 95.7814 12.4517 95.4252 12.4348C95.2725 12.4348 95.4591 12.299 95.8662 12.1294C96.2733 11.9767 96.6635 11.7562 96.7144 11.6545C96.7822 11.5527 97.2572 11.4339 97.7661 11.4C98.9196 11.2813 101.515 10.1278 101.142 9.89031C101.006 9.80548 100.599 9.73764 100.226 9.73764C99.8525 9.73764 99.2419 9.68676 98.8687 9.63587C98.0545 9.53408 96.8162 9.77156 96.8671 10.043C96.901 10.1447 96.7992 10.1956 96.6465 10.1278C96.5108 10.0769 96.2225 10.1787 96.0189 10.3653C95.8154 10.5519 95.51 10.7554 95.3234 10.8233C95.1199 10.8911 95.035 11.0438 95.1029 11.2473C95.2047 11.6375 94.7127 12.1294 93.9155 12.4517C93.6101 12.5705 93.3557 12.7062 93.3557 12.774C93.3557 12.8419 93.203 12.8928 92.9995 12.9097C92.5245 12.9437 91.829 13.4186 91.829 13.707C91.829 13.8257 91.6425 14.0293 91.405 14.148C91.1166 14.3007 90.9809 14.5042 91.0148 14.7248C91.0487 14.9962 90.9639 15.0979 90.5907 15.1319C90.3024 15.1658 89.9801 15.081 89.7935 14.9114C89.539 14.6908 89.4203 14.6739 89.0132 14.8605C88.7418 14.9792 88.4534 15.1658 88.3856 15.2845C88.3177 15.4033 87.9445 15.5559 87.5883 15.6068C86.8589 15.7256 86.6553 16.1157 87.283 16.2175C87.4865 16.2514 87.6731 16.3702 87.724 16.5059C87.7749 16.6585 87.6901 16.6925 87.4356 16.6077C87.1812 16.5398 86.9776 16.6246 86.7062 16.896C86.35 17.2692 86.1634 17.3031 84.3992 17.3371C82.8386 17.354 82.4655 17.3201 82.3807 17.0996C82.3298 16.9469 82.1771 16.896 81.9735 16.9469C81.5155 17.0996 81.1593 16.8451 81.5834 16.6755C81.8887 16.5568 81.8887 16.5568 81.5834 16.438C81.3968 16.3532 81.2272 16.3871 81.1423 16.5228C81.0406 16.6755 80.9897 16.6416 80.9388 16.3532C80.9218 16.1327 80.7861 15.9291 80.6504 15.8782C80.5147 15.8274 80.4638 15.8782 80.5147 15.9631C80.5656 16.0479 80.396 16.0988 80.1076 16.0479L79.5987 15.98L80.0567 15.7425C80.379 15.5729 80.5826 15.5559 80.7013 15.6747C80.9218 15.8952 81.1932 15.8952 81.0575 15.6747C81.0066 15.5899 81.0575 15.5559 81.2102 15.6068C81.3459 15.6577 81.4986 15.7934 81.5325 15.9122C81.5834 16.0479 82.0075 16.1327 82.669 16.1496C83.2627 16.1666 83.8395 16.2684 83.9752 16.3702C84.1618 16.5228 84.2975 16.4889 84.5858 16.2006C84.8064 16.014 85.0778 15.8443 85.1795 15.8443C85.417 15.8443 85.434 15.7425 85.2304 15.3524C85.1117 15.1319 85.1456 15.064 85.4001 15.0471C85.5697 15.0301 85.7224 15.1319 85.7224 15.2676C85.7224 15.4033 85.7732 15.5051 85.8241 15.5051C86.0447 15.5051 86.9098 14.7926 86.9098 14.606C86.9098 14.4194 86.1973 14.0293 85.3492 13.7579C84.9421 13.6222 84.959 13.3508 85.3831 13.1302C85.5697 13.0285 85.7224 12.8419 85.7224 12.7062C85.7224 12.1294 86.4687 11.3322 87.3508 10.942C87.8597 10.7215 88.2668 10.484 88.2668 10.4162C88.2668 10.2296 87.8088 10.0769 87.249 10.0769C86.6553 10.0769 85.7224 10.4331 86.0277 10.5349C86.1295 10.5858 86.2312 10.6876 86.2312 10.7724C86.2312 10.8742 86.0955 10.8742 85.909 10.7554C85.2474 10.4162 84.535 10.5519 83.9921 11.1286C83.7038 11.4339 83.4154 11.858 83.3306 12.0616C83.2458 12.2821 83.1101 12.4517 83.0252 12.4517C82.8386 12.4517 82.8726 12.1294 83.0761 11.8071C83.1609 11.6714 83.0931 11.4509 82.9065 11.2473C82.5503 10.8572 81.8209 10.8063 81.8209 11.1795C81.8209 11.5018 81.5834 11.5018 80.6843 11.1625C80.1076 10.942 79.8701 10.9251 79.4121 11.0777C78.9711 11.2304 78.9032 11.2304 79.0729 11.0607C79.3612 10.7724 79.3273 10.5858 78.9711 10.5858C78.8015 10.5858 78.547 10.3992 78.4283 10.1617C78.1569 9.65282 77.7837 9.51712 76.5623 9.46624C76.0534 9.44927 74.9 9.38141 74.0179 9.34749C73.1358 9.2966 72.1859 9.2966 71.9314 9.34749L71.9314 9.34749ZM104.636 10.8402C104.365 10.9929 103.992 11.3491 103.805 11.6545L103.5 12.1973L103.33 11.7732C103.245 11.5527 103.245 11.3322 103.313 11.3152C103.398 11.2813 103.72 11.1116 104.042 10.9251C104.365 10.7554 104.755 10.6028 104.891 10.6028C105.026 10.6028 104.924 10.7045 104.636 10.8402L104.636 10.8402ZM109.352 11.1391C109.437 11.4862 109.538 11.5228 110.183 11.4314C110.811 11.3401 110.845 11.3401 110.488 11.5228C110.251 11.6141 109.725 11.7237 109.301 11.742C108.555 11.7785 108.538 11.7603 108.843 11.4314C109.013 11.2487 109.097 11.0295 109.046 10.9381C108.979 10.8285 109.013 10.7554 109.097 10.7554C109.182 10.7554 109.301 10.9381 109.352 11.1391L109.352 11.1391ZM103.477 12.0803C103.154 12.1405 103.119 12.281 103.37 12.5619C103.764 12.9633 103.262 13.1238 102.832 12.7425C102.509 12.4415 102.903 11.9398 103.441 11.9599C103.8 11.9599 103.8 12 103.477 12.0803L103.477 12.0803ZM113.454 12.6169C113.373 12.9046 113.073 13.1923 112.828 13.1347C112.447 13.1347 112.474 13.0197 112.91 12.6169C113.645 11.9839 113.645 11.9839 113.454 12.6169L113.454 12.6169ZM115.641 13.9775C115.495 14.2673 115.201 14.4992 114.999 14.4992C114.706 14.4412 114.706 14.3833 115.091 13.9775C115.733 13.3398 115.972 13.3398 115.641 13.9775L115.641 13.9775ZM117.341 14.3628C117.257 14.506 117.307 14.5239 117.528 14.4344C117.715 14.3628 117.901 14.3986 117.969 14.5418C118.071 14.7208 117.816 14.8282 116.985 14.9893C115.662 15.2399 115.374 15.1862 116.51 14.8819C116.934 14.7745 117.257 14.6134 117.257 14.5418C117.223 14.327 117.274 14.148 117.375 14.148C117.426 14.148 117.409 14.2375 117.341 14.3628L117.341 14.3628ZM100.98 14.9802C100.859 15.3548 100.496 15.4797 100.213 15.1051C99.8898 14.7304 100.011 14.3558 100.455 14.3558C100.899 14.2309 101.142 14.6055 100.98 14.9802L100.98 14.9802ZM116.999 14.7747C116.999 14.9106 116.743 15.1824 116.43 15.3863C116.117 15.5901 115.917 15.4543 116.031 15.1145C116.174 14.5029 116.999 14.2311 116.999 14.7747L116.999 14.7747ZM59.9296 15.3194C59.8085 15.6941 59.445 15.819 59.1624 15.4444C58.8393 15.0697 58.9605 14.6951 59.4047 14.6951C59.8489 14.5701 60.0912 14.9448 59.9296 15.3194L59.9296 15.3194ZM103.891 15.1548C103.891 15.408 103.627 15.6612 103.31 15.6612C102.808 15.6612 102.782 15.5599 103.099 15.1548C103.601 14.4966 103.891 14.4966 103.891 15.1548L103.891 15.1548ZM106.291 15.4601C106.059 15.7677 105.687 15.7677 105.478 15.4601C105.245 14.9986 105.431 14.6908 105.873 14.6908C106.314 14.6908 106.5 14.9986 106.291 15.4601L106.291 15.4601ZM58.2826 15.3435C58.1007 15.6213 57.7823 15.8435 57.6003 15.8435C57.3729 15.8435 57.4184 15.6768 57.7141 15.3435C58.3281 14.6768 58.692 14.6768 58.2826 15.3435L58.2826 15.3435ZM95.7127 15.3265C95.7127 15.5765 95.5127 15.8265 95.2127 15.8265C94.9627 15.8265 94.7127 15.5765 94.7127 15.3265C94.7127 15.0266 94.9627 14.8265 95.2127 14.8265C95.5127 14.8265 95.7127 15.0266 95.7127 15.3265L95.7127 15.3265ZM92.1683 15.3694C92.1683 15.4372 91.9817 15.6238 91.7442 15.7765C91.2184 16.1157 91.1844 16.4211 91.6764 16.3023C91.8799 16.2514 91.9817 16.2684 91.8969 16.3362C91.7103 16.4889 90.4211 16.9469 89.7426 17.0996C89.4542 17.1674 89.2167 17.371 89.115 17.6254C88.9962 17.9138 88.8775 18.0156 88.6739 17.9308C88.4025 17.829 88.4025 17.812 88.6909 17.6085C88.8605 17.4728 88.9284 17.3031 88.8435 17.1674C88.7757 17.0487 88.7757 16.9978 88.8605 17.0657C89.0301 17.2183 89.6578 16.896 89.539 16.7094C89.5051 16.6246 89.8104 16.4719 90.2345 16.3702C90.6586 16.2684 90.947 16.0988 90.8961 16.014C90.8282 15.9122 90.7095 15.8952 90.6077 15.9461C90.5059 16.014 90.472 15.9291 90.5059 15.7425C90.5398 15.522 90.6925 15.4372 90.93 15.4711C91.1336 15.5051 91.3371 15.4542 91.388 15.3524C91.5067 15.1658 92.1683 15.1658 92.1683 15.3694L92.1683 15.3694ZM54.3408 15.8576C53.5605 16.5336 53.1195 16.5336 53.6623 15.8951C53.8998 15.5947 54.273 15.3694 54.5104 15.3694C54.8836 15.3694 54.8497 15.4069 54.3408 15.8576L54.3408 15.8576ZM117.952 15.9612C117.952 16.2741 117.681 16.4305 117.358 16.2741C117.036 16.1176 116.765 15.8048 116.765 15.6483C116.765 15.4919 117.036 15.3354 117.358 15.3354C117.681 15.3354 117.952 15.6483 117.952 15.9612L117.952 15.9612ZM96.0089 16.0578C95.8349 16.4235 95.2842 16.7718 95.1103 16.6499C94.9653 16.5628 95.748 15.6747 95.9799 15.6747C96.1248 15.6747 96.1248 15.8488 96.0089 16.0578L96.0089 16.0578ZM109.439 16.3443C109.311 16.5943 108.967 16.8443 108.752 16.8443C108.494 16.8443 108.451 16.5943 108.58 16.3443C108.709 16.0443 109.053 15.8443 109.268 15.8443C109.525 15.8443 109.568 16.0443 109.439 16.3443L109.439 16.3443ZM104.425 16.514C104.425 16.7639 104.12 17.014 103.754 17.014C103.45 17.014 103.328 16.7639 103.511 16.514C103.694 16.214 103.998 16.014 104.181 16.014C104.303 16.014 104.425 16.214 104.425 16.514L104.425 16.514ZM110.479 16.6765C110.358 17.0511 109.995 17.176 109.712 16.8014C109.389 16.4267 109.51 16.0521 109.954 16.0521C110.399 15.9272 110.641 16.3018 110.479 16.6765L110.479 16.6765ZM98.6613 17.5069C98.544 17.7383 98.2311 17.9312 97.9965 17.9312C97.7618 17.9312 97.7618 17.6998 98.0747 17.3526C98.6222 16.6969 99.0915 16.8512 98.6613 17.5069L98.6613 17.5069ZM88.0794 17.461C88.0794 17.5907 87.8461 17.8503 87.5794 18.1099C87.3127 18.3046 87.0794 18.1748 87.0794 17.8503C87.0794 17.461 87.3127 17.2014 87.5794 17.2014C87.8461 17.2014 88.0794 17.3311 88.0794 17.461L88.0794 17.461ZM110.532 18.0046C110.299 18.3122 109.927 18.3122 109.718 18.0046C109.486 17.543 109.672 17.2353 110.113 17.2353C110.555 17.2353 110.741 17.543 110.532 18.0046L110.532 18.0046ZM77.119 18.696C77.119 18.8388 76.8699 18.9815 76.5378 18.9815C76.2335 18.9815 76.0397 18.696 76.1504 18.2676C76.2888 17.6966 77.119 18.0535 77.119 18.696L77.119 18.696ZM89.106 18.8817C88.9849 19.2563 88.6214 19.3812 88.3387 19.0066C88.0157 18.6319 88.1368 18.2573 88.5811 18.2573C89.0253 18.1324 89.2676 18.507 89.106 18.8817L89.106 18.8817ZM64.9427 18.5584C64.7561 18.6263 64.349 18.7959 64.0267 18.9146C63.4669 19.1182 63.4669 19.1351 63.857 19.2878C64.0776 19.3726 64.6543 19.3896 65.1123 19.3217L65.9605 19.22L65.4176 19.5592C65.1123 19.7458 64.6034 19.8985 64.2133 19.8815C63.399 19.8815 62.7884 20.0511 62.9071 20.2717C62.9919 20.4074 62.6357 20.5091 62.2625 20.4413C62.1947 20.4243 61.8554 20.5431 61.5162 20.6788C61.1769 20.8145 60.8716 20.8993 60.8207 20.8484C60.685 20.7127 61.9911 20.2208 62.2456 20.3225C62.3643 20.3734 62.517 20.3225 62.5848 20.2208C62.7884 19.8985 61.2956 20.2208 60.7528 20.6279C60.3457 20.8993 60.1761 20.9332 59.8877 20.7975C59.5824 20.6449 59.5654 20.6109 59.8199 20.6109C59.9725 20.594 60.1082 20.5091 60.1082 20.4243C60.1082 20.3225 60.2609 20.2547 60.4305 20.2547C60.6171 20.2547 60.8716 20.136 61.0242 20.0002C61.1599 19.8646 61.4144 19.7628 61.584 19.7797C61.7536 19.7797 62.025 19.7797 62.2116 19.7797C62.8393 19.7119 62.1438 19.2369 61.4822 19.2708L60.8716 19.2878L61.4313 19.3557C61.7197 19.3896 61.9742 19.4914 61.9742 19.5931C61.9742 19.678 61.9572 19.7458 61.9402 19.7458C61.9063 19.7288 61.4653 19.6271 60.9564 19.5083L60.0234 19.3048L61.3804 19.0842C62.1268 18.9655 63.2294 18.762 63.8401 18.6432C65.1293 18.3718 65.4176 18.3548 64.9427 18.5584L64.9427 18.5584ZM112.185 18.5529C112.185 18.6442 112.388 18.7722 112.626 18.827C113.219 18.9915 112.965 19.229 112.066 19.3569C111.455 19.43 111.37 19.4118 111.472 19.1376C111.676 18.5711 112.185 18.1508 112.185 18.5529L112.185 18.5529ZM121.306 19.183C121.422 19.53 121.219 19.6688 120.899 19.4606C120.231 19.0442 120.144 18.5584 120.725 18.5584C120.957 18.5584 121.219 18.836 121.306 19.183L121.306 19.183ZM25.4947 19.5602C25.3736 19.9348 25.0102 20.0597 24.7275 19.6851C24.4044 19.3105 24.5256 18.9358 24.9698 18.9358C25.414 18.811 25.6563 19.1856 25.4947 19.5602L25.4947 19.5602ZM97.6558 19.6558C97.6558 19.9868 97.6177 20.1523 97.5796 20.0236C97.5224 19.9133 97.3127 19.8029 97.1029 19.8029C96.8741 19.8029 96.7598 19.7477 96.817 19.6742C96.8932 19.619 96.8551 19.4535 96.7407 19.3064C96.5691 19.1225 96.6454 19.0673 97.0839 19.0673C97.5986 19.0673 97.6558 19.1225 97.6558 19.6558L97.6558 19.6558ZM93.5642 20.4494C93.9762 20.963 93.9762 20.9973 93.4818 20.8603C93.1934 20.7918 92.9462 20.5521 92.8844 20.3124C92.7814 19.7645 93.0698 19.7987 93.5642 20.4494L93.5642 20.4494ZM21.8175 21.5935C21.7042 21.8566 21.3644 22.1198 21.1379 22.1198C20.8737 22.1198 20.9114 21.9093 21.2512 21.5935C21.9685 20.9619 22.1195 20.9619 21.8175 21.5935L21.8175 21.5935ZM106.991 21.8292C106.991 22.035 106.712 22.1997 106.394 22.1997C106.036 22.1997 105.916 21.9527 106.036 21.5822C106.275 20.9646 106.991 21.1293 106.991 21.8292L106.991 21.8292ZM109.075 23.1295C108.96 23.3795 108.691 23.6295 108.46 23.6295C108.267 23.6295 108.114 23.3795 108.114 23.1295C108.114 22.8295 108.383 22.6295 108.729 22.6295C109.037 22.6295 109.191 22.8295 109.075 23.1295L109.075 23.1295ZM64.5695 24.8178C64.8579 25.0722 65.723 24.9704 66.8086 24.5972C66.9952 24.5294 66.7747 24.682 66.2997 24.9365C65.8417 25.1909 65.0784 25.4623 64.6034 25.5302C64.1454 25.615 63.6705 25.7846 63.5856 25.9203C63.3651 26.2087 60.8207 26.4462 60.4475 26.1917C60.227 26.0391 60.227 26.0221 60.4475 26.0052C60.5832 25.9882 60.8376 26.0052 61.0073 26.0221C61.1769 26.0391 61.5162 25.9203 61.7706 25.7507C62.025 25.5811 62.5 25.4115 62.8223 25.3436C63.3482 25.2588 63.416 25.1909 63.4669 24.716C63.5178 24.2071 63.5517 24.1731 63.891 24.3767C64.0945 24.4955 64.3999 24.682 64.5695 24.8178L64.5695 24.8178ZM114.381 26.0061C114.26 26.3808 113.896 26.5057 113.614 26.131C113.291 25.7564 113.412 25.3817 113.856 25.3817C114.3 25.2568 114.542 25.6315 114.381 26.0061L114.381 26.0061ZM26.843 26.6708C26.843 26.8006 26.6096 26.9304 26.343 26.9304C26.0763 26.9304 25.843 26.6708 25.843 26.2814C25.843 25.9569 26.0763 25.8272 26.343 26.0218C26.6096 26.2814 26.843 26.541 26.843 26.6708L26.843 26.6708ZM25.4947 26.8543C25.3736 27.2289 25.0102 27.3538 24.7275 26.9792C24.4044 26.6045 24.5256 26.2299 24.9698 26.2299C25.414 26.105 25.6563 26.4796 25.4947 26.8543L25.4947 26.8543ZM24.3902 26.6398C24.2058 27.0466 23.4681 27.5695 23.4681 27.3081C23.4681 27.1047 23.9599 26.6689 24.4517 26.3783C24.4926 26.3783 24.4517 26.4655 24.3902 26.6398L24.3902 26.6398ZM19.1204 28.8609C18.9312 29.1685 18.5529 29.1685 18.3097 28.8609C18.0395 28.3994 18.2016 28.0916 18.634 28.0916C19.0934 28.0916 19.2826 28.3994 19.1204 28.8609L19.1204 28.8609ZM20.1403 28.3451C20.1403 28.481 19.8841 28.7529 19.5711 28.9567C19.258 29.1606 19.0588 29.0246 19.1726 28.6849C19.3149 28.0733 20.1403 27.8015 20.1403 28.3451L20.1403 28.3451ZM37.6694 30.0604C37.4916 30.1819 37.136 29.9794 36.9581 29.5743C36.6025 29.0073 36.6618 28.9668 37.2545 29.3313C37.6694 29.6149 37.8473 29.9389 37.6694 30.0604L37.6694 30.0604ZM37.8556 30.254C37.9845 30.504 37.9415 30.754 37.6837 30.754C37.4689 30.754 37.1252 30.504 36.9963 30.254C36.8674 29.954 36.9104 29.754 37.1682 29.754C37.383 29.754 37.7267 29.954 37.8556 30.254L37.8556 30.254ZM36.7799 30.3059C36.6495 30.436 36.7147 30.6744 36.9103 30.8262C37.1711 31.0213 37.1385 31.108 36.7799 31.108C36.5191 31.108 36.3887 31.0213 36.4865 30.9346C36.5517 30.8479 36.4539 30.6961 36.2583 30.6094C35.9975 30.5227 36.0301 30.4143 36.3235 30.2842C36.9103 30.0458 37.0081 30.0458 36.7799 30.3059L36.7799 30.3059ZM15.369 30.7629C15.369 31.0128 15.2472 31.2629 15.1253 31.2629C14.9425 31.2629 14.6377 31.0128 14.4549 30.7629C14.2721 30.4629 14.394 30.2629 14.6987 30.2629C15.0643 30.2629 15.369 30.4629 15.369 30.7629L15.369 30.7629ZM37.8867 31.4436C37.6492 32.0127 37.1064 32.1132 36.9707 31.6445C36.9028 31.4771 37.0046 31.4101 37.1912 31.5105C37.3608 31.611 37.5644 31.5105 37.6153 31.3097C37.6831 31.1088 37.8188 30.9414 37.9206 30.9414C38.0394 30.9414 38.0224 31.1423 37.8867 31.4436L37.8867 31.4436ZM37.8827 31.9545C37.9728 32.1218 37.9503 32.1775 37.7927 32.066C37.6576 31.9824 37.455 32.0939 37.3424 32.3448C37.2074 32.6515 37.0948 32.7073 36.9822 32.4842C36.8922 32.3169 36.9372 32.1775 37.0723 32.1775C37.2074 32.1775 37.2524 32.0381 37.1848 31.8987C37.1173 31.7314 37.2074 31.6199 37.3875 31.6199C37.5676 31.6199 37.7927 31.7593 37.8827 31.9545L37.8827 31.9545ZM37.0215 32.4289C37.0215 32.4963 36.7545 32.7655 36.454 33.0012C35.9199 33.4388 35.8865 33.4051 36.3205 32.8665C36.7545 32.328 37.0215 32.1597 37.0215 32.4289L37.0215 32.4289ZM37.9468 33.3073C37.9468 33.574 37.817 33.8073 37.6872 33.8073C37.5574 33.8073 37.2978 33.574 37.0383 33.3073C36.8436 33.0406 36.9733 32.8073 37.2978 32.8073C37.6872 32.8073 37.9468 33.0406 37.9468 33.3073L37.9468 33.3073ZM38.8955 33.4698C38.7744 33.8445 38.4109 33.9694 38.1283 33.5948C37.8052 33.2201 37.9263 32.8455 38.3705 32.8455C38.8147 32.7206 39.0571 33.0952 38.8955 33.4698L38.8955 33.4698ZM36.7687 34.2844C36.4899 34.5187 36.2111 34.7335 36.1646 34.753C36.1181 34.792 36.0717 34.5577 36.0717 34.2454C36.0717 33.8549 36.2575 33.6987 36.6758 33.7768C37.187 33.8549 37.187 33.972 36.7687 34.2844L36.7687 34.2844ZM71.9145 36.2169C72.0502 36.4544 71.6431 38.914 71.4565 38.914C71.3717 38.914 71.3038 38.8631 71.3038 38.7783C71.3038 38.7104 71.236 38.5578 71.1511 38.4221C71.0324 38.2355 70.9306 38.2185 70.744 38.3712C70.5744 38.5239 70.5065 38.5239 70.5065 38.3542C70.5065 38.2524 70.4557 37.981 70.3878 37.7605C70.286 37.4721 70.3369 37.3534 70.6592 37.2347L71.0494 37.065L70.6762 37.065C70.1673 37.0481 70.1842 36.9463 70.761 36.4544C71.2529 36.0133 71.7279 35.9115 71.9145 36.2169L71.9145 36.2169ZM114.422 36.1899C114.422 36.2668 114.159 36.5361 113.861 36.767C113.335 37.1518 113.318 37.1133 113.616 36.6131C113.931 36.0744 114.422 35.8435 114.422 36.1899L114.422 36.1899ZM37.4209 37.0392C37.4209 37.2892 37.299 37.5392 37.1772 37.5392C36.9943 37.5392 36.6896 37.2892 36.5068 37.0392C36.324 36.7392 36.4459 36.5392 36.7506 36.5392C37.1162 36.5392 37.4209 36.7392 37.4209 37.0392L37.4209 37.0392ZM71.4734 39.6773C71.4734 39.7113 71.2529 39.9827 70.9645 40.271C70.6423 40.5933 70.4557 40.6951 70.4557 40.5425C70.4557 40.4067 70.6592 40.1353 70.8967 39.9487C71.3547 39.5925 71.4734 39.5247 71.4734 39.6773L71.4734 39.6773ZM38.4974 41.7299C38.4974 41.9164 38.684 42.0861 39.0402 42.2048C39.4812 42.3575 39.5491 42.4423 39.3794 42.6119C39.2268 42.7646 39.2268 42.8155 39.3794 42.8155C39.4982 42.8155 39.583 42.9851 39.583 43.1887C39.583 43.477 39.5321 43.511 39.4303 43.3413C39.3455 43.2056 39.1928 43.1717 39.0741 43.2396C38.9384 43.3244 38.8875 43.2905 38.9384 43.1378C38.9893 43.0021 38.8197 42.6968 38.5822 42.4593C38.1072 42.0013 37.9545 41.4585 38.3108 41.4585C38.4295 41.4585 38.5143 41.5772 38.4974 41.7299L38.4974 41.7299ZM80.5147 43.2565C80.6674 43.3074 80.7183 43.494 80.6843 43.7484C80.5826 44.2065 81.1084 44.5796 81.6003 44.3931C81.8548 44.2913 81.8717 44.3252 81.7021 44.5457C81.5834 44.6814 81.5325 44.851 81.5834 44.9019C81.6512 44.9528 81.6343 45.1394 81.5664 45.3091C81.3968 45.6992 81.3629 45.801 81.3289 46.1233C81.3289 46.259 81.2272 46.3777 81.1254 46.3777C81.0236 46.3777 80.9727 46.259 81.0406 46.1233C81.1084 45.9197 80.9897 45.9028 80.3281 45.9876C79.8871 46.0385 79.3952 46.1572 79.2425 46.242C78.8693 46.4286 78.1399 46.242 78.0211 45.9367C77.9703 45.801 77.8006 45.6992 77.631 45.6992C77.4274 45.6992 77.5123 45.5805 77.9024 45.343C78.53 44.9698 78.4961 44.7493 77.8346 44.9189C77.5631 44.9868 77.4444 45.1055 77.5123 45.2242C77.5801 45.343 77.5631 45.3599 77.4444 45.2921C77.3426 45.2242 77.0034 45.3091 76.698 45.4617C76.3927 45.6314 75.9177 45.8179 75.6294 45.8858C75.358 45.9536 74.9339 46.0724 74.6964 46.1402C74.2723 46.242 74.2723 46.242 74.6116 45.9706C74.9339 45.6822 74.9169 45.6822 74.2384 45.7501C73.8313 45.801 73.509 45.8179 73.509 45.784C73.509 45.6314 75.3919 44.6984 76.1043 44.5118C76.5454 44.3931 76.9525 44.2234 77.0034 44.1556C77.0543 44.0707 77.173 44.0029 77.2917 44.0029C77.3935 44.0029 77.3257 44.1216 77.1391 44.2573C76.9694 44.3931 76.9016 44.5118 77.0203 44.5118C77.3766 44.5118 78.089 44.1895 78.089 44.0199C78.089 43.9181 77.9872 43.8842 77.8515 43.935C77.7158 43.9859 77.5631 43.935 77.4783 43.8163C77.4105 43.6976 77.4274 43.6467 77.5123 43.7145C77.5971 43.7654 78.089 43.6636 78.5979 43.494C79.5648 43.1547 80.0906 43.0869 80.5147 43.2565L80.5147 43.2565ZM38.9893 44.2446C38.9214 44.4506 38.6331 44.5742 38.3447 44.5742C37.9885 44.5329 37.9206 44.4506 38.1411 44.327C38.3277 44.2034 38.5483 43.9563 38.6331 43.7503C38.8197 43.3383 39.108 43.7091 38.9893 44.2446L38.9893 44.2446ZM104.477 44.6788C104.694 45.3371 104.341 45.3371 103.8 44.6788C103.447 44.2738 103.447 44.1725 103.854 44.1725C104.098 44.1725 104.396 44.375 104.477 44.6788L104.477 44.6788ZM106.295 47.1938C106.295 47.3365 106.046 47.4794 105.714 47.4794C105.41 47.4794 105.216 47.1938 105.327 46.7655C105.465 46.1944 106.295 46.5514 106.295 47.1938L106.295 47.1938ZM83.602 47.4846C83.7038 47.6594 83.4154 47.8344 82.9743 47.8344C82.5163 47.9218 82.1601 47.572 82.1601 47.2222C82.1601 46.61 83.2118 46.7849 83.602 47.4846L83.602 47.4846ZM80.4638 47.158C80.4638 47.3107 79.3952 48.3115 79.1746 48.3794C78.6149 48.532 78.4283 48.6677 77.8685 49.3293C77.173 50.1605 76.9016 50.7542 76.9016 51.4157C76.9016 51.7041 76.6471 52.0942 76.1552 52.5862C75.341 53.4174 74.883 53.5361 74.8491 52.9424C74.7982 51.9585 75.5446 50.5506 76.9864 48.9561C77.6989 48.1588 77.8515 47.7348 77.2409 48.2776C77.1051 48.3963 77.173 48.2776 77.4105 48.0231C77.6649 47.7348 77.9363 47.5821 78.1229 47.616C78.2756 47.6669 78.547 47.599 78.7166 47.4803C79.1577 47.175 80.4638 46.9375 80.4638 47.158L80.4638 47.158ZM83.3475 47.6669C83.9073 47.9044 83.9582 47.9044 84.2296 47.5821C84.6537 47.0562 85.1456 47.1241 85.3661 47.7517C85.7732 48.9222 85.0269 49.5837 84.4162 48.5829C84.043 47.9383 83.7038 47.9044 83.8225 48.515C83.8904 48.8713 83.7886 49.0748 83.3815 49.4311C83.0931 49.6685 82.8047 50.0757 82.7538 50.3301C82.6521 50.7033 82.0414 51.297 81.753 51.297C81.7021 51.297 81.6852 50.9747 81.7021 50.5676C81.736 49.9399 81.7021 49.8551 81.3968 49.906C81.2102 49.9399 80.9388 50.0757 80.7861 50.2114C80.6504 50.3471 80.4638 50.4488 80.379 50.4488C80.3112 50.4488 80.5995 50.1096 81.0406 49.6855C81.4816 49.2614 81.7869 48.8374 81.736 48.7525C81.6852 48.6677 81.7191 48.566 81.8209 48.4981C82.1092 48.3115 82.0075 48.074 81.5664 47.8705C81.3289 47.7687 81.1423 47.5651 81.1423 47.4294C81.1423 47.2428 81.295 47.2089 81.9566 47.3107C82.3976 47.3785 83.0252 47.5312 83.3475 47.6669L83.3475 47.6669ZM84.3077 47.8062C84.1877 48.0415 83.9476 48.2768 83.7076 48.2768C83.5076 48.2768 83.3475 48.0415 83.3475 47.8062C83.3475 47.5121 83.6276 47.2768 83.9476 47.2768C84.2677 47.2768 84.4277 47.5121 84.3077 47.8062L84.3077 47.8062ZM89.2846 50.0587C89.2676 50.6185 88.2498 51.0086 87.1642 50.8729C86.6892 50.8051 86.0107 50.839 85.6715 50.9238C84.8572 51.1443 84.8572 50.8899 85.6884 50.4997C86.0955 50.2962 86.7062 50.1944 87.4695 50.1944C88.0972 50.1944 88.6061 50.1435 88.6061 50.0587C88.6061 49.9908 88.7587 49.9399 88.9453 49.9399C89.1319 49.9399 89.2846 49.9908 89.2846 50.0587L89.2846 50.0587ZM85.3831 51.7211C85.3831 51.8398 84.043 52.5014 82.8386 52.9424C81.1932 53.57 80.4977 53.7057 80.1246 53.5022C79.6835 53.2647 79.6835 52.9933 80.1246 52.9933C80.3112 52.9933 80.4638 53.0951 80.4638 53.1968C80.4638 53.3665 80.4977 53.3665 80.5995 53.2138C80.6674 53.0951 81.1763 52.7728 81.736 52.5014C82.5503 52.0773 82.8726 52.0094 83.5172 52.0773C84.06 52.1451 84.2127 52.1282 84.043 52.0094C83.8564 51.8737 83.9243 51.8228 84.3823 51.755C84.7046 51.7211 85.0608 51.6702 85.1795 51.6702C85.2813 51.6532 85.3831 51.6702 85.3831 51.7211L85.3831 51.7211ZM81.2734 52.9844C81.2081 53.2344 80.947 53.4844 80.7076 53.4844C80.49 53.4844 80.2942 53.2344 80.2942 52.9844C80.2942 52.6844 80.5553 52.4844 80.86 52.4844C81.1646 52.4844 81.3605 52.6844 81.2734 52.9844L81.2734 52.9844ZM86.2783 59.0154C86.7085 59.6711 86.2392 59.8254 85.6917 59.1697C85.3788 58.8225 85.3788 58.5911 85.6135 58.5911C85.8482 58.5911 86.161 58.7839 86.2783 59.0154L86.2783 59.0154ZM86.348 62.1142C86.4643 62.4979 86.3092 62.5619 85.999 62.37C85.301 61.9224 85.1847 61.4748 85.7276 61.4748C85.9602 61.4748 86.2317 61.7306 86.348 62.1142L86.348 62.1142ZM66.39 70.4563C66.5266 70.7063 66.3445 70.9563 65.9349 70.9563C65.5252 70.9563 65.3431 70.7063 65.4797 70.4563C65.6162 70.1563 65.8438 69.9563 65.9349 69.9563C66.0259 69.9563 66.2535 70.1563 66.39 70.4563L66.39 70.4563ZM67.7076 97.6738C67.8773 98.064 67.8603 98.0809 67.3005 98.064C66.8086 98.0301 66.7577 97.9961 66.9952 97.8265C67.2666 97.6229 67.2666 97.606 67.0122 97.5042C66.8425 97.4533 66.7238 97.2498 66.7238 97.0801C66.7238 96.7748 66.7577 96.7748 67.1139 97.0123C67.3345 97.148 67.6059 97.4533 67.7076 97.6738L67.7076 97.6738Z" id="path2415" fill="#D5E2E9" fill-rule="evenodd" stroke="none" />
    <path d="M94.119 9.77156C93.661 9.85638 92.9656 9.94119 92.5924 9.95816C92.2192 9.99208 91.6085 10.1108 91.2523 10.2296C90.7264 10.4162 90.6416 10.484 90.8622 10.6197C91.2693 10.8402 91.0148 11.2643 90.455 11.2643C90.1836 11.2643 89.9631 11.1795 89.9631 11.0947C89.9631 10.8742 89.3524 10.8742 88.9284 11.0947C88.5043 11.3322 88.6909 11.6884 89.4712 12.0785C89.8953 12.2821 90.0479 12.4687 90.031 12.757C90.014 13.2151 90.0479 13.2151 92.1344 12.774C92.9995 12.6044 93.3218 12.4348 93.9494 11.8241C94.3735 11.4339 94.7128 10.942 94.7128 10.7554C94.7128 10.5688 94.8315 10.4162 94.9672 10.4162C95.2386 10.4162 95.2556 10.3144 95.0859 9.90727C94.9842 9.68675 94.8145 9.66978 94.119 9.77156L94.119 9.77156ZM94.571 11.1712C94.8657 11.5156 94.8657 11.5538 94.5257 11.4008C94.3216 11.286 94.1175 11.3625 94.0495 11.6304C94.0042 11.86 93.9135 11.7834 93.8228 11.4008C93.6641 10.6737 94.0495 10.5207 94.571 11.1712L94.571 11.1712Z" id="path2417" fill="#D5E2E9" fill-rule="evenodd" stroke="none" />
    <path d="M18.939 29.6522C18.4641 29.8558 18.0061 30.0763 17.9382 30.1441C17.8703 30.212 17.6498 30.2629 17.4463 30.2629C17.2258 30.2629 16.9713 30.3816 16.8526 30.5173C16.7338 30.653 16.5812 30.7378 16.5133 30.6869C16.2928 30.5512 15.3259 30.9583 15.1563 31.2637C14.9188 31.7217 15.2072 32.027 15.7669 31.8743C16.0383 31.7895 16.3776 31.7217 16.5133 31.6878C16.649 31.6538 16.9035 31.569 17.107 31.4672C17.2936 31.3655 17.7346 31.1789 18.0909 31.0432C18.6337 30.8226 18.8033 30.6021 18.7524 30.0932C18.7524 30.0423 19.0069 30.0254 19.3292 30.0593C19.855 30.1272 19.9059 30.0932 19.9059 29.6861C19.9059 29.4486 19.8889 29.2451 19.872 29.2621C19.8381 29.2621 19.4309 29.4486 18.939 29.6522L18.939 29.6522Z" id="path2419" fill="#D5E2E9" stroke="none" />
    <path d="M73.0001 80.4903C72.7626 80.5582 72.2198 80.7108 71.7788 80.8296C71.3378 80.9314 70.8458 81.1688 70.6932 81.3385C70.5405 81.5251 70.2861 81.6608 70.1334 81.6608C69.8959 81.6608 69.8959 81.6947 70.1164 81.8304C70.3369 81.9661 70.303 82.017 69.9977 82.1018C69.4888 82.2375 69.5058 82.4411 70.0146 82.5428C70.2521 82.5937 70.5914 82.492 70.8119 82.3223C71.0324 82.1527 71.3378 82 71.4904 82C71.6431 82 71.9315 81.8474 72.152 81.6608C72.4234 81.4233 72.7626 81.3215 73.2376 81.3385C73.6278 81.3554 73.7974 81.3894 73.6447 81.4402C73.4751 81.4742 73.3394 81.576 73.3394 81.6608C73.3394 81.8134 74.3911 82.1697 74.8661 82.1697C75.0018 82.1697 75.5107 82.3562 75.9687 82.5937C76.4775 82.8312 76.9695 82.9669 77.207 82.8991C77.5123 82.8312 77.5801 82.8821 77.5801 83.2383C77.5801 83.4588 77.6989 83.7472 77.8346 83.8659C77.9703 83.9847 78.089 84.1713 78.089 84.29C78.089 84.4088 78.2078 84.5954 78.3435 84.7141C78.4961 84.8328 78.581 85.0364 78.5301 85.1551C78.4113 85.4435 81.9905 85.3587 82.7539 85.0703L83.2458 84.8668L82.7539 84.4597C82.4655 84.2391 82.0414 84.0525 81.8039 84.0356C81.4986 84.0356 81.3629 83.9508 81.3799 83.7642C81.3968 83.5776 81.1593 83.408 80.6674 83.2722C79.955 83.0517 78.9372 82.2036 78.9372 81.7965C78.9372 81.6947 78.8863 81.6438 78.8354 81.7116C78.7676 81.7625 78.6149 81.7116 78.4792 81.576C78.1908 81.2706 77.6819 81.2367 77.8516 81.5251C77.9364 81.6608 77.8855 81.6777 77.6819 81.6099C77.5123 81.542 77.2748 81.4911 77.1391 81.4911C77.0034 81.4911 76.9186 81.4063 76.9525 81.2876C77.0543 80.7787 74.0349 80.168 73.0001 80.4903L73.0001 80.4903ZM79.2439 84.7052C79.3156 85.0052 79.1185 85.2052 78.814 85.2052C78.5095 85.2052 78.2587 84.9552 78.2587 84.7052C78.2587 84.4052 78.4557 84.2052 78.6886 84.2052C78.9394 84.2052 79.1902 84.4052 79.2439 84.7052L79.2439 84.7052Z" id="path2421" fill="#D5E2E9" fill-rule="evenodd" stroke="none" />
    <path d="M84.2297 85.223C83.6699 85.4944 83.6529 85.7319 84.2297 85.7319C84.4502 85.7319 84.535 85.8676 84.535 86.2068C84.535 86.4613 84.6198 86.7666 84.7386 86.8854C85.0609 87.2077 84.4332 87.3264 83.3985 87.1398C82.5843 86.9871 82.4655 87.0041 82.3298 87.2755C82.1941 87.513 82.262 87.6317 82.703 87.8353C83.2797 88.1237 83.5851 88.1915 83.4494 87.971C83.4154 87.9031 83.8225 87.8353 84.3823 87.8523C85.3153 87.8523 85.451 87.9031 85.7563 88.3272L86.0956 88.8022L86.5197 88.2085C86.9268 87.5978 87.1643 87.4621 87.283 87.7674C87.3169 87.8692 87.5205 87.8353 87.8089 87.6826C88.3008 87.4282 89.3355 87.4791 89.4203 87.7674C89.4543 87.8523 89.6069 87.9371 89.7596 87.9371C89.8953 87.9371 89.9632 87.8862 89.9123 87.8183C89.8444 87.7674 89.9292 87.6148 90.0989 87.496C90.3703 87.2925 90.3363 87.2246 89.7596 86.6648C89.4203 86.3426 88.9793 86.0711 88.7927 86.0711C88.5892 86.0711 88.4365 85.9694 88.4365 85.8337C88.4365 85.4944 87.0455 85.1551 86.1295 85.3078C85.5697 85.3926 85.2814 85.3587 85.0778 85.1721C84.8234 84.9685 84.7046 84.9855 84.2297 85.223L84.2297 85.223Z" id="path2423" fill="#D5E2E9" stroke="none" />
  </g>
</svg>